<?xml version="1.0" encoding="utf-8"?>
<!-- Generator: Adobe Illustrator 18.0.0, SVG Export Plug-In . SVG Version: 6.00 Build 0)  -->
<!DOCTYPE svg PUBLIC "-//W3C//DTD SVG 1.1//EN" "http://www.w3.org/Graphics/SVG/1.1/DTD/svg11.dtd" [
	<!ENTITY ns_flows "http://ns.adobe.com/Flows/1.0/">
	<!ENTITY ns_extend "http://ns.adobe.com/Extensibility/1.0/">
	<!ENTITY ns_ai "http://ns.adobe.com/AdobeIllustrator/10.0/">
	<!ENTITY ns_graphs "http://ns.adobe.com/Graphs/1.0/">
]>
<svg version="1.1" id="Layer_1" xmlns:x="&ns_extend;" xmlns:i="&ns_ai;" xmlns:graph="&ns_graphs;"
	 xmlns="http://www.w3.org/2000/svg" xmlns:xlink="http://www.w3.org/1999/xlink" xmlns:a="http://ns.adobe.com/AdobeSVGViewerExtensions/3.0/"
	 x="0px" y="0px" viewBox="0 0 170 220" style="enable-background:new 0 0 170 220;" xml:space="preserve">
<style type="text/css">
	.st0{fill:#DEDEC8;}
	.st1{fill:none;stroke:#FFFFFF;stroke-width:0.5;stroke-miterlimit:10;}
</style>
<polygon class="st0" points="146.8,142.1 147.8,139.5 148.7,139.6 148.5,141.6 "/>
<polygon class="st0" points="109.6,141.6 109.9,138.9 111.1,138.9 111.1,141.4 110.3,141.1 "/>
<polygon class="st0" points="23.2,142 22.3,139.4 21.4,139.5 21.6,141.5 "/>
<polygon class="st0" points="60.5,141.6 60.1,138.9 58.9,138.9 58.9,141.4 59.7,141.1 "/>
<polygon class="st0" points="85.9,188.4 87,184.8 85,185.1 83,184.8 84.1,188.4 "/>
<rect x="83.7" y="29.1" class="st0" width="2.6" height="115.7"/>
<path class="st0" d="M86.6,27.7l1,0.3l0-7.8C87.6,9.8,71,9.5,68.9,18.8c-0.6,2.4,0.5,3.2,2.3,3.3c1.1,0.1,2.3-0.3,2.4-2.1
	c0.4-4.6,9.3-5.2,9.1,0.2l0,7.8l1-0.3L86.6,27.7z"/>
<path class="st0" d="M85.1,122.8c-0.6,3.2-2.8,3-6.1,9.5c-1.2,4.1-8.7,9-8.5,2.8c-0.4-3.9-3.2-9.6-3.2-9.6
	C71.8,125.6,82.1,123.4,85.1,122.8z M42.7,76.5c5,2.3-4.2,12.4-2.7,4.8C40.5,79.6,41.1,77.6,42.7,76.5z M62.9,152.6
	C61.5,153.9,61.8,153.7,62.9,152.6z M49.3,60.3c-7.9-0.1-8.6,7.7-8.9,13c-4.8,3.7-10.8,12-10.8,19.1c-0.6,4.9,5.6,13.1,7.8,5
	c0.8-2.3,3.5-7.5,2.9-2.2c0.5,13.2-4,24.1-2.7,37.3c2.6,7.7,5.8,3.1,4.5,3.1c-1.1,0-0.6,1-1.7,0.1c-0.7-0.6-1.2-3.4-1-3.7
	c1.1-1.5,1.8,1.9,2.3,1.9c1-0.1-0.4-4.5-1.3-6.2c-0.9-5.5,0.2-9,1.9-14.3c1.1-5.4,3.4-10.9,3.2-16.4c4.2,3.3,10.3,8.4,5.6,14.4
	c-2.9,4.8-2.8,11.9,2.3,15.2c4.3,5.6,8.2,11.6,13.1,16.7c2.7,3.1-4,10.2-3.1,9.1c1.4-1.7,6.5-3.9,3.7,0.2c-4.1,1.4-4.5,10.9,0.9,7.6
	c12.7-9.2,1.3-8.5,8.9-18.7c5.1-6.2,12.8-10.8,15.6-18.6c0.4-6.7-8.9-7.5-13.9-8.4c-3.9-0.4-7.8-0.1-11.9,0.5
	c-6.3,2.1-3.8-4.2-4.7-8.8c-0.8-4-4-9.5-2.1-10.7c5.7,2.1,8.6,1,8.6,1c1.8-0.9,8.3-6.9,11.2-10.4c2-0.8,3.9-2.8,3.1-2.4
	c-4.6,2,0.4-4-0.9-4.5c-2.4,6.2-11.6,10-15.1,13.6c-1.2,0.9-8.1-5.8-13.8-6.6c-5.3-1-3.8-7.6-0.9-5.8c0.5,0.4,0.9,0.1,1.4-0.8
	c0-0.1,0.3-0.3,0.3-0.4c0.1-0.2-0.1-0.2,0-0.4c0.1-0.2,0.3-0.2,0.3-0.4c0.1-0.2,0-0.6,0.1-0.8c0.3,0,0.6-0.1,0.9-0.2
	c0.1-1,0.3-2,0.5-2.8c0.1-0.3,0.3-0.6,0.4-0.9c0.2-0.5,0.2-2,0.4-2.4c0.6-1.4,1.3-0.9,2.1-0.3c-1.3,1.8,0.9,2.6,0,7.5
	c0.6-0.9,0.7-1.7,1-2.1c4.9-5.2,1.7-11.1-2.6-11C57.3,63.1,51.9,59.6,49.3,60.3z"/>
<path class="st0" d="M19.8,141.6c14.7,4.8,25.7,5.1,40,0.3c4.8,3.8,20.3,4.5,25.3,4.4c5,0.1,20.5-0.6,25.3-4.4
	c14.2,4.9,25.2,4.5,40-0.3c-6.8,21.1-26.6,39-65.3,42.7C46.4,180.7,26.5,162.7,19.8,141.6z"/>
<path class="st1" d="M111.2,146.1h-1.5c-0.7,14.1-7.3,26.1-24.6,33.9c-17.4-7.8-23.9-19.8-24.6-33.9h-1.5
	c1,18.2,10.7,29.2,26.1,35.3C100.5,175.3,110.1,164.3,111.2,146.1z"/>
<path class="st0" d="M85.1,33.1c27.9,0,50.4,22.3,50.4,49.9c0,27.6-22.6,49.9-50.4,49.9c-27.9,0-50.4-22.3-50.4-49.9
	C34.7,55.5,57.3,33.1,85.1,33.1z M85.1,32C56.6,32,33.5,54.8,33.5,83c0,28.2,23.1,51.1,51.6,51.1c28.5,0,51.6-22.9,51.6-51.1
	C136.7,54.8,113.6,32,85.1,32z"/>
<path class="st0" d="M21.5,207.8h-2.2c0.1-2.4,0.1-4.5,0.1-6.4h-7c0,1.5,0,3.7,0.1,6.4h-2.2c0.1-2.5,0.2-4.8,0.2-7
	c0-2.3-0.1-4.4-0.2-6.4h2.2c-0.1,2-0.1,3.9-0.1,5.7h7.1c0-1.5,0-3.4-0.1-5.7h2.2c-0.1,1.9-0.2,4-0.2,6.4
	C21.3,203.3,21.4,205.7,21.5,207.8z"/>
<path class="st0" d="M33.9,202.1c-1.8-4-2.8-6.2-2.8-6.4H31c0,0.2-1,2.3-2.8,6.4H33.9z M38.4,207.8h-2.5c0-0.5-0.5-1.9-1.5-4.3h-6.8
	c-1,2.4-1.5,3.8-1.5,4.3h-2.4c0-0.3,1-2.5,3-6.6c2-4.1,3-6.4,3-6.8h2.7c0,0.4,1,2.7,2.9,6.7C37.4,205.2,38.4,207.4,38.4,207.8z"/>
<path class="st0" d="M49.3,206.4c-0.1-1.3-0.1-3.1-0.1-5.4c0-2,0-3.8,0-5.3h-2.9c-2.4,4.9-3.9,8.4-4.7,10.7H49.3z M53.6,206.4
	c0,0.4-0.1,1.3-0.3,2.6c-0.2,1.3-0.3,2.4-0.3,3.1h-1.4c0-0.9,0-2.3,0-4.3c-1.3-0.1-3.1-0.1-5.6-0.1c-2.1,0-3.9,0-5.3,0.1
	c-0.4,2-0.6,3.5-0.6,4.3h-1.3c0-0.7,0-1.7,0-3c0-1.3,0-2.2,0-2.6h1.1c1.3-3.6,3.2-7.6,5.5-12h6c-0.1,2.2-0.1,4.3-0.1,6.3
	c0,2,0.1,3.9,0.2,5.7H53.6z"/>
<path class="st0" d="M72.4,206.4c-0.1-1.3-0.1-3.1-0.1-5.4c0-2,0-3.8,0-5.3h-2.9c-2.4,4.9-3.9,8.4-4.7,10.7H72.4z M76.7,206.4
	c0,0.4-0.1,1.3-0.3,2.6c-0.2,1.3-0.3,2.4-0.3,3.1h-1.4c0-0.9,0-2.3,0-4.3c-1.3-0.1-3.1-0.1-5.6-0.1c-2.1,0-3.9,0-5.3,0.1
	c-0.4,2-0.6,3.5-0.6,4.3h-1.3c0-0.7,0-1.7,0-3c0-1.3,0-2.2,0-2.6h1.1c1.3-3.6,3.2-7.6,5.5-12h6c-0.1,2.2-0.1,4.3-0.1,6.3
	c0,2,0.1,3.9,0.2,5.7H76.7z"/>
<path class="st0" d="M90.4,201.2c0-1.8-0.5-3.1-1.6-4.1c-1.1-1-2.3-1.5-3.7-1.5c-1.3,0-2.4,0.5-3.4,1.5c-1,1-1.5,2.4-1.5,4.1
	c0,1.8,0.5,3.1,1.6,4.1c1.1,1,2.3,1.4,3.7,1.4c1.3,0,2.4-0.5,3.4-1.5C89.9,204.2,90.4,202.8,90.4,201.2z M92.5,200.9
	c0,2.2-0.7,4-2.2,5.3c-1.5,1.3-3.2,2-5.1,2c-1.9,0-3.5-0.6-4.9-1.8c-1.4-1.2-2.1-2.9-2.1-4.9c0-2.2,0.7-4,2.2-5.3
	c1.5-1.3,3.2-2,5.1-2c1.9,0,3.5,0.6,4.9,1.8C91.8,197.2,92.5,198.9,92.5,200.9z"/>
<path class="st0" d="M113.1,207.8h-2.4c-0.1-0.1-0.2-0.4-0.3-0.9c-0.6-2.2-1.3-3.6-2-4.3c-0.7-0.7-1.8-1-3.4-1c-0.1,0-0.2,0-0.3,0
	c0,2.2,0,4.2,0.1,6.1h-2.1c0.1-1.9,0.1-3.9,0.1-6.1c-0.1,0-0.3,0-0.4,0c-1.5,0-2.7,0.3-3.4,1c-0.7,0.7-1.4,2.1-2,4.3
	c-0.1,0.3-0.2,0.6-0.3,0.9h-2.3c0.1-0.3,0.3-0.7,0.5-1.2c0.9-2.2,1.6-3.6,2.1-4.3c0.5-0.6,1.3-1.1,2.3-1.4v-0.1
	c-0.9-0.4-1.7-0.9-2.2-1.6c-0.6-0.7-1.1-1.9-1.6-3.6c-0.1-0.3-0.3-0.7-0.4-1.1h2.1c0.1,0.1,0.2,0.4,0.3,0.8c0.4,1.9,1,3.3,1.9,4
	c0.8,0.8,1.9,1.1,3.3,1.1c0.1,0,0.1,0,0.2,0c0-1.9,0-3.8-0.1-5.9h2.1c-0.1,2.1-0.1,4-0.1,5.9c0.1,0,0.2,0,0.3,0
	c1.3,0,2.4-0.4,3.3-1.1c0.9-0.8,1.5-2.1,1.9-4c0.1-0.3,0.2-0.6,0.3-0.8h2c-0.1,0.2-0.2,0.6-0.4,1.1c-0.5,1.6-1.1,2.7-1.6,3.5
	c-0.6,0.8-1.3,1.3-2.2,1.7v0.1c1,0.3,1.8,0.8,2.3,1.4c0.5,0.6,1.2,2.1,2.1,4.3C112.7,206.8,112.9,207.3,113.1,207.8z"/>
<path class="st0" d="M124.7,206.4c-0.1-1.3-0.1-3.1-0.1-5.4c0-2,0-3.8,0-5.3h-2.9c-2.4,4.9-3.9,8.4-4.7,10.7H124.7z M128.9,206.4
	c0,0.4-0.1,1.3-0.3,2.6c-0.2,1.3-0.3,2.4-0.3,3.1h-1.4c0-0.9,0-2.3,0-4.3c-1.3-0.1-3.1-0.1-5.6-0.1c-2.1,0-3.9,0-5.3,0.1
	c-0.4,2-0.6,3.5-0.6,4.3H114c0-0.7,0-1.7,0-3c0-1.3,0-2.2,0-2.6h1.1c1.3-3.6,3.2-7.6,5.5-12h6c-0.1,2.2-0.1,4.3-0.1,6.3
	c0,2,0.1,3.9,0.2,5.7H128.9z"/>
<path class="st0" d="M139.5,191.8c0,0.3-0.1,0.6-0.4,0.8c-0.2,0.2-0.6,0.3-1,0.3c-0.4,0-0.6-0.1-0.8-0.3c-0.2-0.2-0.3-0.5-0.3-0.7
	c0-0.3,0.1-0.6,0.3-0.8c0.2-0.2,0.6-0.3,1-0.3c0.4,0,0.6,0.1,0.8,0.3C139.4,191.3,139.5,191.5,139.5,191.8z M135,191.8
	c0,0.3-0.1,0.6-0.4,0.8c-0.2,0.2-0.6,0.3-1,0.3c-0.4,0-0.6-0.1-0.8-0.3c-0.2-0.2-0.3-0.5-0.3-0.7c0-0.3,0.1-0.6,0.3-0.8
	c0.2-0.2,0.6-0.3,1-0.3c0.3,0,0.6,0.1,0.8,0.3C134.9,191.3,135,191.5,135,191.8z M141,206.3l-0.1,1.6h-9.5c0.1-2.1,0.2-4.5,0.2-7
	c0-2.4-0.1-4.5-0.2-6.4h8.9l-0.1,1.5c-2.2-0.1-4.4-0.1-6.9-0.1c0,1.1,0.1,2.5,0.1,4.3c2.1,0,3.9,0,5.6-0.1v1.5
	c-1.7-0.1-3.6-0.1-5.6-0.1c0,1.8,0,3.4,0.1,4.9C136.2,206.4,138.6,206.4,141,206.3z"/>
<path class="st0" d="M160.2,207.8H158c0-1.5-0.1-3.7-0.4-6.6c-0.2-2.9-0.4-4.6-0.4-5.2h-0.1c-0.8,2.2-1.8,4.6-3,7.3
	c-1.2,2.6-1.8,4.1-1.8,4.6h-1.6c0-0.5-0.6-2-1.7-4.7c-1.1-2.6-1.8-4.4-2.1-5.3c-0.3-0.9-0.5-1.5-0.6-1.9h-0.1c0,0.9-0.2,2.8-0.5,5.7
	c-0.3,2.9-0.4,4.9-0.4,6.2h-2c0-0.1,0.3-1.9,0.8-5.7c0.5-3.7,0.8-6.3,0.8-7.7h3.1c0,0.8,0.6,2.6,1.9,5.7c1.3,3,1.9,4.8,1.9,5.5h0.1
	c0-0.6,0.7-2.5,2.1-5.5c1.4-3,2.1-4.9,2.1-5.6h3c0,1.5,0.2,4,0.5,7.7C160,205.8,160.2,207.7,160.2,207.8z"/>
</svg>
