<svg xmlns="http://www.w3.org/2000/svg" viewBox="0 0 170 224.1"><path fill="#CAAC37" d="M21.3 209H19c.1-2.4.1-4.6.1-6.5h-7c0 1.5 0 3.7.1 6.5H10c.1-2.5.2-4.9.2-7.1 0-2.3-.1-4.5-.2-6.4h2.2c-.1 2-.1 3.9-.1 5.8h7.1c0-1.5 0-3.4-.1-5.8h2.2c-.1 1.9-.2 4.1-.2 6.4 0 2.5 0 4.9.2 7.1zM33.6 203.2c-1.8-4.1-2.8-6.2-2.8-6.5h-.1c0 .2-1 2.4-2.8 6.5h5.7zm4.5 5.8h-2.5c0-.5-.5-1.9-1.5-4.4h-6.8c-1 2.4-1.5 3.9-1.5 4.4h-2.4c0-.3 1-2.5 3-6.7s3-6.5 3-6.9h2.7c0 .4 1 2.7 2.9 6.8 2.2 4.1 3.1 6.4 3.1 6.8zM49.1 207.5c-.1-1.3-.1-3.1-.1-5.4v-5.4h-3c-2.4 4.9-3.9 8.5-4.7 10.8h7.8zm4.3 0c0 .4-.1 1.3-.3 2.6-.2 1.4-.3 2.4-.3 3.1h-1.4v-4.4c-1.3-.1-3.1-.1-5.6-.1-2.1 0-3.9 0-5.3.1-.4 2-.6 3.5-.6 4.4h-1.3v-3.1-2.7h1.1c1.3-3.6 3.2-7.7 5.5-12.1h6c-.1 2.2-.1 4.3-.1 6.4 0 2 .1 4 .2 5.8h2.1zM72.2 207.6c-.1-1.3-.1-3.1-.1-5.4v-5.4h-2.9c-2.4 4.9-3.9 8.5-4.7 10.8h7.7zm4.2 0c0 .4-.1 1.3-.3 2.6-.2 1.4-.3 2.4-.3 3.1h-1.4v-4.4c-1.3-.1-3.1-.1-5.6-.1-2.1 0-3.9 0-5.3.1-.4 2-.6 3.5-.6 4.4h-1.3v-3.1-2.7h1.1c1.3-3.6 3.2-7.7 5.5-12.1h6c-.1 2.2-.1 4.3-.1 6.4 0 2 .1 4 .2 5.8h2.1zM90.2 202.2c0-1.8-.5-3.2-1.6-4.2s-2.3-1.5-3.7-1.5c-1.3 0-2.4.5-3.4 1.6-1 1-1.5 2.4-1.5 4.1 0 1.8.5 3.2 1.6 4.2s2.3 1.5 3.7 1.5c1.3 0 2.4-.5 3.4-1.6 1-1 1.5-2.4 1.5-4.1zm2.1-.2c0 2.2-.7 4-2.2 5.4-1.5 1.3-3.2 2-5.1 2-1.9 0-3.5-.6-4.9-1.8-1.4-1.2-2.1-2.9-2.1-5 0-2.3.7-4.1 2.2-5.4 1.5-1.3 3.2-2 5.1-2 1.9 0 3.5.6 4.9 1.9 1.4 1.1 2.1 2.8 2.1 4.9zM112.9 209h-2.4c-.1-.1-.2-.4-.3-.9-.6-2.2-1.3-3.7-2-4.3-.7-.7-1.8-1-3.4-1h-.3c0 2.2 0 4.3.1 6.2h-2.1c.1-1.9.1-3.9.1-6.2h-.4c-1.5 0-2.7.3-3.4 1-.7.7-1.4 2.1-2 4.3l-.3.9h-2.3c.1-.3.3-.7.5-1.2.9-2.2 1.6-3.7 2.1-4.3.5-.7 1.3-1.1 2.3-1.4v-.1c-.9-.4-1.7-.9-2.2-1.7-.6-.7-1.1-1.9-1.6-3.6-.1-.3-.3-.7-.4-1.1H97c.1.1.2.4.3.8.4 1.9 1 3.3 1.9 4.1.8.8 1.9 1.1 3.3 1.1h.2c0-1.9 0-3.9-.1-6h2.1c-.1 2.1-.1 4.1-.1 6h.3c1.3 0 2.4-.4 3.3-1.2.9-.8 1.5-2.1 1.9-4 .1-.3.2-.6.3-.8h2c-.1.2-.2.6-.4 1.1-.5 1.6-1.1 2.8-1.6 3.5-.6.8-1.3 1.4-2.2 1.7v.1c1 .3 1.8.8 2.3 1.4.5.6 1.2 2.1 2.1 4.3-.1.3.1.7.3 1.3zM124.4 207.6c-.1-1.3-.1-3.1-.1-5.4v-5.4h-2.9c-2.4 4.9-3.9 8.5-4.7 10.8h7.7zm4.3 0c0 .4-.1 1.3-.3 2.6-.2 1.4-.3 2.4-.3 3.1h-1.4v-4.4c-1.3-.1-3.1-.1-5.6-.1-2.1 0-3.9 0-5.3.1-.4 2-.6 3.5-.6 4.4h-1.3v-3.1-2.7h1.1c1.3-3.6 3.2-7.7 5.5-12.1h6c-.1 2.2-.1 4.3-.1 6.4 0 2 .1 4 .2 5.8h2.1zM139.2 192.7c0 .3-.1.6-.4.9-.2.2-.6.3-1 .3s-.6-.1-.8-.3c-.2-.2-.3-.5-.3-.8 0-.3.1-.6.3-.8.2-.2.6-.3 1-.3s.6.1.8.3c.3.2.4.5.4.7zm-4.4 0c0 .3-.1.6-.4.9-.2.2-.6.3-1 .3s-.6-.1-.8-.3c-.2-.2-.3-.5-.3-.8 0-.3.1-.6.3-.8.2-.2.6-.3 1-.3.3 0 .6.1.8.3.3.2.4.5.4.7zm6 14.7l-.1 1.6h-9.5c.1-2.2.2-4.5.2-7.1 0-2.4-.1-4.6-.2-6.4h8.9l-.1 1.5c-2.2-.1-4.4-.1-6.9-.1 0 1.1.1 2.5.1 4.4 2.1 0 3.9 0 5.6-.1v1.6c-1.7-.1-3.6-.1-5.6-.1 0 1.8 0 3.5.1 5 2.6-.1 5.1-.2 7.5-.3zM160 209h-2.2c0-1.5-.1-3.8-.4-6.7-.2-2.9-.4-4.7-.4-5.3h-.1c-.8 2.3-1.8 4.7-3 7.3-1.2 2.6-1.8 4.2-1.8 4.6h-1.6c0-.5-.6-2.1-1.7-4.7-1.1-2.7-1.8-4.4-2.1-5.3-.3-.9-.5-1.5-.6-1.9h-.1c0 .9-.2 2.9-.5 5.8s-.4 5-.4 6.2h-2c0-.1.3-2 .8-5.7.5-3.8.8-6.4.8-7.8h3.1c0 .8.6 2.7 1.9 5.7 1.3 3.1 1.9 4.9 1.9 5.5h.1c0-.6.7-2.5 2.1-5.6 1.4-3.1 2.1-5 2.1-5.7h3c0 1.5.2 4.1.5 7.8.4 3.7.6 5.7.6 5.8zM84.9 122.9c-.6 3.2-2.8 3-6.1 9.6-1.2 4.2-8.7 9.1-8.5 2.9-.4-4-3.2-9.7-3.2-9.7 4.5 0 14.8-2.2 17.8-2.8zM42.5 76c5 2.3-4.2 12.6-2.7 4.9.5-1.8 1.1-3.8 2.7-4.9zm20.2 77.1c-1.4 1.2-1.1 1.1 0 0zM49.1 59.6c-7.9-.1-8.6 7.7-8.9 13.2-4.8 3.8-10.8 12.2-10.8 19.3-.6 5 5.6 13.3 7.8 5 .8-2.3 3.5-7.6 2.9-2.2.5 13.4-4 24.4-2.7 37.8 2.6 7.8 5.8 3.2 4.5 3.1-1.1 0-.6 1-1.7.1-.7-.6-1.2-3.4-1-3.7 1.1-1.5 1.8 1.9 2.3 1.9 1-.1-.4-4.6-1.3-6.3-.9-5.6.2-9.2 1.9-14.5 1.1-5.4 3.4-11.1 3.2-16.6 4.2 3.4 10.3 8.5 5.6 14.6-2.9 4.8-2.8 12.1 2.3 15.4 4.3 5.7 8.2 11.7 13.1 16.9 2.7 3.1-4 10.3-3.1 9.2 1.4-1.8 6.5-4 3.7.2-4.1 1.5-4.5 11 .9 7.6 12.7-9.4 1.3-8.6 8.9-19 5.1-6.3 12.8-10.9 15.6-18.9.4-6.8-8.9-7.6-13.9-8.5-3.9-.4-7.8-.1-11.9.5-6.3 2.1-3.8-4.3-4.7-8.9-.8-4-4-9.7-2.1-10.9 5.7 2.1 8.6 1 8.6 1 1.8-.9 8.3-7 11.2-10.5 2-.8 3.9-2.8 3.1-2.4-4.6 2 .4-4-.9-4.5-2.4 6.3-11.6 10.1-15.1 13.7-1.2.9-8.1-5.9-13.8-6.7-5.3-1.1-3.8-7.7-.9-5.9.5.4.9.1 1.4-.8 0-.1.3-.3.3-.4.1-.2-.1-.2 0-.4s.3-.2.3-.4c.1-.2 0-.6.1-.8.3 0 .6-.1.9-.2.1-1 .3-2 .5-2.9.1-.3.3-.6.4-.9.2-.5.2-2 .4-2.4.6-1.4 1.3-.9 2.1-.3-1.3 1.9.9 2.7 0 7.6.6-.9.7-1.7 1-2.1 4.9-5.2 1.7-11.2-2.6-11.1.4-2-5.1-5.5-7.6-4.9zm27.5-.1c0 .1.1 0 0 0zM146.6 142.4l.9-2.6.9.1-.1 2zM109.4 141.9l.3-2.7h1.2v2.6l-.8-.4zM23 142.3l-.9-2.6-.9.1.1 2z"/><path fill="#CAAC37" d="M60.2 141.9l-.3-2.7h-1.2v2.6l.8-.4zM85.7 189.4l1.1-3.7-2 .3-2-.3 1.1 3.7zM83.5 28h2.6v117.1h-2.6zM86.4 26.6l1 .3V19c.1-10.6-16.6-10.9-18.7-1.5-.6 2.4.5 3.3 2.3 3.4 1.1.1 2.3-.3 2.4-2.1.4-4.7 9.3-5.3 9.1.2v7.9l1-.3h2.9z"/><path fill="#CAAC37" d="M19.5 142c14.7 4.8 25.7 5.2 40 .3 4.8 3.8 20.3 4.6 25.3 4.5 5 .1 20.5-.7 25.3-4.5 14.2 4.9 25.2 4.6 40-.3-6.8 21.3-26.6 39.5-65.3 43.2-38.6-3.7-58.5-21.9-65.3-43.2zM84.9 32.1c27.9 0 50.4 22.6 50.4 50.5s-22.6 50.5-50.4 50.5c-27.9 0-50.4-22.6-50.4-50.5-.1-27.9 22.5-50.5 50.4-50.5zm0-1.2c-28.5 0-51.6 23.1-51.6 51.7 0 28.5 23.1 51.7 51.6 51.7s51.6-23.1 51.6-51.7c0-28.5-23.1-51.7-51.6-51.7z"/><path fill="none" stroke="#FFF" stroke-width=".3585" d="M110.9 146.4h-1.5c-.7 14.3-7.3 26.4-24.6 34.3-17.4-7.9-23.9-20-24.6-34.3h-1.5c1 18.4 10.7 29.6 26.1 35.7 15.4-6.1 25.1-17.2 26.1-35.7z"/></svg>