<?xml version="1.0" standalone="no"?>
<!DOCTYPE svg PUBLIC "-//W3C//DTD SVG 1.1//EN" "http://www.w3.org/Graphics/SVG/1.1/DTD/svg11.dtd" >
<svg xmlns="http://www.w3.org/2000/svg" xmlns:xlink="http://www.w3.org/1999/xlink" version="1.1">
<metadata></metadata>
<defs>
<font id="rondo_twinthin" horiz-adv-x="1038" >
<font-face units-per-em="2048" ascent="1638" descent="-410" />
<missing-glyph horiz-adv-x="614" />
<glyph horiz-adv-x="0" />
<glyph unicode="&#xd;" horiz-adv-x="681" />
<glyph unicode=" "  horiz-adv-x="614" />
<glyph unicode="&#x09;" horiz-adv-x="614" />
<glyph unicode="&#xa0;" horiz-adv-x="614" />
<glyph unicode="!" horiz-adv-x="446" d="M205 82l10 12l84 -82l-12 -12zM219 205v928l17 18v-930zM260 137l43 43l82 -82l-43 -43zM297 289v930l61 61v-930z" />
<glyph unicode="&#x22;" horiz-adv-x="612" d="M102 1372l15 17q14 -12 24 -29q10 -14 17.5 -34.5t7.5 -47.5q0 -23 -7 -45.5t-16 -42.5q-8 -23 -20 -47l-10 8q6 23 14 45q6 18 11 39.5t5 38.5q0 25 -6 43t-14 31q-8 14 -21 24zM168 1456l41 49q16 -18 31 -41q12 -20 21 -46.5t9 -59.5q-2 -33 -12 -63.5t-22 -53.5 q-14 -29 -31 -53l-12 10q8 23 16 47q6 23 10 47.5t0 50.5q-10 49 -29 82q-10 18 -22 31zM381 1374l14 17q14 -12 25 -29q10 -14 17 -34.5t7 -47.5q0 -23 -7 -45.5t-15 -42.5q-8 -23 -21 -47l-10 8q6 23 15 45q6 18 11 40t5 38q0 25 -6 43t-15 31q-8 14 -20 24zM446 1458 l41 49q16 -18 31 -41q12 -20 21.5 -46.5t9.5 -59.5q-2 -33 -12.5 -63.5t-22.5 -53.5q-14 -29 -31 -53l-12 10q8 23 16 47q6 23 10.5 47.5t0.5 51.5q-10 49 -29 81q-10 18 -23 31z" />
<glyph unicode="#" horiz-adv-x="1241" d="M61 258v16h218v-16h-218zM61 668v16h218v-16h-218zM121 336l43 61h176v348h-219l43 62h176v156l16 14v-961l-16 -16v336h-219zM418 43v981l61 41v-381h219v-16h-219v-394h219v-16h-219v-168zM541 336l39 61h180v348h-219l39 62h180v156l16 14v-961l-16 -16v336h-219z M838 43v981l61 41v-381h176l2 -16h-178v-394h176l2 -16h-178v-168zM961 336l38 61h181l-41 -61h-178zM961 745l38 62h181l-41 -62h-178z" />
<glyph unicode="$" horiz-adv-x="655" d="M0 229h16q0 -29 8.5 -65.5t30 -69.5t58.5 -55.5t96 -22.5q41 0 74.5 11.5t58.5 27.5q27 16 49 39q-37 -12 -76 -14q-35 -4 -74.5 3t-78.5 32q-47 29 -63.5 76t-18.5 94l37 10q4 -41 28.5 -79t77.5 -66q66 -35 116 -25t85 37q39 31 70 82q6 31 6 63q0 27 -6.5 57.5 t-24.5 57.5q-37 53 -87 73.5t-89 24.5q-20 2 -37.5 7t-30.5 10q-16 6 -28 10q-39 16 -68 47q-25 27 -45.5 73t-20.5 117q0 51 19.5 95.5t51.5 78t73 58t82 37.5l20 176h17l-19 -172q27 8 62 8h2l16 164h62l-17 -170q74 -16 114 -64.5t38 -107.5l-35 -33q0 14 -4 33 q-4 16 -12.5 34.5t-26.5 39.5q-47 49 -104.5 55t-110.5 -4q-61 -14 -125 -47q92 27 153.5 21.5t99.5 -30t56.5 -62.5t22.5 -75l-15 -16q-16 106 -96 148t-231 -5q0 2 -4.5 -16.5t-2 -48t13.5 -67.5t46 -75q23 -25 48.5 -37t52 -19t52 -13t48.5 -15q51 -18 88 -49 q33 -27 59.5 -69.5t24.5 -106.5q-2 -59 -22.5 -120.5t-54.5 -116t-80 -98.5t-97 -68l-21 -232h-61l18 209q-10 -2 -22.5 -3t-24.5 -1h-14l-19 -205h-16l18 207q-53 4 -88 25.5t-57.5 53.5t-31.5 69.5t-9 78.5zM84.5 824q-10.5 -54 2.5 -112.5t60.5 -108.5t145.5 -66 q96 -16 143 -56.5t66 -83.5q22 -51 18 -108q14 82 4 149q-10 59 -49 112.5t-133 74.5q-106 23 -155.5 69.5t-65.5 93.5q-20 55 -10 119q-16 -29 -26.5 -83z" />
<glyph unicode="%" horiz-adv-x="1067" d="M0 88l10 12l88 -69l39 49l-88 70l37 49l88 -70l719 936l113 -88l-37 -49l-90 69l-37 -49l90 -67l-10 -15l-91 68l-632 -823l-84 -111zM83 691.5q5 58.5 19.5 108.5t22.5 62q27 47 56.5 87t62 64.5t67.5 29.5t72 -13q31 -16 46 -50t18.5 -77t-8 -91t-36.5 -93 q-23 -41 -53.5 -81t-63 -70.5t-66.5 -47t-64 -6.5q-49 16 -63.5 67.5t-9.5 110zM98 672q0 -23 2 -45.5t9.5 -42t20 -33t32.5 -19.5q33 -10 68.5 12.5t64.5 53.5q35 37 67 86q-33 -35 -63 -57q-29 -20 -58.5 -31.5t-58.5 4.5t-43 48t-20 63q-8 37 -6 77q-14 -63 -15 -116z M145 774q2 -37 13.5 -70.5t44.5 -50.5q29 -14 60.5 -4t58.5 27q30 20 59 51q2 45 -4 82q-4 33 -16.5 63.5t-36.5 45.5q-29 14 -58.5 9t-56.5 -20q-31 -16 -59 -41q-6 -51 -5 -92zM176 909q25 16 51 25q23 8 49.5 10t53.5 -12q27 -16 41 -45t20 -58q8 -34 8 -71q12 53 15 100 q2 41 -10.5 80t-49.5 57q-33 14 -63.5 3t-57.5 -31q-31 -23 -57 -58zM558 201.5q5 58.5 19.5 108.5t22.5 63q27 47 56.5 87t62.5 64.5t67.5 29.5t71.5 -13q31 -16 46.5 -50t18.5 -77t-8.5 -91.5t-35.5 -93.5q-23 -41 -53.5 -80.5t-63.5 -70.5t-66.5 -47.5t-64.5 -5.5 q-49 16 -63.5 67t-9.5 109.5zM573 182q0 -23 2.5 -45t9.5 -41.5t19.5 -33t32.5 -19.5q33 -10 68.5 12.5t64.5 53.5q35 37 68 86q-33 -35 -64 -58q-29 -20 -58.5 -31.5t-58.5 5.5q-29 16 -43 47.5t-20 62.5q-8 37 -6 78q-14 -63 -15 -117zM621 285q2 -37 13 -71t44 -50 q29 -14 60.5 -4t58.5 26q30 21 59 52q2 45 -4 81q-4 33 -16.5 64t-36.5 45q-29 14 -58.5 9t-56.5 -19q-31 -16 -59 -41q-6 -51 -4 -92zM651 420q25 16 51 24q23 8 49.5 10.5t53.5 -12.5q27 -16 41 -44.5t20 -57.5q8 -35 8 -72q12 53 15 101q2 41 -10.5 79.5t-49.5 57.5 q-33 14 -63.5 3t-56.5 -32q-31 -23 -58 -57z" />
<glyph unicode="&#x26;" horiz-adv-x="931" d="M65.5 129q-8.5 49 6 102.5t44 108.5t67.5 105.5t77 93.5t72 71l-58 168q-23 72 -25.5 123t1.5 84q6 37 20 64l11 -11q-12 -25 -17 -61q-4 -33 0 -81t27 -114l155 -454q33 -78 63 -135.5t73 -97.5t107.5 -59.5t164.5 -19.5v66q-80 0 -133 19.5t-93 57.5t-70 92t-60 124 l-166 489q-18 53 -28.5 127t26.5 154q16 35 43.5 65.5t61.5 49t71 20.5t67 -20q61 -43 71.5 -126t-13 -172.5t-71.5 -169t-99 -118.5l90 -264q12 -33 25.5 -60.5t27.5 -52.5q39 37 76 75t65 70q35 37 64 74l14 -22q-33 -37 -67 -74q-29 -33 -66 -71t-74 -73 q45 -66 103.5 -97.5t150.5 -31.5v-147q-86 0 -144 10t-100 31.5t-70 53.5t-50 75l-31 -31q-37 -41 -84 -74.5t-96 -51t-96 -12.5t-86 42t-47.5 86zM81 166q-3 -60 42 -107q41 -45 91 -43t93 21q51 23 101 63q-39 -8 -76 -8q-33 0 -69 8.5t-66 36.5q-37 33 -45.5 78t-4.5 88 q6 49 25 103q-45 -63 -68 -127q-20 -53 -23 -113zM180 275.5q6 -52.5 43 -91.5q25 -27 56.5 -43t62.5 -20t57.5 2t44.5 22l50 45q-14 29 -27.5 60t-30.5 65l-96 269q-51 -41 -90 -93.5t-57.5 -107.5t-12.5 -107.5zM344 1069q2 -25 7 -58.5t22 -78.5l80 -236q35 31 70.5 76 t51.5 98q2 49 -6 95q-6 39 -19 78.5t-42 66.5q-35 31 -63.5 36t-51.5 -1q-27 -8 -49 -27q-2 -23 0 -49zM360 1151q25 10 52 12q23 2 49 -6t55 -35q31 -33 46.5 -71.5t21.5 -73.5q8 -41 4 -84q18 68 22 129q4 53 -9 105t-58 83q-37 25 -71 18t-58 -24q-29 -20 -54 -53z" />
<glyph unicode="'" horiz-adv-x="284" d="M102 1372l17 23l12 -232l-18 -12zM168 1456l41 49l14 -288l-41 -25z" />
<glyph unicode="(" horiz-adv-x="450" d="M43 424q-2 215 41 376t96 267q61 125 139 213l15 -14q-61 -131 -98 -285q-33 -131 -48.5 -301t19.5 -356q29 -147 63.5 -259t65.5 -186q37 -86 74 -147l-41 -27q-45 63 -84 150q-35 74 -71 182t-60 250q-29 168 -28 303t13 233q14 113 43 201q-35 -63 -61 -152 q-23 -76 -42.5 -188.5t-19.5 -259.5q0 -223 43 -380t97 -255q61 -115 141 -188l-12 -11q-80 72 -142 189q-53 98 -97 257t-46 388z" />
<glyph unicode=")" horiz-adv-x="417" d="M41 1161l14 19q55 -43 99 -133q37 -78 67.5 -212.5t30.5 -349.5q0 -229 -8 -355t-13 -130q4 14 24.5 80.5t38 173t24 244t-14.5 290.5q-20 137 -48 227.5t-56 143.5q-33 63 -68 96l57 25q41 -43 78 -106q31 -53 59.5 -136.5t39.5 -193.5q14 -145 9 -277.5t-21.5 -248 t-43 -215t-57.5 -179.5q-70 -190 -170 -334l-16 13q45 86 81 213q31 109 57.5 273.5t26.5 393.5q0 213 -30.5 345.5t-65.5 205.5q-41 86 -94 127z" />
<glyph unicode="*" horiz-adv-x="464" d="M102.5 1022.5q1.5 13.5 12.5 19.5q8 6 18 5.5t19 -5.5l86 64l-84 63q-18 -14 -39 0q-10 8 -12.5 20.5t6.5 22.5q8 10 20 12.5t23 -5.5q10 -6 12 -16.5t0 -20.5l80 -62v101q-23 7 -23 30q0 12 9.5 21.5t21.5 9.5t21.5 -9t9.5 -22q0 -23 -23 -30v-101l82 62q-2 10 0 20 t12 17q10 8 22.5 6t20.5 -13q8 -10 6 -22t-12 -21q-20 -14 -39 0l-86 -63l88 -64q8 4 18.5 5.5t18.5 -5.5q10 -6 12.5 -19t-6.5 -24q-18 -23 -43 -6q-16 14 -10 35l-84 62v-99q23 -8 23 -28q0 -12 -9.5 -21.5t-21.5 -9.5t-21.5 9t-9.5 22q0 20 23 28v99l-82 -62 q6 -20 -10 -35q-25 -16 -43 6q-8 10 -6.5 23.5z" />
<glyph unicode="+" horiz-adv-x="841" d="M61 258v16h218v-16h-218zM121 336l43 61h176v156l16 14v-551l-16 -16v336h-219zM418 43v571l61 41v-381h176l2 -16h-178v-168zM541 336l39 61h180l-41 -61h-178z" />
<glyph unicode="," horiz-adv-x="344" d="M109 47l14 16q14 -12 24 -28q10 -14 17.5 -34.5t7.5 -47.5q0 -23 -7 -45.5t-15 -42.5q-8 -23 -21 -47l-10 8q6 23 14 45q6 18 11.5 39.5t5.5 38.5q0 25 -6.5 43t-14.5 31q-8 14 -20 24zM174 131l41 49q16 -18 31 -41q12 -20 21 -46.5t9 -59.5q-2 -33 -12 -63.5t-22 -53.5 q-14 -29 -31 -53l-12 10q8 23 16 47q6 23 10 47.5t0 50.5q-10 49 -28 82q-10 18 -23 31z" />
<glyph unicode="-" horiz-adv-x="886" d="M164 258l131 139h489l-59 -61h-467l-55 -62h465l-15 -16h-489z" />
<glyph unicode="." horiz-adv-x="344" d="M102 82l11 12l84 -82l-13 -12zM158 137l43 43l82 -82l-43 -43z" />
<glyph unicode="/" horiz-adv-x="649" d="M0 88l10 12l88 -69l39 49l-88 70l37 49l88 -70l719 936l113 -88l-37 -49l-90 69l-37 -49l90 -67l-10 -15l-91 68l-632 -823l-84 -111z" />
<glyph unicode="0" horiz-adv-x="894" d="M0 327.5q-2 94.5 36 212t134 255.5q37 53 89 117.5t117.5 106.5t145.5 46t172 -59q86 -59 117 -157.5t15.5 -212.5t-72 -228.5t-142.5 -208.5q-152 -164 -280.5 -190.5t-222.5 52.5q-43 37 -75 104.5t-34 162zM17 310q1 -42 12.5 -84t34 -80.5t61.5 -71.5 q61 -53 121.5 -55.5t109.5 14.5q57 20 111 63q-45 -10 -94 -8q-41 2 -91.5 14.5t-95.5 49.5q-63 51 -88.5 122.5t-31.5 139.5q-8 78 4 161q-39 -94 -50 -184q-4 -39 -3 -81zM125 470q6 -85 33.5 -155.5t66.5 -111.5q33 -35 79 -51.5t94 -18.5t91 8.5t68 30.5 q68 57 104.5 143t45 178.5t-13 177.5t-72.5 142q-59 68 -121 89.5t-117 15t-99 -34t-65 -58.5q-59 -86 -79.5 -178t-14.5 -177zM299 915q55 20 113 21q49 0 108.5 -22.5t116.5 -88.5q49 -59 66.5 -134t19.5 -142q2 -80 -12 -162q47 90 65 182q8 39 10 82t-5 88t-26.5 89 t-54.5 85q-70 78 -139 88.5t-129 -8.5q-68 -23 -133 -78z" />
<glyph unicode="1" horiz-adv-x="798" d="M0 557l586 508h61v-930l-61 -61v954l-62 -49v-967l-16 -16v969l-496 -426z" />
<glyph unicode="2" horiz-adv-x="751" d="M6 623q-10 45 0 98t40 109.5t81 105.5q39 39 88 71.5t100.5 48t103.5 6.5t101 -54q39 -37 56.5 -81t19.5 -90t-8 -92.5t-29 -89.5q-41 -100 -121 -204l-202 -265q33 12 69 21q31 6 67 6t70 -12q25 -10 45.5 -22.5t36.5 -22.5q18 -12 35 -25l109 119l18 -12l-221 -238 q-14 10 -33 18q-16 8 -37.5 15.5t-48.5 15.5q-63 16 -112.5 11t-83.5 -19q-41 -16 -72 -41l-12 10l344 455q29 76 39 149q10 63 2.5 132t-48.5 122t-86 68.5t-79 15.5q-43 -2 -82 -18q-29 -45 -41 -90q-10 -39 -9.5 -83t33.5 -83q27 -33 53.5 -42t49.5 -9q25 0 51 10l12 -21 q-31 -20 -65 -28q-29 -6 -64 -1t-70 36q-31 29 -40 66.5t-5 72.5q2 41 17 86q-35 -51 -49 -103q-14 -43 -10 -93t47 -93q35 -37 71.5 -40t65.5 7q35 12 63 39l10 -12q-37 -33 -73 -45q-33 -12 -74 -7t-82 46q-31 31 -41 76zM133 55q29 10 66 17q31 4 72.5 5t90.5 -11 q18 -4 37 -12.5t33 -14.5q16 -8 33 -16l47 55q-10 12 -27 22q-14 10 -33.5 20.5t-48.5 20.5q-47 14 -85.5 13.5t-67.5 -7.5q-35 -8 -60 -22zM207 975q39 2 76 -6q33 -8 67.5 -28.5t63.5 -61.5q39 -51 49 -112.5t6 -115.5q-4 -63 -20 -127q45 68 67 138q20 59 20.5 133.5 t-44.5 146.5q-35 53 -83.5 65.5t-93.5 4.5q-53 -8 -108 -37z" />
<glyph unicode="3" horiz-adv-x="823" d="M0 750l242 315q25 -8 49 -14q23 -6 50.5 -10.5t55.5 -4.5q33 0 71 4t70.5 10.5t53.5 10.5l22 4h35l-262 -342q53 12 107 10q45 -2 96 -17.5t92 -62.5q86 -98 71.5 -227t-149.5 -270q-63 -66 -118.5 -101t-103.5 -47t-88 -7t-73 22q-76 37 -131 129l21 14q27 -43 59 -76 q29 -29 65.5 -51.5t81.5 -22.5q41 0 80 15.5t68 34.5q35 23 65 51q-33 -14 -71 -19q-35 -4 -79 1t-91 32q-31 16 -51.5 35.5t-30.5 36.5q-12 20 -19 41l45 39q8 -18 25 -39q14 -16 34.5 -35t51.5 -33q53 -25 98 -28t78 4q37 8 66 24q18 57 26 115q6 49 -2 105.5t-43 103.5 q-53 66 -106 86t-96 18q-51 -4 -99 -29l-16 15l250 328q-12 -6 -33 -11q-16 -4 -45 -6t-72 -2t-74.5 5t-52.5 14q-25 8 -41 20l-159 -207zM193 952q20 -12 43 -20q20 -8 48.5 -13.5t65.5 -5.5q55 0 89 5.5t53 13.5q23 8 32 18l41 56q-33 -8 -67 -17q-29 -6 -64 -10t-65 -4 q-33 0 -56.5 5t-40.5 13q-20 8 -34 19zM291 608q49 16 100 13q43 -4 94.5 -27t98.5 -84q29 -39 39 -87t10 -93q0 -53 -8 -107q35 66 53 133q16 55 14 119t-41 115q-47 61 -100 82.5t-98 23.5q-53 2 -103 -18z" />
<glyph unicode="4" horiz-adv-x="823" d="M0 270q76 61 137 140q53 66 96 155.5t43 198.5q0 49 -11 86t-25 61q-16 29 -35 50l16 10q18 -20 35 -49q14 -25 25.5 -63t11.5 -91q0 -57 -6 -95t-15 -63q-8 -29 -20 -45q25 41 45 90q16 41 30.5 94.5t14.5 112.5q-2 49 -8 81t-15 50q-8 23 -22 31l53 41q16 -18 29 -45 q10 -23 19.5 -60t11.5 -90q-2 -88 -39 -172t-84 -149q-53 -78 -121 -150h393l-59 -61h-394l-63 -62h395l-18 -16h-408zM573 0v514l17 16v-516zM651 76v516l62 63v-518z" />
<glyph unicode="5" horiz-adv-x="747" d="M0 102l18 13q14 -27 37 -49q20 -18 51 -34t78 -16q39 0 77 15.5t71 36.5q37 23 71 53q-35 -10 -71 -17q-33 -4 -72 -2t-74 19q-23 10 -40 25.5t-27 29.5q-12 16 -21 33l43 31q10 -16 23 -31q10 -12 24.5 -24.5t30.5 -16.5q53 -20 98 -20.5t80 8.5q37 8 70 24 q14 59 12 123q-2 53 -17.5 115.5t-60.5 122.5q-47 59 -101 77.5t-101 14.5q-55 -4 -111 -27l-12 15l340 444h286l-43 -61h-245l-49 -62h243l-12 -16h-244l-123 -162q59 16 119 12q49 -4 104.5 -27.5t96.5 -89.5q39 -63 49 -132.5t-1 -136t-40 -125t-70 -97.5 q-66 -63 -121 -99t-102 -53.5t-85 -17.5t-66 10q-68 23 -113 94zM131 635q49 16 100 14q43 -2 92.5 -22.5t92.5 -75.5q41 -57 60.5 -115.5t23.5 -105.5q6 -55 -2 -111q31 74 43 146q10 61 5 132t-48 130q-47 61 -101.5 80.5t-101.5 19.5q-55 -2 -111 -22z" />
<glyph unicode="6" horiz-adv-x="751" d="M4 423q12 114 59.5 231.5t118.5 219.5q74 100 135.5 143.5t113.5 50.5t95 -11.5t78 -38.5l-37 -47q-16 12 -35 20q-16 8 -34.5 14.5t-36.5 8.5q-55 4 -96 -10.5t-70 -36.5q-33 -25 -57 -58q25 16 51 25q23 8 52.5 12t64.5 -6q23 -8 41 -18.5t30 -20.5q14 -10 25 -22 l-10 -17q-8 12 -23 23q-12 10 -30.5 20t-41.5 19q-37 10 -69.5 4t-59.5 -19q-31 -14 -55 -35q-12 -12 -25 -30q-10 -16 -21 -37t-22 -47q-16 -41 -15 -120t18.5 -163t50 -156.5t82.5 -101.5q57 -35 107 -41t85 2q41 8 76 31q25 55 33 108q6 45 -5.5 94.5t-60.5 88.5 q-39 29 -71.5 33t-55.5 -3q-27 -8 -49 -28l-16 12q29 23 61 31q29 8 64.5 5t76.5 -32q41 -31 57.5 -71.5t20.5 -79.5q4 -45 -4 -93q20 59 29 113q8 47 3 96.5t-34 83.5q-41 47 -83 59.5t-75 10.5q-39 -4 -73 -21l-21 21q41 33 86 43q39 10 89.5 -1.5t107.5 -64.5 q47 -47 54 -106t-8.5 -118.5t-47 -116t-64.5 -97.5q-33 -43 -79 -87t-101 -69.5t-120.5 -21.5t-137.5 57q-78 57 -105.5 154.5t-15.5 211.5zM15 338q1 -51 14.5 -99.5t40 -92t71.5 -76.5q39 -29 76 -41.5t71 -12.5t63.5 9.5t54.5 23.5q57 35 106 98q-39 -14 -80 -20 q-37 -4 -83 1t-93 30q-43 23 -73.5 57.5t-51 74.5t-32 84t-17.5 87q-12 98 0 211q-49 -121 -62 -234q-6 -49 -5 -100z" />
<glyph unicode="7" horiz-adv-x="716" d="M0 926l14 16h453l51 62h-457l50 61h483l12 -16q-57 -76 -106 -140q-20 -27 -41 -53.5t-38.5 -49t-28.5 -38.5t-15 -23q-14 -23 -34.5 -61.5t-40 -86.5t-33 -101.5t-12.5 -104.5t17.5 -98t59.5 -82q47 -39 91 -42t79 9q41 12 78 43q-2 -2 5 10.5t17 26.5l25 37l24 -14 l-53 -82q-37 -49 -88 -98.5t-109.5 -77t-120 -23.5t-116.5 59q-61 59 -66.5 139.5t21 165.5t71 166.5t82.5 147.5q25 43 56.5 87t60.5 79q33 41 68 82h-459zM120 203q3 -37 16 -71.5t42 -61.5q29 -29 58.5 -41.5t60.5 -13.5t59.5 8.5t53.5 23.5q59 33 114 92 q-37 -14 -75 -20q-35 -4 -75 1t-81 34q-57 39 -76.5 99t-23.5 120q-4 68 10 141q-45 -84 -68 -166q-10 -35 -14 -71.5t-1 -73.5z" />
<glyph unicode="8" horiz-adv-x="655" d="M0 229q0 78 30.5 136.5t67.5 99.5q43 47 99 82q-39 16 -68 47q-25 27 -45.5 73t-20.5 117q0 63 30 115.5t75 89.5t98 56.5t103 19.5q117 0 167 -53.5t48 -124.5q-2 -53 -29 -97.5t-59 -72.5q-37 -37 -86 -62q51 -18 88 -49q33 -27 59.5 -69.5t24.5 -106.5 q-2 -74 -33 -150.5t-81 -139t-115.5 -101.5t-135.5 -39q-61 0 -103 20.5t-66.5 52t-36 72.5t-11.5 84zM16 229q0 -29 8.5 -65.5t30 -69.5t58.5 -55.5t96 -22.5q41 0 74.5 11.5t58.5 27.5q27 16 49 39q-37 -12 -76 -14q-35 -4 -74.5 3t-78.5 32q-53 35 -69.5 91t-12.5 109 q4 63 24 134q-25 -27 -45 -62q-16 -29 -29.5 -70t-13.5 -88zM84.5 824q-10.5 -54 2.5 -112.5t60.5 -108.5t145.5 -66q96 -16 143 -56.5t66 -83.5q22 -51 18 -108q14 82 4 149q-10 59 -49 112.5t-133 74.5q-106 23 -155.5 69.5t-65.5 93.5q-20 55 -10 119q-16 -29 -26.5 -83z M117 356q-8 -53 11 -110.5t95 -95.5q66 -35 116 -25t85 37q39 31 70 82q6 31 6 63q0 27 -6.5 57.5t-24.5 57.5q-37 53 -87 71.5t-89 26.5q-16 4 -28.5 5t-20.5 5q-10 2 -17 7l-65 -50q-37 -68 -45 -131zM149.5 881.5q2.5 -29.5 13.5 -67.5t46 -75q23 -25 52.5 -39t53.5 -22 q29 -8 60 -10l82 53q10 35 10 72q0 31 -11.5 66.5t-43.5 64.5q-39 35 -83 42t-83 3q-45 -7 -90 -23q0 2 -4.5 -16.5t-2 -48zM166 965q45 16 92 20q39 4 84 -5t82 -46q35 -35 46 -69t13 -62q2 -33 -6 -64q27 39 41 78q12 35 14.5 73t-26.5 71q-45 51 -102.5 58t-110.5 -5 q-61 -14 -127 -49z" />
<glyph unicode="9" horiz-adv-x="731" d="M16.5 677.5q6.5 61.5 33 127t67.5 117.5q20 27 58 62.5t89 58t113.5 22.5t136.5 -43q57 -35 98 -108.5t50.5 -171t-20.5 -211t-112 -230.5q-61 -88 -126.5 -163t-130 -111.5t-125 -20t-109.5 112.5l18 14q14 -35 37 -59q18 -23 43 -40.5t58 -17.5q35 0 75.5 28t75.5 62 q39 39 80 91q-29 -20 -59 -37q-27 -14 -60 -24.5t-67 -6.5q-39 2 -64.5 19.5t-42.5 37.5q-20 23 -33 54l43 36q8 -23 23 -43q12 -16 32.5 -31.5t53.5 -17.5q55 -4 101 14.5t81 41.5q39 27 72 61q31 74 41 156q10 70 -1 156.5t-65 177.5q-47 80 -105.5 107.5t-111.5 31.5 q-61 2 -123 -21q-27 -51 -32 -104q-4 -45 12 -94t78 -86q29 -18 63.5 -18.5t65.5 7.5q37 8 73 25l43 66l17 -15q-43 -82 -99 -135q-25 -23 -53 -42t-62 -30.5t-72 -9.5t-79 21q-49 23 -67.5 72.5t-12 111zM37 688q-8 -51 4 -100t65 -78t100.5 -20.5t84.5 30.5q43 25 80 68 q-31 -14 -66 -23q-29 -6 -65.5 -4.5t-75.5 21.5q-45 23 -64.5 61.5t-25.5 77.5q-8 43 0 92q-29 -68 -37 -125zM156 932q59 18 118 12q51 -4 108.5 -32.5t106.5 -102.5q41 -63 57.5 -131t20.5 -127q6 -68 -2 -135q37 82 49 164q10 72 1 156.5t-62 166.5q-31 45 -63.5 69.5 t-66.5 36t-66.5 9.5t-63.5 -10q-70 -20 -137 -76z" />
<glyph unicode=":" horiz-adv-x="344" d="M102 82l11 12l84 -82l-13 -12zM102 557l11 12l84 -82l-13 -12zM158 137l43 43l82 -82l-43 -43zM158 612l43 43l82 -82l-43 -43z" />
<glyph unicode=";" horiz-adv-x="344" d="M102 557l11 12l84 -82l-13 -12zM109 47l14 16q14 -12 24 -28q10 -14 17.5 -34.5t7.5 -47.5q0 -23 -7 -45.5t-15 -42.5q-8 -23 -21 -47l-10 8q6 23 14 45q6 18 11.5 39.5t5.5 38.5q0 25 -6.5 43t-14.5 31q-8 14 -20 24zM158 612l43 43l82 -82l-43 -43zM174 131l41 49 q16 -18 31 -41q12 -20 21 -46.5t9 -59.5q-2 -33 -12 -63.5t-22 -53.5q-14 -29 -31 -53l-12 10q8 23 16 47q6 23 10 47.5t0 50.5q-10 49 -28 82q-10 18 -23 31z" />
<glyph unicode="=" horiz-adv-x="1085" d="M164 121l131 139h688l-59 -61h-666l-55 -62h663l-14 -16h-688zM164 397l131 140h688l-59 -62h-666l-55 -61h663l-14 -17h-688z" />
<glyph unicode="?" horiz-adv-x="790" d="M44 808q-5 60 14.5 121.5t56.5 118t67 91.5q43 45 104.5 83t129 52t132 -3.5t111.5 -80.5q53 -72 63.5 -146.5t-8 -147.5t-59.5 -139.5t-92 -123.5q-31 -35 -56.5 -62.5t-41.5 -46.5q-23 -23 -37 -39q-20 -29 -37 -57q-14 -27 -24.5 -57.5t-8.5 -63.5q0 -25 5.5 -39 t9.5 -24q6 -10 12 -17l-41 -34q2 -2 -13.5 21.5t-17.5 68.5q-2 23 4.5 47t14.5 47q8 25 18 49q-27 -31 -47 -59q-18 -25 -32.5 -52.5t-16.5 -50.5q-4 -29 2 -51.5t14 -38.5q8 -18 21 -31l-12 -10q-14 10 -23 29q-8 16 -15.5 40.5t-2.5 61.5q2 35 28.5 78t57.5 80 q37 43 82 88l126 135q33 70 46 141q10 61 2.5 134t-56.5 139q-49 63 -108.5 77.5t-110.5 6.5q-59 -10 -119 -47q-16 -39 -20 -78q-4 -35 5 -75t44 -75q35 -37 68.5 -43t60.5 4q31 8 59 35l19 -16q-35 -37 -72 -55q-33 -16 -76 -13.5t-90 47.5q-37 35 -49 72t-12 72 q0 37 10 78q-39 -63 -57 -123q-16 -51 -13 -106.5t50 -96.5q41 -35 86 -33t80 19q41 20 81 55l13 -12q-41 -39 -86 -62q-39 -18 -87 -20t-100 39q-51 39 -56 99zM221 1141q57 20 115 22q47 2 102.5 -16.5t100.5 -77.5q39 -53 52 -112.5t15 -110.5q2 -59 -10 -119 q41 68 61 139q16 61 13.5 135t-54.5 144q-29 37 -60.5 57.5t-64 27.5t-65.5 3t-64 -14q-70 -23 -141 -78zM311 82l11 12l84 -82l-13 -12zM367 137l43 43l82 -82l-43 -43z" />
<glyph unicode="@" horiz-adv-x="1380" d="M88 31q10 109 46 218t75 202q45 106 98 204q27 49 71 118t102.5 139.5t129 133t152.5 101.5t172 43t188 -43q72 -35 115 -93.5t62.5 -132t18.5 -157.5t-15.5 -170t-40 -171t-56.5 -159q-8 -23 -31.5 -66.5t-57.5 -87.5t-73.5 -77t-80.5 -33q-55 0 -73 28.5t-18 69.5v101 q-16 -20 -32 -43q-16 -18 -34 -38t-38 -34q-55 -43 -113 -66q-49 -18 -107.5 -19t-113.5 44q-53 49 -65.5 102.5t-8.5 100.5q6 53 31 104q47 84 109 152q53 57 127.5 105t173.5 48q49 0 81.5 -17t55.5 -38q23 -25 39 -55l-43 -41q-12 29 -33 51q-16 20 -44 36.5t-69 16.5 t-78.5 -10t-66.5 -23q-35 -14 -65 -30q10 4 28 8q14 4 37 6t51 2q43 0 72 -11t47 -26q23 -16 35 -37l-21 -18q-10 20 -28 37q-16 14 -40 26.5t-59 12.5q-72 0 -111.5 -17.5t-53.5 -33.5q-16 -18 -29.5 -53t-21 -75t-4.5 -81t24 -72q41 -61 90 -79.5t94 -16.5q53 2 107 26 q23 23 41 45.5t36 44.5v136l17 14v-285q0 -10 2 -23.5t9 -26.5t22.5 -22.5t40.5 -9.5q18 0 33.5 5.5t25.5 13.5q12 8 20 20q-10 -4 -18 -4q-20 -4 -37 10q-37 25 -37 95v268l62 47v-293q2 -23 6 -51.5t33 -30.5q16 -2 32.5 15.5t28.5 38.5q14 23 25 53q31 78 49 181 t14 207.5t-34.5 199t-98.5 151.5q-66 57 -138.5 69.5t-144 -6t-140.5 -60.5t-127 -92t-102 -103.5t-69 -94.5q-80 -135 -116.5 -277t-31.5 -268t49 -228.5t124 -157.5q68 -37 138.5 -43.5t139 12t133 55.5t117.5 84h27q-35 -66 -85 -125t-108.5 -105t-121 -76t-122.5 -36 q-82 -8 -159.5 22.5t-136 99.5t-89 174t-16.5 245zM104 -6q-4 -61 3.5 -126t33 -125t72.5 -114.5t121 -95.5q45 -25 90 -30t88 4.5t84 30t78 44.5q84 57 162 150q-66 -49 -140 -78q-63 -25 -145 -34t-172 30q-61 25 -102 66.5t-68 92t-39 105.5t-16 109q-8 127 20 270 q-61 -156 -70 -299zM384.5 165.5q9.5 -59.5 70.5 -112.5q43 -39 94 -36t94 20q51 20 102 57q-39 -14 -77 -18q-35 -4 -78 3t-86 36q-41 27 -55.5 74t-16.5 94q-2 53 10 112q-41 -59 -55 -119q-12 -51 -2.5 -110.5zM434 795q102 109 213 172q47 27 100.5 45t108.5 21 t113.5 -15.5t113.5 -63.5q37 -31 60.5 -71.5t39 -89t23.5 -98.5t11 -99q5 -113 -13 -240q47 166 56 312q2 61 -3.5 124.5t-26 121t-57 104.5t-94.5 76q-80 39 -156.5 35.5t-144 -32t-126 -73.5t-103.5 -92t-75 -85t-40 -52z" />
<glyph unicode="A" horiz-adv-x="1275" d="M2 472q8 83 29 142q23 68 61 123l12 -8q-37 -63 -59 -135q-19 -61 -27 -143q-2 -19 -2 -38q0 -65 23 -134q23 -74 69 -124.5t99 -81t104 -44t82 -13.5q53 0 95 12.5t73 28.5q37 18 64 43q-55 -11 -109 -11q-36 0 -72 5q-76 10 -159.5 56.5t-147.5 156.5q-53 91 -57 183 q-1 16 -1 31q1 73 17 137q20 76 51 132t54 74q-20 42 -20 97q0 10 1 20q4 57 33 137t115 180q96 115 181 161t167 46q57 0 103 -10t82 -27.5t62.5 -40t45.5 -45.5q45 -53 63 -120l-63 -29q-18 68 -56 121q-33 45 -90 83t-149 38q-53 0 -96 -15.5t-76 -34.5q-37 -23 -68 -49 q39 20 88 29q22 3 49 3q23 0 47 -2q54 -5 117 -38q61 -35 97 -76t53 -78q20 -43 24 -86h-16q-8 43 -29 84q-16 35 -50 74t-87 68q-39 20 -85 30q-26 5 -52 5q-21 1 -43 -3q-49 -8 -99.5 -33.5t-97.5 -72.5q-27 -27 -36 -78q-6 -33 -6 -67q0 -19 2 -39q5 -54 20.5 -102 t40.5 -66q41 -35 75.5 -37t61.5 8q31 12 55 39l13 -16q-39 -39 -82 -56q-27 -10 -60 -10q-12 0 -24 1q-47 5 -97 54q-29 29 -37 74t-8 90q0 53 9 109q-37 -63 -60 -125q-18 -53 -21 -109q0 -4 -1 -8q0 -50 32 -86q55 -60 109 -66q12 -1 23 -2q39 0 71 15q49 23 92 67l13 -10 q-20 -25 -48 -45q-23 -16 -55.5 -30.5t-71.5 -14.5q-35 0 -61.5 10.5t-44.5 22.5q-23 14 -37 35q-51 -66 -74 -150q-11 -44 -11 -98q0 -35 4 -74q12 -100 89 -223q33 -53 72 -86t78 -51.5t78 -24.5q29 -4 57 -5q9 0 18 1q82 4 168 43q33 20 68 64.5t63 91.5q35 53 66 114 v463l16 17v-652q0 -80 10.5 -131t27 -78.5t38 -37t43.5 -5.5q53 8 121 72q-51 0 -90 25q-35 23 -61.5 70.5t-26.5 146.5v622l61 45v-567q0 -78 7.5 -132t19.5 -88t28.5 -50.5t32.5 -22.5q10 -4 21 -4q30 0 67 27l86 90l19 -21l-101 -106q-20 -25 -52 -52.5t-67.5 -46 t-70.5 -23.5q-7 -1 -13 -1q-27 0 -51 16q-28 20 -46.5 71.5t-18.5 143.5v150q-55 -109 -129 -191q-31 -37 -71 -70.5t-87 -60t-101 -43t-116 -16.5q-78 0 -141.5 27.5t-111.5 70.5t-78.5 94.5t-41.5 96.5q-19 75 -19 140q1 22 3 43z" />
<glyph unicode="B" horiz-adv-x="1255" d="M3 584q7 116 40 230t84 217.5t113 180.5q115 147 241.5 220t292.5 73q82 0 143.5 -25.5t102.5 -68.5q42 -43 60 -99q14 -43 14 -88q0 -15 -2 -30q-6 -70 -33 -128t-55 -103q-35 -53 -78 -95q25 3 49 3q52 0 98 -15q29 -10 56.5 -28.5t51 -48t40 -73t22.5 -104.5 q2 -22 2 -44q1 -87 -31 -172q-40 -107 -103.5 -193.5t-137.5 -139.5t-131 -53q-66 0 -98.5 14.5t-49.5 30.5q-18 20 -18 45l14 4q2 -23 19 -39q14 -16 44.5 -27.5t88.5 -11.5q31 0 62.5 18.5t58.5 41.5q31 27 59 61q-27 -12 -55 -20q-25 -6 -55.5 -9.5t-61.5 7.5 q-33 10 -51.5 21t-28.5 22q-10 12 -14 24l26 45q10 -18 29 -34q16 -14 38.5 -27.5t57.5 -17.5q23 -2 49.5 1t52 13t48 27.5t37.5 41.5q16 27 30.5 74t19.5 101q2 18 2 37q0 36 -6 73q-10 57 -38 107q-54 87 -112 111q-47 19 -85 19q-10 0 -20 -1q-57 -8 -111 -45l-12 14 q59 39 119 47q13 2 27 2q38 0 84 -16q60 -22 114 -105q33 -51 43 -104t12 -101q0 -53 -8 -104q20 47 33 100q10 48 12 106v9q0 54 -20 115q-29 82 -79 115.5t-100 43.5q-24 4 -49 4q-35 0 -73 -8l-23 -26l-16 14l112 135q20 35 29 80q3 18 3 39q0 24 -4 51q-7 51 -42 115 q-35 61 -82 92t-94 43t-90 12t-70 -2q-25 -2 -69 -12t-93 -30.5t-95 -51.5t-73 -72q-88 -131 -112 -304q-10 -74 -11 -151q0 -103 19 -212q14 -88 38.5 -151.5t54.5 -108.5t62.5 -73t65.5 -42q55 -27 117 -27q23 0 47 5q2 0 6 20q4 16 6 54t2 114v794q0 72 19 101 q8 14 20 20l8 -12q-10 -8 -18 -25q-6 -14 -11 -38.5t-1 -63.5v-780q0 -47 -1 -78t-3 -49q-2 -23 -3 -33q18 14 33 53q12 35 23.5 100.5t11.5 178.5v661q0 35 9.5 61.5t21.5 45.5q12 20 31 35l16 -15q-4 -12 -8 -35q-4 -18 -6 -49.5t-2 -77.5v-641q0 -35 -4.5 -81t-17.5 -95 t-41 -98t-75 -90t-79.5 -65.5t-57 -38t-43 -17.5t-37.5 -4q-35 0 -80 16.5t-90 57.5t-87 111.5t-70 181.5q-21 81 -21 171q0 22 1 46zM24 610q-4 -34 -3 -69q0 -83 20 -170q23 -98 62.5 -166t84.5 -110t88 -60.5t74 -18.5t62.5 15.5t56.5 34.5q29 23 57 51q-18 -10 -43 -15 q-23 -4 -55.5 -0.5t-79.5 23.5q-78 33 -132 101.5t-79 162.5q-35 123 -39 237q-1 32 -1 62q0 76 7 139q10 102 37 191q-47 -94 -78 -201q-27 -91 -39 -207zM389 1339q84 35 168 50q49 8 104 8q25 1 51 -1q82 -6 152 -55q59 -43 88 -94t39 -98q9 -40 9 -80q0 -13 -1 -27 q31 66 39 132q2 16 2 34q0 40 -10 82q-14 62 -78 109q-47 33 -96 48t-97 17h-19q-38 0 -76 -6q-46 -8 -86 -22q-98 -33 -189 -97z" />
<glyph unicode="C" horiz-adv-x="823" d="M2 601q-1 25 -1 50q0 62 7 119q10 80 31.5 149.5t48.5 127.5q61 133 156 239q82 106 180 164q41 25 89 41t100.5 16t107.5 -20.5t113 -69.5q37 -33 56 -73q18 -41 24 -84q3 -20 3 -40q1 -24 -3 -48q-6 -46 -19 -89q-29 -98 -90 -204q-59 -72 -123 -121q-27 -20 -57.5 -38 t-63.5 -27q-30 -8 -60 -8h-7q-34 1 -64 20q-41 20 -60.5 49.5t-23.5 63.5q-1 12 -1 25q0 22 4 44q7 35 20 69q31 80 98 166l16 -12q-25 -53 -28 -104q-1 -9 -1 -18q0 -34 12 -70q15 -44 73 -68q45 -21 83 -21q7 1 14 1q44 4 79 18q39 16 71 47q20 80 23 156v14 q-1 59 -15 119q-16 67 -69 112q-88 74 -171 78q-12 1 -23 1q-69 0 -125 -21q-78 -29 -146 -88q-59 -102 -90 -228q-29 -109 -32 -253v-15q0 -138 52 -301q29 -90 69 -150.5t86 -98.5t95 -55.5t97 -23.5q24 -3 49 -2q88 0 182 33l76 78l18 -21l-80 -84q-37 -41 -80 -73 q-37 -29 -88 -50.5t-110 -21.5q-66 0 -136.5 19.5t-135 67.5t-118 127t-83.5 200q-25 98 -29 187zM20 608q4 -80 25 -166t64 -178q33 -70 84 -117t107 -76.5t110.5 -42t93.5 -12.5q47 0 87 15.5t68 34.5q35 23 62 51q-79 -39 -162 -39h-16q-39 2 -83 13t-91 39t-94.5 75 t-92.5 119q-41 63 -62.5 132.5t-29.5 139.5q-6 56 -6 111v27q2 68 12 130q23 143 78 287q-82 -119 -121 -260q-17 -59 -27 -131q-7 -50 -7 -105q0 -23 1 -47zM340 1348q61 33 129 41q21 3 44 3q39 0 83 -8q70 -14 141 -73q49 -43 68.5 -103.5t23.5 -113.5q1 -16 1 -32 q0 -48 -9 -97q31 78 39 151q4 28 4 57q0 36 -6 74q-10 68 -59 115q-78 72 -160 80q-21 2 -41 2q-58 0 -106 -17q-78 -25 -152 -79zM369 802q10 -52 71 -81q33 -18 68 -18q16 -1 32 3q52 12 93 39q49 31 96 78q-29 -20 -63 -32q-31 -9 -72 -13q-6 0 -12 -1q-36 0 -80 18 q-51 18 -68.5 58t-19.5 81v14q0 41 10 86q-39 -68 -53 -127q-7 -29 -6 -58q-1 -23 4 -47z" />
<glyph unicode="D" horiz-adv-x="1304" d="M3 584q7 116 40 230t84 217.5t113 180.5q115 147 241.5 220t292.5 73q123 0 213 -53t149.5 -138t94.5 -193.5t47 -218.5q8 -78 8 -154q0 -32 -1 -62q-5 -104 -21 -180q-33 -141 -74 -213t-72 -105q-31 -41 -66.5 -75.5t-72.5 -59t-72 -39t-65 -14.5q-66 0 -98.5 14.5 t-49.5 30.5q-18 20 -18 45l14 4q2 -23 19 -39q14 -16 44.5 -27.5t88.5 -11.5q31 0 62.5 18.5t58.5 41.5q31 27 59 61q-27 -12 -55 -20q-25 -6 -55.5 -9.5t-61.5 7.5q-33 10 -51.5 21t-28.5 22q-10 12 -14 24l26 45q10 -18 29 -34q16 -14 38.5 -27.5t57.5 -17.5q23 -2 49.5 1 t52 13t48 27.5t37.5 41.5q18 39 37.5 136.5t22.5 221.5v28q0 111 -20 235q-24 139 -94 264q-35 61 -71.5 109.5t-87 82t-119 52t-162.5 18.5q-27 0 -72 -10t-93 -31.5t-93 -52.5t-72 -72q-88 -131 -112 -304q-10 -74 -11 -151q0 -103 19 -212q14 -88 38.5 -151.5 t54.5 -108.5t62.5 -73t65.5 -42q55 -27 117 -27q23 0 47 5q2 0 6 20q4 16 6 54t2 114v794q0 72 19 101q8 14 20 20l8 -12q-10 -8 -18 -25q-6 -14 -11 -38.5t-1 -63.5v-780q0 -47 -1 -78t-3 -49q-2 -23 -3 -33q18 14 33 53q12 35 23.5 100.5t11.5 178.5v661q0 35 9.5 61.5 t21.5 45.5q12 20 31 35l16 -15q-4 -12 -8 -35q-4 -18 -6 -49.5t-2 -77.5v-641q0 -35 -4.5 -81t-17.5 -95t-41 -98t-75 -90t-79.5 -65.5t-57 -38t-43 -17.5t-37.5 -4q-35 0 -80 16.5t-90 57.5t-87 111.5t-70 181.5q-21 81 -21 171q0 22 1 46zM24 610q-4 -34 -3 -69 q0 -83 20 -170q23 -98 62.5 -166t84.5 -110t88 -60.5t74 -18.5t62.5 15.5t56.5 34.5q29 23 57 51q-18 -10 -43 -15q-23 -4 -55.5 -0.5t-79.5 23.5q-78 33 -132 101.5t-79 162.5q-35 123 -39 237q-1 32 -1 62q0 76 7 139q10 102 37 191q-47 -94 -78 -201q-27 -91 -39 -207z M389 1339q72 35 152 52q47 8 101 8q26 1 52 -1q84 -6 174 -57q88 -49 147.5 -134t94.5 -186q34 -101 50 -212q15 -104 15 -201v-13q-1 -103 -13.5 -188t-31.5 -137q35 33 58 109q20 63 34 178q8 72 8 172q0 59 -3 127q-6 94 -35 190.5t-79 179.5t-120.5 144.5t-162.5 83.5 q-43 10 -90 10q-54 0 -112 -13q-110 -24 -239 -112z" />
<glyph unicode="E" horiz-adv-x="827" d="M0 369q0 45 17.5 97t41 98t47 83t33.5 51q31 41 45 78q13 33 13 67v9q-2 39 -20.5 82t-55.5 96q-31 43 -45 78q-11 25 -11 53q-1 10 1 21q6 39 30.5 86t73.5 112q35 47 70.5 73t69.5 37t65 13t55 2q63 0 101 -20.5t61 -44.5q25 -29 35 -64l-60 -45q-14 31 -35 58 q-18 23 -44.5 42t-61.5 23q-21 1 -39 1q-32 0 -55 -4q-37 -7 -60 -17q-27 -12 -43 -33q31 10 64 16q29 4 59.5 4t59.5 -14q35 -18 55 -41t31 -43q10 -23 12 -47l-16 -2q-6 25 -19 47q-10 20 -27.5 40.5t-46.5 33.5q-23 10 -54.5 11t-62 -3t-55 -14.5t-34.5 -22.5 t-10.5 -35.5t6 -49.5t18.5 -52.5t29 -46.5q31 -41 56 -90.5t25 -102.5q0 -37 -12 -72.5t-30.5 -67.5t-40 -60.5t-39.5 -51.5q-23 -33 -39.5 -62.5t-25.5 -63t-12 -74.5q-1 -18 -1 -38q0 -27 2 -59q4 -47 19.5 -92t42 -83t65.5 -64.5t90 -38.5q48 -11 92 -11q49 -1 92 13 q82 26 123 98q20 35 33.5 89.5t15.5 112.5v18q0 50 -9 96q-11 56 -40 90q-49 58 -97 74q-38 12 -69 13q-8 0 -16 -1q-45 -6 -84 -33q-12 -41 -17 -78q-2 -14 -2 -28q0 -19 4 -39q6 -34 29 -60q23 -27 48.5 -33t47.5 -4q25 2 50 13l20 -27q-33 -20 -67 -29q-29 -6 -63 -1 t-64 40q-20 23 -27.5 49.5t-11.5 50.5q-4 29 0 60q-18 -49 -27 -96q-3 -20 -3 -41.5t3 -42.5q6 -43 41 -74t67 -31h7q35 4 63 23q33 23 62 61l12 -8q-31 -45 -68 -68q-31 -20 -71 -24h-7q-36 0 -75 33q-40 37 -48 88q-3 21 -4 42q0 30 6 59q10 50 30 93t32 62q12 18 39 55 t69 68.5t95 47.5q19 6 40 5q37 0 79 -17q74 -30 106 -102q28 -64 28 -142q0 -10 -1 -20q-4 -90 -40 -188.5t-97 -177.5q-49 -66 -91.5 -112t-81 -74.5t-79.5 -41t-88 -12.5q-51 0 -108.5 17.5t-105 60.5t-79 113.5t-31.5 177.5zM27 367q-2 -20 -2 -40q0 -53 15 -110 q21 -78 101 -137q88 -65 162 -65h7q77 3 136 34q68 37 123 105q-51 -31 -106 -41q-33 -7 -71 -7q-18 0 -40 2q-62 5 -133 46q-70 39 -101.5 104.5t-41.5 126.5q-7 43 -7 89q0 31 3 63q-37 -88 -45 -170zM84 1142q4 -50 49 -102q39 -47 56.5 -90t21.5 -76q3 -18 3 -36t-3 -35 q27 57 37 115q6 29 6 60q0 22 -3 44q-7 55 -46 102q-35 39 -49.5 72t-18.5 57q-6 29 2 52q-33 -37 -47 -78q-9 -26 -9 -61q0 -12 1 -24zM412 762q32 10 63 10h10q33 -2 73 -16.5t81 -55.5q37 -39 53.5 -92t20.5 -100q3 -28 3 -57.5t-3 -59.5q27 76 35 148q4 30 4 61 q0 34 -4 68q-8 68 -50 114q-53 58 -104 62q-8 1 -16 1q-42 0 -76 -16q-49 -23 -90 -67z" />
<glyph unicode="F" horiz-adv-x="915" d="M4 209q-2 21 -2 42q0 65 24 125q32 79 89 146q23 27 64.5 60.5t89.5 53.5q40 17 81 18q8 0 16 -1q50 -4 87 -49q26 -35 26 -71q-1 -6 -1 -13q-6 -43 -23 -80q-23 -43 -62 -84l-8 19q27 31 41 65q10 29 10 66t-33 72q-27 27 -61 27q-2 -1 -6 -1q-38 -2 -78 -16 q-45 -18 -92 -49q33 8 67 10q29 0 60 -7t53 -36q23 -31 26 -60.5t-3 -54.5q-8 -29 -25 -53l-10 12q12 25 18 47q4 20 2 45t-18 50q-23 31 -55.5 37t-63.5 1q-37 -6 -76 -20q-16 -65 -17 -126q0 -7 1 -13q0 -29 6 -60.5t18.5 -61.5t34 -56.5t54.5 -47.5q44 -29 92 -28 q1 -1 2 -1q49 0 92 15q49 14 98 45q-2 -4 8.5 12.5t22.5 70.5t23.5 155.5t11.5 267.5v408q0 49 14 88q8 20 16 36l13 -10q-8 -10 -15 -28q-4 -16 -8 -39t-4 -52v-399q0 -111 -2 -187.5t-5 -129t-7 -82t-6 -43.5q23 39 41 98q16 51 28.5 130t12.5 192v444q0 35 9 65.5 t21 53.5q14 27 33 49l16 -19q-6 -14 -10 -36q-4 -18 -6 -49t-2 -72v-469q0 -78 -18 -160q-16 -70 -53.5 -151.5t-108.5 -155.5q-80 -84 -141.5 -122t-139.5 -42h-18q-28 0 -60 4q-43 6 -80.5 28.5t-66.5 64.5t-37 112zM20 254q0 -57 21 -111.5t74 -91.5q70 -37 129 -36h14 q66 5 113 28q55 27 100 74q-39 -23 -84 -31q-32 -8 -71 -8h-16q-48 2 -97 24q-33 14 -54.5 38t-35 51.5t-19.5 59.5t-8 62q-2 19 -2 39q0 53 12 113q-23 -27 -39 -59q-14 -29 -25.5 -67t-11.5 -85zM156 1071q-1 9 -1 17q-1 44 17 90q20 54 55 100.5t66 75.5t63.5 55.5 t68.5 48t76 33.5t83 12q57 0 99 -8t80 -16.5t78 -16.5t91 -8h29q55 0 95 6q50 8 79 19q35 10 55 26l10 -18q-18 -23 -53 -41q-31 -16 -82 -27.5t-133 -11.5q-72 0 -118 6t-82 12.5t-69.5 12.5t-80.5 6q-53 0 -95.5 -12.5t-70.5 -26.5q-35 -18 -60 -39q20 6 47 12 q23 4 57 9.5t79 5.5q39 0 76.5 -9.5t77.5 -21.5t82 -21.5t87 -9.5q49 0 88 6t68 15q33 8 57 22l6 -16q-20 -14 -51 -23q-27 -8 -68.5 -14t-99.5 -6q-47 0 -92 9t-87 21.5t-80 21.5t-71 9q-59 0 -101 -8t-66 -18q-31 -12 -48 -27q-16 -39 -22 -76q-4 -20 -3 -41q0 -14 1 -28 q4 -36 26 -72q29 -41 64 -48t63 -1q35 8 70 30l14 -10q-41 -37 -86 -51q-28 -8 -59 -8q-13 0 -26 1q-46 5 -87 54q-24 27 -26 64q-1 14 0 28q0 22 2 43q6 39 20 84q-45 -55 -67 -108q-21 -48 -23 -100v-5q0 -49 41 -88q43 -43 88 -46q8 -1 16 -1q36 0 66 12q43 16 86 50 l14 -13q-43 -35 -92 -51q-34 -12 -74 -12q-9 0 -18 1q-51 3 -98 46q-47 41 -51 94zM735 692q2 12 10 23q6 8 16.5 15t29.5 7q23 0 39 -9t32.5 -21.5t32.5 -21.5t39 -9t36 8t23 18q10 12 17 29l2 -22q-4 -14 -13 -25q-8 -10 -23 -17.5t-40 -7.5q-29 0 -49.5 9.5t-38 21.5 t-31.5 21.5t-26 9.5q-14 0 -23.5 -7t-15.5 -16q-8 -10 -13 -22zM760 784q4 12 12 23q8 8 19.5 15t29.5 7q23 0 35 -4t25.5 -9t32 -9t53.5 -4q12 0 25.5 4t25.5 8q14 6 29 14l2 -16q-6 -18 -17 -31q-10 -12 -25.5 -21t-39.5 -9q-29 0 -49.5 9t-38 21.5t-31.5 21.5t-27 9 q-14 0 -23.5 -7t-15.5 -15q-8 -10 -12 -23z" />
<glyph unicode="G" horiz-adv-x="1110" d="M0 608q2 62 12 107q12 53 39 96l15 -10q-25 -45 -37 -96q-10 -45 -11 -101q-1 -4 -1 -7q0 -54 24 -112q27 -66 63.5 -109.5t77.5 -70t84 -38t82 -11.5q53 0 95 12.5t73 28.5q37 18 64 43q-57 -18 -115 -18l-41 2q-66 6 -142.5 42.5t-140.5 133.5q-27 39 -36 94 q-6 38 -6 75q0 17 1 33q4 54 18.5 99t37.5 63q-20 42 -20 97q0 10 1 20q4 57 33 137t115 180q96 115 181 161t167 46q57 0 103 -10t82 -27.5t62.5 -40t45.5 -45.5q45 -53 63 -120l-63 -29q-18 68 -56 121q-33 45 -90 83t-149 38q-53 0 -96 -15.5t-76 -34.5q-37 -23 -68 -49 q39 20 88 29q22 3 49 3q22 0 46 -2q55 -5 118 -38q61 -35 97 -76t53 -78q20 -43 24 -86h-16q-8 43 -29 84q-16 35 -50 74t-87 68q-39 20 -85 30q-26 5 -52 5q-21 0 -43 -3q-49 -8 -99.5 -33.5t-97.5 -72.5q-27 -27 -36 -78q-6 -33 -6 -67q0 -19 2 -39q5 -54 20.5 -102 t40.5 -66q41 -35 75.5 -37t61.5 8q31 12 55 39l12 -16q-39 -39 -81 -56q-27 -10 -60 -10q-12 0 -25 1q-47 5 -96 54q-29 29 -37 74t-8 90q0 53 8 109q-37 -63 -59 -125q-18 -53 -21 -109v-8q0 -50 31 -86q55 -61 108 -66q13 -2 24 -2q39 0 71 15q49 23 92 67l13 -10 q-20 -25 -48 -45q-23 -16 -55.5 -30.5t-71.5 -14.5q-35 0 -61.5 10.5t-44.5 22.5q-23 14 -37 35q-18 -47 -22 -101q-1 -14 -1 -29q0 -33 6 -72q9 -56 46 -114q31 -49 65.5 -78.5t72.5 -47t76 -22.5q27 -4 52 -4q10 0 20 1q82 4 164 39q33 20 68 64t63 91q35 53 66 115v223 l16 17v-652q1 -33 1 -59.5t-1 -46.5q-2 -41 -6 -64q-4 -27 -10 -41q23 23 41 64q16 35 27 93q10 49 10 121v25v592l61 45v-596q0 -92 -5 -147t-24.5 -98t-57.5 -88t-101 -117q-27 -29 -60.5 -63.5t-72.5 -65.5t-81 -52.5t-85 -23.5h-6q-40 0 -79 22q-42 25 -79 85l14 14 q27 -45 55.5 -68.5t56.5 -31t55.5 -3t51.5 14.5q55 25 111 88q-35 -11 -70 -11l-20 1q-39 4 -81 23.5t-77 74.5l47 45q35 -53 82 -70q42 -14 79 -14h9q49 2 101 21q25 27 43 53t31.5 62t19.5 87q4 38 4 89v36v357q-55 -109 -129 -191q-31 -37 -71 -70.5t-87 -60.5t-101 -43 t-116 -16q-70 0 -125 22.5t-95 58t-65.5 76.5t-37.5 78q-23 67 -23 124v9z" />
<glyph unicode="H" horiz-adv-x="1466" d="M2 274q4 41 14 78q23 88 82 180q59 82 125 130q27 20 58.5 34.5t63.5 16.5q4 0 8 1q27 0 57 -12q34 -14 65 -47q20 -23 26.5 -46t4.5 -48.5t-12.5 -51.5t-24.5 -48q-33 -53 -88 -109l-12 13q14 37 18 73q1 10 1 19q0 22 -6 46q-9 34 -42 58q-31 22 -66 22h-8 q-39 -3 -69 -20q-37 -18 -72 -47q-19 -58 -19 -112v-5q2 -49 26 -101t91 -93q69 -41 127 -45q17 -1 32 -1q39 0 71 7q51 12 94 43l45 53q10 16 18 51q6 29 12.5 77t6.5 120v565q0 84 10 121q6 20 12 31l19 -8q-6 -12 -13 -35q-4 -18 -8 -48t-4 -71v-555q0 -68 -2 -109 t-6 -63q-4 -25 -8 -35q20 20 39 57q16 33 27.5 89.5t11.5 146.5v502v21q0 51 8 87q10 42 22 68q14 29 35 41l19 -19q-6 -18 -13 -45q-10 -51 -10 -143v-481q0 -76 -11.5 -129.5t-25.5 -87.5q-16 -41 -35 -68l-176 -197q-61 -70 -129 -106q-59 -33 -135 -40q-8 -1 -16 -1 q-69 0 -144 55q-41 31 -62.5 67t-28.5 74q-4 24 -4 51q0 14 1 29zM19 248q-1 -30 9 -60q10 -32 31 -62.5t56 -57.5q37 -30 73 -42q33 -12 64 -11h5q34 1 65.5 11.5t58.5 26.5q63 37 119 101q-41 -23 -90 -31q-30 -6 -67 -6q-15 0 -29 1q-54 3 -113 32q-66 29 -92.5 80 t-36.5 98q-6 31 -6 64q0 26 4 54q-37 -68 -47 -135q-4 -32 -4 -63zM102 1126v12q0 44 17 89q23 59 67 125q31 41 68 75q29 29 66.5 53.5t72.5 24.5q43 0 81 -10t72 -22.5t66.5 -22.5t63.5 -10q39 0 62.5 4t37.5 8q16 6 25 14l18 -12q-31 -43 -67 -78q-33 -29 -80 -53.5 t-107 -24.5q-37 0 -66.5 10.5t-57 24t-56.5 23.5t-61 10q-37 0 -59.5 -8t-37.5 -19q-16 -10 -22 -24q-8 -25 -6 -47q0 -20 9 -41t32 -37q35 -27 67.5 -27t57.5 11q29 10 53 34l10 -12q-37 -61 -80 -100q-37 -36 -85 -56q-21 -9 -42 -8q-29 0 -59 15q-58 29 -60 79zM121 1178 q-2 -13 -3 -26q0 -20 6 -40q9 -33 56 -53q19 -9 39 -8l31 5q35 13 63 36q33 25 62 65q-20 -18 -45 -29q-23 -10 -50.5 -12t-56.5 12q-35 16 -50 38t-19 42q-6 23 0 49q-25 -43 -33 -79zM176 592q31 12 64 14q29 2 62.5 -6t64.5 -35q20 -18 28 -41.5t13 -46.5q4 -25 0 -51 q29 43 43 82q10 30 10 60v10q-2 36 -35 65q-32 27 -69 27q-6 0 -12 -1q-44 -5 -81 -22q-45 -20 -88 -55zM225 1362l25 10q12 4 31.5 8t46.5 4q35 0 64.5 -10t58 -22.5t59.5 -23.5t68 -11q39 0 83 22.5t74 55.5l-4 4q-10 -2 -32.5 -8.5t-53.5 -6.5q-47 0 -81 13.5t-63.5 29 t-58 28.5t-65.5 13q-23 0 -48.5 -16t-47.5 -37q-27 -23 -56 -53zM778 692q2 12 10 23q6 8 16.5 15t29.5 7q23 0 37 -9t27 -21.5t27.5 -21.5t37.5 -9t36 8t23 18q10 12 16 29l2 -22q-4 -14 -12 -25q-8 -10 -23.5 -17.5t-39.5 -7.5q-29 0 -47.5 9.5t-33 21.5t-26.5 21.5 t-24 9.5q-14 0 -23.5 -7t-15.5 -16q-8 -10 -13 -22zM803 784q4 12 12 23q8 8 19.5 15t29.5 7q23 0 33 -4t21.5 -9t27 -9t49.5 -4q12 0 25.5 4t26.5 8q14 6 28 14l2 -16q-6 -18 -16 -31q-10 -12 -25.5 -21t-40.5 -9q-29 0 -47 9t-32.5 21.5t-26.5 21.5t-25 9q-14 0 -23.5 -7 t-15.5 -15q-8 -10 -12 -23zM1085 231v893q0 84 21.5 139.5t48.5 88.5q31 37 70 59q49 55 102 78q35 15 75 15q14 0 30 -2q58 -7 116 -79l-53 -51q-33 66 -72 81q-25 10 -49 10q-12 0 -24 -3q-39 -8 -80 -41q13 1 24 1q48 0 74 -14q32 -17 49 -42q18 -29 21 -66l-21 -18 q0 55 -26.5 80.5t-57.5 34.5q-21 5 -46 5q-18 0 -38 -3q-6 -10 -12 -37q-4 -23 -8 -70t-4 -125v-735q0 -78 7 -132t19.5 -88t28.5 -50.5t33 -22.5q10 -4 21 -4q30 0 67 27l86 90l18 -21l-100 -106q-20 -25 -52 -52.5t-68 -46.5q-37 -18 -71 -23q-7 -1 -13 -1q-27 0 -50 16 q-29 20 -47.5 71.5t-18.5 143.5zM1102 268q0 -80 10 -131t26.5 -78.5t38 -37t44.5 -5.5q53 8 120 72q-51 0 -90 25q-35 23 -61.5 70.5t-26.5 146.5v835q0 53 6.5 92t16.5 66q8 31 22 51q-31 -18 -53 -51q-20 -29 -36.5 -77t-16.5 -126v-852z" />
<glyph unicode="I" horiz-adv-x="720" d="M0 106l14 15q27 -45 55.5 -68.5t56.5 -31t55.5 -3t51.5 14.5q55 25 111 88q-35 -11 -70 -11l-20 1q-39 4 -81 23.5t-77 74.5l47 45q35 -54 82 -70q42 -15 79 -14h9q49 2 101 20q25 27 43 53.5t31.5 62.5t19.5 87q4 38 4 89v36v553q0 84 10 121q6 20 13 31l18 -9 q-6 -12 -12 -34q-4 -18 -8.5 -48t-4.5 -71v-539q1 -33 1 -59.5t-1 -46.5q-2 -40 -6 -64q-4 -27 -10 -41q23 23 41 64q15 35 27 93q10 49 10 121v25v480v21q0 51 8 87q10 42 23 68q14 29 34 41l19 -19q-6 -18 -12 -45q-10 -51 -11 -143v-449q0 -92 -5 -147t-24.5 -98 t-57.5 -88.5t-101 -116.5q-27 -29 -60.5 -64t-72.5 -65.5t-81 -52t-85 -23.5h-6q-40 0 -79 22q-42 24 -79 84zM54 1126q0 6 -1 12q0 44 17 89q23 59 67 125q31 41 68 75q29 29 66.5 53.5t72.5 24.5q43 0 81 -10t71.5 -22.5t66.5 -22.5t64 -10q39 0 62.5 4t37.5 8q16 6 25 14 l18 -12q-31 -43 -68 -78q-33 -29 -80 -53.5t-106 -24.5q-37 0 -66.5 10.5t-57 24t-56.5 23.5t-62 10q-37 0 -59 -8t-37 -19q-16 -10 -22 -24q-8 -25 -6 -47q0 -20 9 -41t31 -37q35 -27 68 -27t57 11q29 10 54 34l10 -12q-37 -61 -80 -100q-37 -36 -85 -56q-21 -9 -42 -8 q-29 0 -59 15q-57 29 -59 79zM72 1178q-2 -13 -3 -26q0 -20 6 -40q9 -33 56 -53q19 -9 39 -8l31 5q35 13 63 36q33 25 62 65q-20 -18 -45 -29q-23 -10 -50.5 -12t-56.5 12q-35 16 -50 38t-20 42q-6 23 0 49q-25 -43 -32 -79zM176 1362l25 10q12 4 31.5 8t46.5 4 q35 0 64.5 -10t58 -22.5t59 -23.5t67.5 -11q39 0 83 22.5t75 55.5l-4 4q-10 -2 -32.5 -8.5t-53.5 -6.5q-47 0 -81 13.5t-63.5 29t-58 28.5t-65.5 13q-23 0 -48.5 -16t-48.5 -37q-27 -23 -55 -53z" />
<glyph unicode="J" horiz-adv-x="720" d="M0 -147l14 14q27 -45 55.5 -68.5t56.5 -31t55.5 -3t51.5 14.5q55 25 111 88q-35 -11 -70 -11l-20 1q-39 4 -81 23.5t-77 74.5l47 45q35 -53 82 -70q42 -14 79 -14h9q49 2 101 21q25 27 43 53t31.5 62t19.5 87q4 38 4 89v36v807q0 84 10 121q6 20 13 31l18 -9 q-6 -12 -12 -34q-4 -18 -8.5 -48t-4.5 -71v-793q1 -33 1 -59.5t-1 -46.5q-2 -41 -6 -64q-4 -27 -10 -41q23 23 41 64q16 35 27 93q10 49 10 121v25v734v21q0 52 8 87q10 43 23 68q14 29 34 41l19 -19q-6 -18 -12 -45q-10 -51 -11 -143v-703q0 -92 -5 -147t-24.5 -98 t-57.5 -88t-101 -117q-27 -29 -60.5 -63.5t-72.5 -65.5t-81 -52.5t-85 -23.5h-6q-40 0 -79 22q-42 25 -79 85zM54 1126q-1 6 -1 12q0 44 17 89q23 59 67 125q31 41 68 75q29 29 66.5 53.5t72.5 24.5q43 0 81 -10t71.5 -22.5t66.5 -22.5t64 -10q39 0 62.5 4t37.5 8 q16 6 25 14l18 -12q-31 -43 -68 -78q-33 -29 -80 -53.5t-106 -24.5q-37 0 -66.5 10.5t-57 24t-56.5 23.5t-62 10q-37 0 -59 -8t-37 -19q-16 -10 -22 -24q-8 -25 -6 -47q0 -20 9 -41t31 -37q35 -27 68 -27t57 11q29 10 54 34l10 -12q-37 -61 -80 -100q-37 -35 -85 -56 q-21 -8 -42 -8q-29 0 -59 15q-57 29 -59 79zM72 1178q-2 -13 -2 -26q0 -20 5 -40q9 -33 56 -53q19 -9 39 -9l31 6q35 13 63 36q33 25 62 65q-20 -18 -45 -29q-23 -10 -50.5 -12t-56.5 12q-35 16 -50 38t-20 42q-6 23 0 49q-25 -43 -32 -79zM176 1362l25 10q12 4 31.5 8 t46.5 4q35 0 64.5 -10t58 -22.5t59 -23.5t67.5 -11q39 0 83 22.5t75 55.5l-4 4q-10 -2 -32.5 -8.5t-53.5 -6.5q-47 0 -81 13.5t-63.5 29t-58 28.5t-65.5 13q-23 0 -48.5 -16t-48.5 -37q-27 -23 -55 -53z" />
<glyph unicode="K" horiz-adv-x="1404" d="M2 274q4 41 14 78q23 88 82 180q59 82 125 130q27 20 58.5 34.5t63.5 16.5q4 0 8 1q27 0 57 -12q34 -14 65 -47q20 -23 26.5 -46t4.5 -48.5t-12.5 -51.5t-24.5 -48q-33 -53 -88 -109l-12 13q14 37 18 73q1 10 1 19q0 22 -6 46q-9 34 -42 58q-31 22 -66 22h-8 q-39 -3 -69 -20q-37 -18 -72 -47q-19 -58 -19 -112v-5q2 -49 26 -101t91 -93q69 -41 127 -45q17 -1 32 -1q39 0 71 7q51 12 94 43l45 53q10 16 18 51q6 29 12.5 77t6.5 120v565q0 84 10 121q6 20 12 31l19 -8q-6 -12 -13 -35q-4 -18 -8 -48t-4 -71v-555q0 -68 -2 -109 t-6 -63q-4 -25 -8 -35q20 20 39 57q16 33 27.5 89.5t11.5 146.5v502v21q0 51 8 87q10 42 22 68q14 29 35 41l19 -19q-6 -18 -13 -45q-10 -51 -10 -143v-481q0 -76 -11.5 -129.5t-25.5 -87.5q-16 -41 -35 -68l-176 -197q-61 -70 -129 -106q-59 -33 -135 -40q-8 -1 -16 -1 q-69 0 -144 55q-41 31 -62.5 67t-28.5 74q-4 24 -4 51q0 14 1 29zM19 248q-1 -30 9 -60q10 -32 31 -62.5t56 -57.5q37 -30 73 -42q33 -12 64 -11h5q34 1 65.5 11.5t58.5 26.5q63 37 119 101q-41 -23 -90 -31q-30 -6 -67 -6q-15 0 -29 1q-54 3 -113 32q-66 29 -92.5 80 t-36.5 98q-6 31 -6 64q0 26 4 54q-37 -68 -47 -135q-4 -32 -4 -63zM102 1126v12q0 44 17 89q23 59 67 125q31 41 68 75q29 29 66.5 53.5t72.5 24.5q43 0 81 -10t72 -22.5t66.5 -22.5t63.5 -10q39 0 62.5 4t37.5 8q16 6 25 14l18 -12q-31 -43 -67 -78q-33 -29 -80 -53.5 t-107 -24.5q-37 0 -66.5 10.5t-57 24t-56.5 23.5t-61 10q-37 0 -59.5 -8t-37.5 -19q-16 -10 -22 -24q-8 -25 -6 -47q0 -20 9 -41t32 -37q35 -27 67.5 -27t57.5 11q29 10 53 34l10 -12q-37 -61 -80 -100q-37 -36 -85 -56q-21 -9 -42 -8q-29 0 -59 15q-58 29 -60 79zM121 1178 q-2 -13 -3 -26q0 -20 6 -40q9 -33 56 -53q19 -9 39 -8l31 5q35 13 63 36q33 25 62 65q-20 -18 -45 -29q-23 -10 -50.5 -12t-56.5 12q-35 16 -50 38t-19 42q-6 23 0 49q-25 -43 -33 -79zM176 592q31 12 64 14q29 2 62.5 -6t64.5 -35q20 -18 28 -41.5t13 -46.5q4 -25 0 -51 q29 43 43 82q10 30 10 60v10q-2 36 -35 65q-32 27 -69 27q-6 0 -12 -1q-44 -5 -81 -22q-45 -20 -88 -55zM225 1362l25 10q12 4 31.5 8t46.5 4q35 0 64.5 -10t58 -22.5t59.5 -23.5t68 -11q39 0 83 22.5t74 55.5l-4 4q-10 -2 -32.5 -8.5t-53.5 -6.5q-47 0 -81 13.5t-63.5 29 t-58 28.5t-65.5 13q-23 0 -48.5 -16t-47.5 -37q-27 -23 -56 -53zM848 764l104 108q16 16 27 52q9 29 17 78q5 35 6 82q0 19 -1 40q0 84 21.5 139.5t48.5 88.5q31 37 70 59q49 55 102 78q35 15 75 15q14 0 30 -2q58 -7 116 -79l-53 -51q-33 66 -72 81q-25 10 -49 10 q-12 0 -24 -3q-39 -8 -80 -41q13 1 24 1q48 0 74 -14q32 -17 49 -42q18 -29 21 -66l-21 -18q0 55 -26.5 80.5t-57.5 34.5q-21 5 -46 5q-18 0 -38 -3q-6 -10 -13 -37q-4 -23 -7.5 -70t-3.5 -125q0 -72 -20.5 -125t-45.5 -88q-29 -41 -65 -69q41 0 75 -25q29 -23 52.5 -74 t23.5 -151v-203q0 -78 7.5 -132t19.5 -88t28.5 -50.5t32.5 -22.5q10 -4 21 -4q30 0 67 27l86 90l19 -21l-101 -106q-20 -25 -52 -52.5t-67.5 -46t-70.5 -23.5q-7 -1 -13 -1q-26 0 -50 16q-28 20 -47 71.5t-19 143.5v349q0 78 -25.5 113.5t-54.5 47.5q-21 7 -45 7 q-16 0 -33 -3zM901 780q37 0 68 -18q27 -16 48 -52t21 -108v-334q0 -80 10.5 -131t27 -78.5t38 -37t43.5 -5.5q53 8 121 72q-51 0 -90 25q-35 23 -61.5 70.5t-26.5 146.5v352q0 68 -21.5 101.5t-46.5 47.5q-29 15 -63 15h-4zM1001 913q20 20 39 56q14 29 26.5 77t12.5 119 q0 53 6.5 92t16.5 66q8 31 22 51q-31 -18 -53 -51q-20 -29 -36.5 -77t-16.5 -126q0 -63 -2 -103t-6 -63q-4 -27 -9 -41z" />
<glyph unicode="L" d="M0 12q10 14 37 27q23 10 63.5 19.5t106.5 9.5q70 0 117 -10.5t84.5 -24t76.5 -23.5t95 -10q39 0 76.5 14.5t66.5 32.5q35 23 65 49q-16 -8 -36 -14q-39 -14 -84 -14q-37 0 -84 14t-96.5 30.5t-95.5 31t-83 14.5q-41 0 -76.5 -10.5t-64.5 -20.5q-33 -14 -62 -31l-20 15 q33 25 70 47q33 16 75.5 31.5t90.5 15.5q51 0 126.5 -21.5t152.5 -40t145 -20.5h7q64 0 97 39q35 41 39 89q1 8 1 15q0 39 -18 71q-22 39 -63 55q-17 7 -37 6q-27 0 -59 -13l-8 10q43 17 77 16q20 1 36 -5q44 -16 64.5 -52.5t21.5 -80.5v-7q0 -39 -11 -61q25 41 41 82 q12 35 17 73q1 9 1 19q0 29 -12 55q-25 46 -77 62q-13 4 -27 4q-43 0 -99 -35l-14 16q39 37 82 56q30 13 64 12h18q45 -4 88 -49q30 -34 30 -81q-1 -49 -21 -105q-20 -52 -52.5 -100t-65.5 -77q-25 -20 -57.5 -47t-70.5 -50.5t-79 -39.5t-79 -16q-53 0 -101.5 11t-94.5 23.5 t-91 23.5t-88 11q-59 0 -95 -8t-59 -18q-25 -12 -39 -27zM96 166q12 12 27 33q29 35 57 96q6 12 13.5 32.5t14.5 57.5t11 93.5t4 139.5v244q0 43 2 96.5t16.5 114t47.5 122.5t92 122q59 59 130 105t141 68q48 15 94 14q22 0 42 -3q64 -10 111 -65q57 -68 69 -140 q6 -34 7 -67q-1 -38 -9 -74q-14 -68 -43.5 -123t-54.5 -86q-35 -45 -77.5 -83t-88 -61.5t-91.5 -27.5q-7 -1 -14 -1q-39 0 -73 20q-35 18 -51 45q-15 26 -21 57q-3 14 -3 29q-1 18 3 36q6 34 17 64q25 74 78 156l18 -17q-12 -38 -12 -72v-10q0 -35 15.5 -73.5t58.5 -67.5 q45 -31 84 -32h6q35 0 61 12q35 12 62 41q20 68 22 135v11q0 51 -18 107q-20 62 -76 105q-66 47 -130 50h-21q-53 0 -97 -13q-61 -20 -117 -60q-12 -25 -20 -77q-8 -47 -14.5 -132.5t-6.5 -226.5q0 -166 -16 -268.5t-35 -159.5q-23 -68 -51 -98l-147 -180zM223 344 q20 47 39 121q14 61 26.5 158.5t12.5 234.5q0 117 6 191.5t17 117.5q8 51 22 78q-31 -25 -53 -76q-20 -43 -36.5 -115.5t-16.5 -187.5v-248q0 -92 -2 -146t-7 -83q-4 -35 -8 -45zM444 1348q57 25 117 32q29 5 60 4q23 0 49 -2q58 -6 110 -47q53 -43 75 -100t26 -111 q1 -14 1 -29q0 -48 -10 -98q29 76 37 148q4 27 4 56q0 36 -6 73q-10 68 -61 119q-55 53 -125 54h-6q-67 0 -125 -22q-72 -25 -146 -77zM476 884q8 -52 61 -79q29 -16 60 -17q13 0 26 4q45 10 79 29q41 23 82 62q-33 -16 -67 -23q-12 -2 -26 -2q-20 0 -42 4q-37 6 -74 37 q-31 25 -42 59.5t-15 69.5q-1 12 -1 25q0 26 5 55q-33 -66 -45 -123q-5 -26 -5 -54q0 -23 4 -47z" />
<glyph unicode="M" horiz-adv-x="1961" d="M2 274q4 41 14 78q23 88 82 180q59 82 125 130q27 20 58.5 34.5t63.5 16.5q4 0 8 1q27 0 57 -12q34 -14 65 -47q20 -23 26.5 -46t4.5 -48.5t-12.5 -51.5t-24.5 -48q-33 -53 -88 -109l-12 13q14 37 18 73q1 10 1 19q0 22 -6 46q-9 34 -42 58q-31 22 -66 22h-8 q-39 -3 -69 -20q-37 -18 -72 -47q-19 -58 -19 -112v-5q2 -49 26 -101t91 -93q69 -41 127 -45q17 -1 32 -1q39 0 71 7q51 12 94 43l45 53q10 16 18 51q6 29 12.5 77t6.5 120v590q0 72 23.5 126t52.5 93q35 45 77 80q23 31 47 53q23 20 51.5 36.5t61.5 16.5q25 0 43.5 -11 t30.5 -24q14 -16 22 -34q12 -25 23 -54q10 -25 17 -55.5t7 -60.5v-836q0 -74 6.5 -126t16.5 -86t23.5 -52.5t27.5 -26.5q15 -10 32 -10q20 0 44 14q6 10 14 37q4 23 9.5 67t5.5 115v738q0 72 23.5 126t51.5 93q35 45 78 80q23 31 47 53q23 20 51.5 36.5t61.5 16.5 q25 0 43 -11t31 -24q14 -16 22 -34q12 -25 23 -54q10 -25 17 -55.5t7 -60.5v-836q0 -78 7.5 -132t19.5 -88t28.5 -50.5t32.5 -22.5q10 -4 21 -4q30 0 67 27l86 90l19 -21l-100 -106q-20 -25 -52 -52.5t-68 -46t-71 -23.5q-7 -1 -13 -1q-27 0 -51 16q-28 20 -46.5 71.5 t-18.5 143.5v951q0 31 -4 59q-4 25 -10 51.5t-17 44.5q-18 29 -36.5 39t-34.5 10q-18 0 -35 -8q-12 -14 -21 -41q-8 -23 -14 -65.5t-6 -108.5v-684q0 -76 -11.5 -129t-25.5 -88q-16 -41 -35 -67l-65 -72q-20 -25 -52 -52.5t-68 -46t-71 -23.5q-7 -1 -13 -1q-26 0 -50 16 q-28 20 -47 71.5t-19 143.5v951q0 31 -4 59q-4 25 -10 51.5t-17 44.5q-18 29 -36.5 39t-34.5 10q-18 0 -35 -8q-12 -14 -21 -41q-8 -23 -14 -65.5t-6 -108.5v-536q0 -76 -11.5 -129.5t-25.5 -87.5q-16 -41 -35 -68l-176 -197q-61 -70 -129 -106q-59 -33 -135 -40 q-8 -1 -16 -1q-69 0 -144 55q-41 31 -62.5 67t-28.5 74q-4 24 -4 51q0 14 1 29zM19 248q-1 -30 9 -60q10 -32 31 -62.5t56 -57.5q37 -30 73 -42q33 -12 64 -11h5q34 1 65.5 11.5t58.5 26.5q63 37 119 101q-41 -23 -90 -31q-30 -6 -67 -6q-15 0 -29 1q-54 3 -113 32 q-66 29 -92.5 80t-36.5 98q-6 31 -6 64q0 26 4 54q-37 -68 -47 -135q-4 -32 -4 -63zM176 592q31 12 64 14q29 2 62.5 -6t64.5 -35q20 -18 28 -41.5t13 -46.5q4 -25 0 -51q29 43 43 82q10 30 10 60v10q-2 36 -35 65q-32 27 -69 27q-6 0 -12 -1q-44 -5 -81 -22 q-45 -20 -88 -55zM629 303q20 20 39 57q16 33 27.5 89.5t11.5 146.5v534q0 45 4 81t10 61q6 29 14 51q-25 -23 -45 -59q-16 -31 -30.5 -80t-14.5 -121v-553q0 -68 -2 -109t-6 -63q-4 -25 -8 -35zM829 1403q14 4 31 0q14 -4 31.5 -15.5t36.5 -33.5q12 -18 19 -42t11 -46 q4 -25 5 -52v-946q0 -80 10 -131t26.5 -78.5t38 -37t43.5 -5.5q53 8 121 72q-51 0 -90 25q-35 23 -61.5 70.5t-26.5 146.5v909q0 33 -4 64q-4 27 -11.5 56.5t-21.5 51.5q-23 35 -49.5 38t-50.5 -7q-29 -12 -58 -39zM1264 156q20 20 39 57q16 33 27 89t11 147v681 q0 45 4.5 81t10.5 61q6 29 14 51q-25 -23 -45 -59q-16 -31 -30.5 -80t-14.5 -121v-701q0 -68 -2 -108.5t-6 -63.5q-4 -25 -8 -34zM1464 1403q14 4 31 0q14 -4 31.5 -15.5t36.5 -33.5q12 -18 19 -42t11 -46q4 -25 4 -52v-946q0 -80 10.5 -131t27 -78.5t38 -37t43.5 -5.5 q53 8 121 72q-51 0 -90 25q-35 23 -61.5 70.5t-26.5 146.5v909q0 33 -4 64q-4 27 -11.5 56.5t-21.5 51.5q-23 35 -49.5 38t-50.5 -7q-29 -12 -58 -39z" />
<glyph unicode="N" horiz-adv-x="1406" d="M3 584q7 116 40 230t84 217.5t113 180.5q115 147 241.5 220t292.5 73q109 0 183.5 -44t120.5 -117.5t66.5 -172t20.5 -204.5v-537q0 -78 7.5 -132t19.5 -88t28.5 -50.5t32.5 -22.5q10 -4 21 -4q30 0 67 27l86 90l19 -21l-100 -106q-20 -25 -52 -52.5t-68 -46t-71 -23.5 q-7 -1 -13 -1q-26 0 -50 16q-28 20 -47 71.5t-19 143.5v652q0 113 -16.5 188.5t-41 124.5t-55 76.5t-59.5 48.5q-55 39 -142 43q-15 1 -30 1q-72 -1 -145 -17q-88 -20 -162 -56.5t-105 -79.5q-90 -129 -114 -303q-10 -72 -9 -148q0 -106 19 -216q14 -88 38.5 -151.5 t54.5 -108.5t62.5 -73t65.5 -42q55 -27 117 -27q23 0 47 4q2 0 6 21q4 16 6 54t2 114v794q0 72 19 101q8 14 20 20l8 -12q-10 -8 -18 -25q-6 -14 -11 -38.5t-1 -63.5v-780q0 -47 -1 -78t-3 -49q-2 -23 -3 -33q18 14 33 53q12 35 23.5 100.5t11.5 178.5v661q0 35 9.5 61.5 t21.5 45.5q12 20 31 35l16 -15q-4 -12 -8 -35q-4 -18 -6 -49.5t-2 -77.5v-641q0 -35 -4.5 -81t-17.5 -95t-41 -98t-75 -90t-79.5 -65.5t-57 -38t-43 -17.5t-37.5 -4q-35 0 -80 16.5t-90 57.5t-87 111.5t-70 181.5q-21 81 -21 171q0 22 1 46zM24 610q-4 -34 -3 -69 q0 -83 20 -170q23 -98 62.5 -166t84.5 -110t88 -60.5t74 -18.5t62.5 15.5t56.5 34.5q29 23 57 51q-18 -10 -43 -15q-23 -4 -55.5 -0.5t-79.5 23.5q-78 33 -132 101.5t-79 162.5q-35 123 -39 237q-1 32 -1 62q0 76 7 139q10 102 37 191q-47 -94 -78 -201q-27 -91 -39 -207z M369 1325q90 33 180 49q59 11 124 11q19 0 38 -1q86 -4 153 -43q55 -35 90 -82t54.5 -104t26.5 -122.5t7 -135.5v-629q0 -80 10.5 -131t27 -78.5t38 -37t43.5 -5.5q53 8 121 72q-51 0 -90 25q-35 23 -61.5 70.5t-26.5 146.5v604q0 104 -13.5 200.5t-50 169t-100 115.5 t-162.5 43q-98 0 -173 -21.5t-128 -47.5q-61 -31 -108 -68z" />
<glyph unicode="O" horiz-adv-x="925" d="M6 526q10 109 33.5 188t48.5 132q29 61 62 106v14q0 28 6 60q6 35 23.5 84t51.5 109q33 57 78 116.5t101 104.5t122 66q40 13 82 13q28 0 58 -6q76 -16 136 -71.5t98 -142.5t50 -203q5 -43 5 -88q0 -77 -13 -162q-20 -123 -63 -268.5t-110.5 -273.5t-159 -217 t-207.5 -101q-17 -2 -34 -2q-64 0 -126 24q-78 30 -136 99q-60 69 -90 175q-21 72 -20 160q0 40 4 84zM25 401q2 -51 14 -104t38.5 -102.5t69 -92t105.5 -73.5q45 -23 88 -28q17 -2 32 -2q25 0 49 5q38 8 70.5 24.5t61.5 37.5q66 49 119 124q-49 -35 -107 -53 q-51 -16 -119 -19h-12q-63 0 -137 27q-47 16 -82 48t-60.5 71t-43 83t-29.5 87q-27 100 -31 219q-28 -106 -27 -203q-1 -25 1 -49zM111 728v-29q0 -53 5 -111q7 -74 27.5 -143.5t56.5 -129t89 -96.5q55 -37 125 -44q21 -2 41 -2q49 -1 95 11q66 16 118.5 50t70.5 77l86 187 q14 31 22.5 96t8.5 146t-9 171t-31.5 170t-59.5 143.5t-90 94.5q-79 43 -144 43q-9 0 -19 -1q-73 -7 -126 -36q-61 -33 -109 -90q-16 -49 -16 -100v-11q0 -40 12 -86q14 -54 60 -100q34 -41 70 -45q9 -1 18 -1q25 0 47 9q33 12 63 45l21 -14q-25 -47 -60 -74 q-31 -23 -76 -29q-6 -1 -12 -1q-41 0 -94 36q-41 25 -60.5 67t-29.5 83q-10 47 -12 100q-20 -74 -21 -141q0 -59 20.5 -123t82.5 -105q42 -29 79 -30q10 1 19 3q45 10 80 34q39 29 73 77l17 -12q-33 -47 -74 -78q-35 -27 -86 -38q-13 -3 -26 -3q-41 0 -91 25 q-39 18 -62.5 51t-35.5 68q-16 37 -22 82q-16 -27 -27.5 -78.5t-13.5 -117.5zM340 1331q57 29 117 39q34 7 73 7q20 0 40 -2q62 -5 118 -44q43 -31 74 -72.5t53.5 -91t36.5 -102.5t22 -104q16 -94 16 -195q0 -29 -1 -59q18 112 18 215q0 37 -2 73q-4 57 -13 119t-29.5 119 t-53.5 107.5t-80 84.5q-74 52 -140 52q-7 0 -13 -1q-72 -6 -123 -38q-61 -37 -113 -107z" />
<glyph unicode="P" horiz-adv-x="903" d="M4 209q-2 21 -2 42q0 65 24 125q32 79 89 146q23 27 64.5 60.5t89.5 53.5q40 17 81 18q8 0 16 -1q50 -4 87 -49q26 -35 26 -71q-1 -6 -1 -13q-6 -43 -23 -80q-23 -43 -62 -84l-8 19q27 31 41 65q10 29 10 66t-33 72q-27 27 -61 27q-2 -1 -6 -1q-38 -2 -78 -16 q-45 -18 -92 -49q33 8 67 10q29 0 60 -7t53 -36q23 -31 26 -60.5t-3 -54.5q-8 -29 -25 -53l-10 12q12 25 18 47q4 20 2 45t-18 50q-23 31 -55.5 37t-63.5 1q-37 -6 -76 -20q-16 -65 -17 -126q0 -7 1 -13q0 -29 6 -60.5t18.5 -61.5t34 -56.5t54.5 -47.5q44 -29 92 -28 q1 -1 2 -1q49 0 92 15q49 14 98 45q-2 -4 8.5 12.5t22.5 70.5t23.5 155.5t11.5 267.5v408q0 49 14 88q8 20 16 36l13 -10q-8 -10 -15 -28q-4 -16 -8 -39t-4 -52v-399q0 -111 -2 -187.5t-5 -129t-7 -82t-6 -43.5q23 39 41 98q16 51 28.5 130t12.5 192v444q0 35 9 65.5 t21 53.5q14 27 33 49l16 -19q-6 -14 -10 -36q-4 -18 -6 -49t-2 -72v-469q0 -78 -18 -160q-16 -70 -53.5 -151.5t-108.5 -155.5q-80 -84 -141.5 -122t-139.5 -42h-18q-28 0 -60 4q-43 6 -80.5 28.5t-66.5 64.5t-37 112zM20 254q0 -57 21 -111.5t74 -91.5q70 -37 129 -36h14 q66 5 113 28q55 27 100 74q-39 -23 -84 -31q-32 -8 -71 -8h-16q-48 2 -97 24q-33 14 -54.5 38t-35 51.5t-19.5 59.5t-8 62q-2 19 -2 39q0 53 12 113q-23 -27 -39 -59q-14 -29 -25.5 -67t-11.5 -85zM158 1001.5q0 36.5 10 74.5t27 73q37 82 106 168q68 74 162 123 q39 20 88 36.5t107 24.5q39 5 82 5q22 0 44 -1q66 -4 142 -24q98 -27 140 -83q43 -57 43 -126q1 -64 -29 -130q-30 -68 -79 -122q-59 -68 -106 -84q-31 -11 -56 -11q-13 0 -24 3q-37 8 -67 41l12 14q27 -23 59 -31q27 -8 61.5 -1t69.5 46q-27 -8 -52 -8q-12 0 -24 2 q-29 4 -56 24.5t-34 69.5l45 31q10 -39 34 -56.5t48 -21.5q17 -5 35 -5q14 0 29 3q7 37 7 71q0 23 -3 46q-8 47 -40 99.5t-105 86.5q-104 47 -195.5 47t-161.5 -18q-82 -23 -147 -68q-25 -63 -33 -120q-6 -36 -6 -72q0 -12 1 -26q3 -50 34 -76q42 -38 80 -46q17 -3 33 -4 q18 0 34 5q33 8 62 30l18 -10q-49 -74 -104 -115q-25 -18 -51.5 -30.5t-56.5 -15.5t-61.5 7.5t-62.5 38.5q-33 29 -46 64t-13 71.5zM174 990q2 -62 57 -111q48 -44 91 -44h6q46 3 80 23q39 23 75 70q-25 -12 -53 -17q-25 -4 -59.5 2t-75.5 33q-41 33 -50 82q-6 34 -6 67 q0 15 1 29q6 53 24 111q-49 -66 -71 -129q-19 -49 -19 -107v-9zM410 1366q57 25 127 33q31 4 69 4q33 0 69 -3q79 -7 169 -46q76 -37 109.5 -89.5t43.5 -99.5q7 -30 6 -61q0 -26 -4 -53q35 55 48 112q4 22 4 45q-1 30 -7 62q-12 58 -73 106q-47 38 -120 56q-66 17 -137 16 h-16q-80 -2 -156.5 -22.5t-131.5 -59.5z" />
<glyph unicode="Q" horiz-adv-x="1126" d="M6 526q10 109 33.5 188t48.5 132q29 61 62 106v14q0 27 6 60q6 35 23.5 84t51.5 109q33 57 78 116.5t100.5 104.5t122.5 66q39 13 80 13q30 0 60 -6q76 -16 136 -71.5t98 -142.5t50 -203q5 -43 5 -88q0 -77 -13 -162q-14 -86 -39.5 -184.5t-62.5 -196.5q23 -84 36 -152 t42 -125q18 -39 41.5 -47t46.5 -4q25 6 49 23l86 90l18 -21l-100 -106q-29 -35 -75 -71t-94 -48q-15 -4 -29 -4q-32 0 -60 18q-41 27 -55 119q-4 29 -4 59.5t2 63.5q-66 -113 -151 -188.5t-191 -85.5q-17 -2 -34 -2q-64 0 -126 24q-78 31 -136.5 99.5t-89.5 174.5 q-20 72 -20 160q0 40 4 84zM25 401q2 -51 14 -104t38.5 -102.5t69 -92t105.5 -73.5q45 -23 88 -28q17 -2 32 -2q26 0 49 5q38 8 70.5 24.5t61.5 37.5q66 49 119 124q-49 -35 -107 -53q-51 -16 -119 -19h-12q-62 0 -137 27q-47 16 -82 48t-60.5 71t-43 83t-29.5 87 q-27 100 -31 219q-28 -106 -28 -203q0 -25 2 -49zM111 728v-29q0 -53 5 -111q7 -74 27.5 -143.5t56.5 -129t89 -96.5q55 -37 125 -44q20 -2 41 -2q48 0 95 11q66 17 118.5 50.5t70.5 76.5l11 25q-2 33 -8.5 65.5t-22.5 63.5q-29 49 -56.5 77.5t-50.5 45.5q-27 18 -53 26 l4 17q25 -6 53 -25q25 -16 54.5 -47t60.5 -84q14 -29 22.5 -54.5t12.5 -51.5l35 75l-8 41q-16 63 -49 102.5t-68 61.5q-39 25 -84 35l10 33q49 -2 92 -25q37 -18 76 -59t61 -117q12 39 19 106q6 54 6 114v33q-2 79 -12 164t-33 161.5t-58.5 136t-86.5 88.5q-79 43 -144 43 q-10 0 -19 -1q-73 -7 -126 -36q-61 -33 -109 -90q-16 -49 -16 -100v-11q0 -38 12 -86q15 -53 60 -100q35 -41 70 -45q9 -1 18 -1q25 0 47 9q33 12 63 45l21 -14q-25 -47 -60 -74q-31 -23 -76 -29q-6 -1 -12 -1q-41 0 -94 36q-41 25 -60.5 67t-29.5 83q-10 47 -12 100 q-20 -74 -21 -141q0 -59 20.5 -123t82.5 -105q42 -29 79 -29q10 0 19 2q45 9 80 34q39 29 73 77l17 -12q-33 -47 -74 -78q-35 -27 -86 -38q-13 -3 -26 -3q-41 0 -91 25q-39 18 -62.5 51t-35.5 68q-16 37 -22 82q-16 -27 -27.5 -78t-13.5 -118zM340 1331q57 29 117 39 q34 7 73 7q19 0 40 -2q61 -5 118 -44q43 -31 74 -72.5t53.5 -91t36.5 -102.5t22 -104q16 -94 16 -195q0 -29 -1 -59q18 112 18 215q0 37 -2 73q-4 57 -13 119t-29.5 119t-53.5 107.5t-80 84.5q-74 52 -140 52q-7 0 -13 -1q-72 -6 -123 -38q-61 -37 -113 -107zM767 211 q-1 -11 -1 -21q0 -28 6 -53q16 -90 54 -109q21 -12 43 -12q17 0 34 7q45 16 98 65q-20 -2 -43 4q-18 4 -40.5 17.5t-43.5 37.5q-29 37 -41 101.5t-22 130.5q-10 -23 -20.5 -43.5t-20.5 -40.5q0 -45 -3 -84z" />
<glyph unicode="R" horiz-adv-x="1337" d="M3 584q7 116 40 230t84 217.5t113 180.5q115 147 241.5 220t292.5 73q82 0 143.5 -25.5t102.5 -68.5q42 -43 60 -99q14 -43 13 -88q0 -15 -1 -30q-6 -70 -30 -126t-52 -97q-33 -49 -70 -88q43 0 78 -25q29 -23 53.5 -74t24.5 -151v-203q0 -78 7 -132t19.5 -88t28.5 -50.5 t33 -22.5q10 -4 21 -4q30 0 67 27l86 90l18 -21l-100 -106q-20 -25 -52 -52.5t-68 -46t-70 -23.5q-7 -1 -14 -1q-27 0 -50 16q-29 20 -47.5 71.5t-18.5 143.5v349q0 78 -25.5 113.5t-53.5 47.5q-21 7 -45 7q-16 0 -33 -3l-17 19l168 184q20 35 29 80q3 18 3 39q0 24 -4 51 q-7 51 -42 115q-35 61 -82 92t-94 43t-90 12t-70 -2q-25 -2 -69 -12t-93 -30.5t-95 -51.5t-73 -72q-88 -131 -112 -304q-10 -74 -11 -151q0 -103 19 -212q14 -88 38.5 -151.5t54.5 -108.5t62.5 -73t65.5 -42q55 -27 117 -27q23 0 47 4q2 0 6 21q4 16 6 54t2 114v794 q0 72 19 101q8 14 20 20l8 -12q-10 -8 -18 -25q-6 -14 -11 -38.5t-1 -63.5v-780q0 -47 -1 -78t-3 -49q-2 -23 -3 -33q18 14 33 53q12 35 23.5 100.5t11.5 178.5v661q0 35 9.5 61.5t21.5 45.5q12 20 31 35l16 -15q-4 -12 -8 -35q-4 -18 -6 -49.5t-2 -77.5v-641 q0 -35 -4.5 -81t-17.5 -95t-41 -98t-75 -90t-79.5 -65.5t-57 -38t-43 -17.5t-37.5 -4q-35 0 -80 16.5t-90 57.5t-87 111.5t-70 181.5q-21 81 -21 171q0 22 1 46zM24 610q-4 -34 -3 -69q0 -83 20 -170q23 -98 62.5 -166t84.5 -110t88 -60.5t74 -18.5t62.5 15.5t56.5 34.5 q29 23 57 51q-18 -10 -43 -15q-23 -4 -55.5 -0.5t-79.5 23.5q-78 33 -132 101.5t-79 162.5q-35 123 -39 237q-1 32 -1 62q0 76 7 139q10 102 37 191q-47 -94 -78 -201q-27 -91 -39 -207zM389 1339q84 35 168 50q49 8 104 8q25 1 51 -1q82 -6 152 -55q59 -43 88 -94t39 -98 q9 -40 9 -80q0 -13 -1 -27q31 66 39 132q2 16 2 34q0 40 -10 82q-14 62 -78 109q-47 33 -96 48t-97 17h-19q-38 0 -76 -6q-46 -8 -86 -22q-98 -33 -189 -97zM836 780q37 0 67 -18q27 -16 48.5 -52t21.5 -108v-334q0 -80 10 -131t26.5 -78.5t38 -37t44.5 -5.5q53 8 120 72 q-51 0 -90 25q-35 23 -61.5 70.5t-26.5 146.5v352q0 68 -21.5 101.5t-45.5 47.5q-29 15 -64 15h-4z" />
<glyph unicode="S" horiz-adv-x="864" d="M2 274q4 41 14 78q23 88 82 180q59 82 125 130q27 20 58.5 34.5t63.5 16.5q4 0 8 1q27 0 57 -12q34 -14 65 -47q20 -23 26.5 -46t4.5 -48.5t-12.5 -51.5t-24.5 -48q-33 -53 -88 -109l-12 13q14 37 18 73q1 10 1 19q0 22 -6 46q-9 34 -42 58q-31 22 -66 22h-8 q-39 -3 -69 -20q-37 -18 -72 -47q-19 -56 -19 -111v-6q2 -49 26 -102t91 -92q76 -43 143.5 -43t118.5 18q59 23 109 64q31 39 54 95q24 57 34 119q5 33 5 66q0 30 -4 60q-9 64 -42 118q-23 43 -77 77t-120.5 70t-134 78t-114.5 103q-31 43 -45 78q-11 26 -11 54q0 10 1 20 q5 39 30 86t74 112q35 47 70.5 73t69.5 37t64.5 13t55.5 2q63 0 101 -20.5t61 -44.5q25 -29 34 -64l-59 -45q-14 31 -35 58q-18 23 -44.5 42t-61.5 23q-21 1 -39 1q-32 0 -55 -4q-37 -7 -60 -17q-27 -12 -43 -33q31 10 64 16q29 4 59.5 4t58.5 -14q35 -18 55.5 -41t30.5 -43 q10 -23 13 -47l-17 -2q-6 25 -18 47q-10 20 -27.5 40.5t-46.5 33.5q-23 10 -54.5 11t-62 -3t-55 -14.5t-35.5 -22.5q-10 -12 -10 -35.5t6 -49.5t18.5 -52.5t28.5 -46.5q27 -39 73 -74t100.5 -68.5t111.5 -67.5t105.5 -71t82 -78t43.5 -88q12 -44 12 -87q1 -42 -11 -83 q-22 -82 -62.5 -149.5t-84.5 -117.5t-65 -77q-80 -96 -165 -153q-37 -25 -79 -43.5t-88 -23.5q-14 -2 -29 -2q-33 0 -65 8q-48 11 -94 46q-41 31 -62.5 67t-28.5 74q-4 24 -4 51q0 14 1 29zM19 248q-1 -30 9 -60q10 -32 31 -62.5t56 -57.5q37 -28 73 -40q34 -11 67 -12 q3 0 6 1q36 1 68.5 11.5t61.5 26.5q68 37 127 103q-45 -23 -98 -33q-35 -8 -77 -8q-13 0 -25 1q-58 3 -117 32q-66 29 -92.5 80t-36.5 98q-6 31 -6 64q0 26 4 54q-37 -68 -47 -135q-4 -32 -4 -63zM158 1143q4 -49 49 -103q45 -55 110.5 -96t132 -75.5t123 -70.5t82.5 -79 q35 -49 44.5 -107.5t9.5 -111.5q-2 -61 -13 -121q29 45 49 98q15 45 25 103q4 22 4 44q0 37 -10 76q-23 78 -83 130.5t-133 97.5t-146.5 90t-122.5 106q-35 39 -49.5 72t-18.5 57q-6 29 2 52q-33 -37 -47 -78q-9 -26 -9 -60q0 -12 1 -24zM176 592q31 12 64 14q29 2 62.5 -6 t64.5 -35q20 -18 28 -41.5t13 -46.5q4 -25 0 -51q29 43 43 82q10 30 10 60v10q-2 36 -35 65q-32 27 -69 27q-6 0 -12 -1q-44 -5 -81 -22q-45 -20 -88 -55z" />
<glyph unicode="T" horiz-adv-x="819" d="M2 1071q-1 9 -1 17q-1 44 17 90q20 54 55.5 100.5t65.5 75.5q31 29 64 55.5t68.5 48t75.5 33.5t83 12q57 0 99 -8t80 -16.5t78 -16.5t91 -8h29q55 0 95 6q50 8 79 19q35 10 55 26l11 -18q-18 -23 -54 -41q-31 -16 -82 -27.5t-133 -11.5q-72 0 -118 6t-81.5 12.5 t-69.5 12.5t-81 6q-53 0 -95 -12.5t-71 -26.5q-35 -18 -59 -39q20 6 47 12q23 4 56.5 9.5t78.5 5.5q39 0 77 -9.5t78 -21.5t82 -21.5t87 -9.5q49 0 88 6t67 15q33 8 58 22l6 -16q-20 -14 -51 -23q-27 -8 -69 -14t-99 -6q-47 0 -92.5 9t-87.5 21.5t-79.5 21.5t-70.5 9 q-59 0 -101 -8t-67 -18q-31 -12 -47 -27q-16 -39 -23 -76q-4 -20 -3 -41q0 -14 1 -28q4 -36 27 -72q29 -41 63.5 -48t63.5 -1q35 8 69 30l15 -10q-41 -37 -86 -51q-28 -8 -59 -8q-13 0 -26 1q-46 5 -87 54q-23 27 -26 64q-1 16 -1 31q0 20 2 40q6 39 21 84q-45 -55 -68 -108 q-22 -52 -22 -104q0 -50 41 -89q43 -43 88 -46q8 -1 16 -1q36 0 66 12q43 16 86 50l14 -13q-43 -35 -92 -51q-34 -12 -75 -12q-9 0 -17 1q-52 3 -99 46q-47 41 -51 94zM4 209q-2 21 -2 42q0 65 24 125q32 79 89 146q23 27 64.5 60.5t89.5 53.5q40 17 81 18q8 0 16 -1 q50 -4 87 -49q26 -35 26 -71q-1 -6 -1 -13q-6 -43 -23 -80q-23 -43 -62 -84l-8 19q27 31 41 65q10 29 10 66t-33 72q-27 27 -61 27q-2 -1 -6 -1q-38 -2 -78 -16q-45 -18 -92 -49q33 8 67 10q29 0 60 -7t53 -36q23 -31 26 -60.5t-3 -54.5q-8 -29 -25 -53l-10 12q12 25 18 47 q4 20 2 45t-18 50q-23 31 -55.5 37t-63.5 1q-37 -6 -76 -20q-16 -65 -17 -126q0 -7 1 -13q0 -29 6 -60.5t18.5 -61.5t34 -56.5t54.5 -47.5q44 -29 92 -28q1 -1 2 -1q49 0 92 15q49 14 98 45q-2 -4 8.5 12.5t22.5 70.5t23.5 155.5t11.5 267.5v408q0 49 14 88q8 20 16 36 l13 -10q-8 -10 -15 -28q-4 -16 -8 -39t-4 -52v-399q0 -111 -2 -187.5t-5 -129t-7 -82t-6 -43.5q23 39 41 98q16 51 28.5 130t12.5 192v444q0 35 9 65.5t21 53.5q14 27 33 49l16 -19q-6 -14 -10 -36q-4 -18 -6 -49t-2 -72v-469q0 -78 -18 -160q-16 -70 -53.5 -151.5 t-108.5 -155.5q-80 -84 -141.5 -122t-139.5 -42h-18q-28 0 -60 4q-43 6 -80.5 28.5t-66.5 64.5t-37 112zM20 254q0 -57 21 -111.5t74 -91.5q70 -37 129 -36h14q66 5 113 28q55 27 100 74q-39 -23 -84 -31q-32 -8 -71 -8h-16q-48 2 -97 24q-33 14 -54.5 38t-35 51.5 t-19.5 59.5t-8 62q-2 19 -2 39q0 53 12 113q-23 -27 -39 -59q-14 -29 -25.5 -67t-11.5 -85z" />
<glyph unicode="U" horiz-adv-x="1519" d="M1 975q1 41 14.5 82t31.5 78q43 86 119 174q63 82 131 133q29 20 62.5 37.5t69.5 23.5q17 3 34 3q20 0 40 -4q38 -7 77 -32q45 -31 69.5 -89t36.5 -115q14 -68 16 -144v-735q0 -115 18.5 -167t41.5 -70q25 -23 59 -11l318 336v885l16 16v-1108q0 -80 10.5 -131 t26.5 -78.5t37.5 -37t44.5 -5.5q53 8 121 72q-51 0 -90 25q-35 23 -61.5 70.5t-26.5 146.5v1112l61 63v-1075q0 -78 7 -132t19.5 -88t29 -50.5t32.5 -22.5q10 -4 21 -4q30 0 67 27l86 90l19 -21l-101 -106q-20 -25 -52 -52.5t-67.5 -46t-70.5 -23.5q-7 -1 -13 -1 q-27 0 -51 16q-28 20 -46.5 71.5t-18.5 143.5v207l-301 -319q-40 -53 -88 -88q-44 -31 -80 -31h-8q-40 4 -69.5 56.5t-29.5 174.5v762q0 72 -8 137q-6 55 -20.5 110.5t-40.5 84.5q-20 23 -45 34t-49.5 14t-50 -1t-48.5 -12q-53 -18 -108 -55q-35 -55 -50 -115q-9 -38 -9 -85 q0 -15 1 -31q4 -66 51 -134q33 -48 71 -64q34 -15 64 -14h7q37 0 75 19l62 77l14 -8q-68 -102 -137 -157q-31 -25 -65.5 -40.5t-71.5 -16.5h-4q-35 0 -71 18q-38 18 -77 63q-31 37 -42 77q-10 37 -10 74v7zM21.5 942q3.5 -29 14.5 -57.5t34 -55.5q51 -59 101 -67 q18 -3 35 -3q30 0 56 9q47 16 92 57q-33 -6 -64 -6h-16q-35 2 -71.5 15.5t-65.5 50.5q-37 45 -48 95t-11 91q0 49 14 94q-39 -57 -57 -114q-8 -25 -12.5 -52.5t-1 -56.5zM258 1376q43 18 86 23q10 1 20 1q29 0 61 -8q44 -12 85 -53q27 -29 41 -85t20 -115q8 -68 9 -146v-725 q0 -80 8 -131t22.5 -78.5t33 -37t38.5 -5.5q45 8 104 72q-8 -1 -16 -1q-31 0 -57 19q-29 20 -50.5 76t-21.5 170v682q-2 88 -10 164q-8 66 -23.5 128.5t-44.5 90.5q-57 51 -111.5 51t-97.5 -20q-51 -25 -96 -72z" />
<glyph unicode="V" horiz-adv-x="1251" d="M7 1109q13 71 45 137.5t65 105.5q49 59 118.5 106t165.5 47q102 0 166 -47q65 -47 87 -128q13 -46 12 -100q0 -44 -8 -92q-18 -110 -74 -235q-18 -43 -32 -131q-8 -53 -7 -111q0 -39 3 -79q9 -102 48 -200.5t125 -162.5q57 -43 113 -47q9 -1 18 0q46 0 86 18 q47 22 83 61.5t54 82.5l74 155q14 33 24.5 96.5t12.5 143.5v28q0 67 -8 141q-10 89 -35 175t-71 161t-116 126l11 12q51 -37 89 -87t64.5 -107.5t44 -117t27.5 -116.5q18 -102 17 -211q0 -33 -1 -67q27 134 27 258q0 30 -2 59q-4 63 -15.5 131t-36 131.5t-64.5 117.5 t-101 93l35 49q63 -29 113 -89t81 -146t40 -194q3 -36 3 -73q0 -75 -12 -157q-20 -123 -60 -270.5t-103.5 -275.5t-148.5 -214t-194 -86q-68 0 -134.5 37t-115.5 105q-50 67 -74 164q-15 59 -14 127q0 45 6 93q8 66 26.5 130.5t39.5 117.5q23 61 49 119q35 82 35 171 t-30 162.5t-87 121t-135 47.5q-82 0 -129 -30t-69.5 -69t-28 -74.5t-5.5 -47.5q0 -29 11.5 -59t32 -56.5t50 -43t68.5 -16.5q55 0 90 15.5t56 36.5q23 23 34 51l23 -15q-49 -88 -111 -145q-27 -25 -58 -45q-30 -19 -64 -31q-27 -9 -58 -10q-8 0 -16 1q-39 3 -80 26 q-60 31 -74 93q-8 33 -7 68q0 31 6 65zM17 1052.5q-3 -30.5 4.5 -59t24.5 -53.5t48 -43q38 -24 77 -24q15 -1 29 3q52 12 93 39q49 31 92 80q-27 -23 -61 -30q-28 -10 -67 -10q-2 1 -4 1q-42 0 -91 23q-55 23 -74.5 69t-21.5 93v12q0 48 14 102q-41 -76 -55 -143 q-5 -29 -8 -59.5zM182 1382q31 12 68 21q30 6 70 7h8q36 0 75 -9q37 -10 76 -39t69 -75q30 -47 46 -109q11 -42 11 -89q0 -24 -3 -49q22 73 22 138q0 16 -2 31q-6 79 -36.5 138.5t-79.5 94.5t-111 35q-45 0 -84 -15.5t-67 -31.5q-35 -23 -62 -48zM453 430q0 -51 10 -105.5 t32.5 -104.5t64 -96t102.5 -79q42 -23 80 -28q14 -2 27 -2q23 -1 45 5q34 8 63.5 25.5t54.5 40.5q57 51 104 131q-39 -47 -88 -74q-40 -23 -100 -29q-8 -1 -16 0q-53 0 -117 33q-96 51 -143.5 140.5t-65.5 177.5q-18 81 -18 169q0 23 1 46q-36 -122 -36 -233v-17z" />
<glyph unicode="W" horiz-adv-x="1921" d="M7 1109q13 71 45 137.5t65 105.5q49 59 118.5 106t165.5 47q102 0 166 -47q65 -47 87 -128q13 -46 12 -100q0 -44 -8 -92q-18 -110 -74 -235q-18 -43 -32 -131q-8 -53 -7 -111q0 -39 3 -79q9 -102 48 -200.5t125 -162.5q53 -39 103 -42h13q42 1 78 17q41 20 74 57.5 t51 80.5l64 157v799l16 12v-794q0 -68 13.5 -137.5t39 -132t65.5 -112.5t93 -79q41 -23 80 -28q14 -2 28 -2q23 -1 45 5q34 8 63.5 25.5t54.5 40.5q57 51 104 131q-39 -47 -90 -72q-44 -23 -102 -29q-8 -1 -15 0q-52 0 -115 31q-43 20 -73.5 55.5t-52 76t-36 87t-22.5 91.5 q-18 95 -18 201v22v688l61 66v-764q0 -70 2 -133.5t16.5 -120t44 -105.5t85.5 -92q57 -43 113 -47q9 -1 17 0q46 0 85 18q47 22 83.5 61.5t55.5 82.5l74 155q14 33 24 97q11 63 13 143q1 17 0 34q0 65 -8 135q-10 89 -35 175t-71 161t-116 126l10 12q51 -37 89 -87 t65 -107.5t44 -117t28 -116.5q18 -102 18 -211q0 -33 -2 -67q27 134 27 258q0 30 -2 59q-4 63 -15.5 131t-36 131.5t-64.5 117.5t-101 93l34 49q63 -29 113.5 -89t81.5 -146t40 -194q3 -36 3 -73q0 -75 -12 -157q-20 -123 -60.5 -270.5t-104 -275.5t-148.5 -214t-193 -86 q-72 0 -132.5 41t-106.5 105.5t-71.5 144.5t-25.5 158q-33 -90 -69 -171t-79 -142.5t-94 -98.5t-112 -37q-68 0 -130.5 37t-108.5 105q-45 67 -67 164q-12 56 -13 120q0 48 7 100q8 66 26.5 130.5t39.5 117.5q23 61 49 119q35 82 35 171t-30 162.5t-87 121t-135 47.5 q-82 0 -129 -30t-69.5 -69t-28 -74.5t-5.5 -47.5q0 -29 11.5 -59t32 -56.5t50 -43t68.5 -16.5q55 0 90 15.5t56 36.5q23 23 34 51l23 -15q-49 -88 -111 -145q-27 -25 -58 -45q-30 -19 -64 -31q-27 -9 -58 -10q-8 0 -16 1q-39 3 -80 26q-60 31 -74 93q-8 33 -7 68q0 31 6 65z M17 1052.5q-3 -30.5 4.5 -59t24.5 -53.5t48 -43q38 -24 77 -24q15 -1 29 3q52 12 93 39q49 31 92 80q-27 -23 -61 -30q-28 -10 -67 -10q-2 1 -4 1q-42 0 -91 23q-55 23 -74.5 69t-21.5 93v12q0 48 14 102q-41 -76 -55 -143q-5 -29 -8 -59.5zM182 1382q31 12 68 21q30 6 70 7 h8q36 0 75 -9q37 -10 76 -39t69 -75q30 -47 46 -109q11 -42 11 -89q0 -24 -3 -49q22 73 22 138q0 16 -2 31q-6 79 -36.5 138.5t-79.5 94.5t-111 35q-45 0 -84 -15.5t-67 -31.5q-35 -23 -62 -48zM455 432q0 -51 9 -104.5t30.5 -104.5t58.5 -97t94 -81q50 -31 94 -31 q19 0 35 6q58 18 101 54q51 43 92 112q-29 -35 -66 -53q-33 -16 -80 -18h-5q-45 0 -103 32q-96 51 -143.5 140.5t-65.5 177.5q-18 81 -18 169q0 23 1 46q-34 -119 -34 -230v-18z" />
<glyph unicode="X" horiz-adv-x="1374" d="M1 973q1 41 14.5 82t31.5 78q43 86 119 174q63 82 131 133q29 20 62.5 37.5t69.5 23.5q17 3 34 3q20 0 40 -4q38 -7 77 -32q74 -49 117.5 -125.5t66.5 -148.5q27 -84 35 -178q29 135 75 244q20 45 46 90t58 78.5t70.5 55t84.5 21.5q57 0 96 -17.5t65 -39.5q29 -25 49 -55 l-47 -41q-49 78 -101 93q-31 9 -58 9q-18 0 -35 -4q-49 -12 -94 -55q34 9 65 9q10 0 21 -1q35 -4 71.5 -22.5t63.5 -71.5l-17 -15q-23 53 -59.5 72.5t-71.5 22.5h-9q-37 0 -79 -15q-39 -23 -69 -84q-28 -54 -48 -150q-17 -81 -17 -209q0 -25 1 -52q2 -168 23.5 -288 t53.5 -202t73 -131t82 -74q62 -37 131 -37q41 0 86 13l86 90l18 -21l-100 -106q-31 -35 -68 -62q-31 -23 -68.5 -42t-78.5 -19q-66 0 -116 22.5t-87 58.5t-62.5 83t-44.5 96q-41 115 -51 262q-57 -145 -133 -258q-33 -49 -72.5 -95t-87 -83t-100.5 -60.5t-113 -25.5h-9 q-42 0 -68 16q-30 18 -50 39q-23 25 -36 58l14 12q27 -51 60 -75q32 -26 68 -32q15 -3 29 -2q21 0 43 6q36 10 68 27q78 41 160 127q-68 -39 -131 -53q-26 -6 -54.5 -6t-58.5 6q-60 12 -102 78l45 41q23 -29 50.5 -44.5t56 -19.5t58 0t56.5 12q63 20 129 66q43 41 76 117 q29 66 49 175q14 76 15 181q0 46 -3 98q-6 115 -32.5 203t-57.5 147.5t-56 90.5l-24 30q-33 33 -64.5 49.5t-60 22.5t-56.5 4t-50 -10q-53 -18 -102 -61q-35 -55 -50 -115q-9 -38 -9 -85q0 -15 1 -31q4 -66 51 -134q33 -48 71 -64q34 -15 64 -14h7q37 0 75 19l62 77l14 -8 q-68 -102 -137 -157q-31 -25 -65.5 -40.5t-71.5 -16.5h-4q-35 0 -71 18q-38 18 -77 63q-31 37 -42 77q-10 37 -10 74v7zM21.5 940q3.5 -29 14.5 -57.5t34 -55.5q51 -59 101 -67q18 -3 35 -3q30 0 56 9q47 16 92 57q-33 -6 -64 -6h-16q-35 2 -71.5 15.5t-65.5 50.5 q-37 45 -48 95t-11 91q0 49 14 94q-39 -57 -57 -114q-8 -25 -12.5 -52.5t-1 -56.5zM258 1374q43 20 92 23h9q39 1 83 -15q50 -18 101 -71q45 -47 75.5 -103.5t51 -117t32 -123t17.5 -119.5q6 -63 6 -128q0 -75 -8 -151q43 147 47 297q0 63 -7 134t-29.5 141.5t-63 140.5 t-101.5 133q-57 51 -111.5 51t-97.5 -20q-51 -25 -96 -72zM758 573q6 -156 43 -278q16 -53 40.5 -102.5t60.5 -89.5t84.5 -63.5t111.5 -23.5q29 0 59.5 15.5t56.5 34.5q31 23 60 51q-29 -14 -66 -17q-10 -1 -21 -1q-23 -1 -53 5q-44 8 -100 37q-51 27 -89 82.5t-63.5 127 t-41 150.5t-24.5 150.5t-11 130t-2 86.5q-4 -55 -9.5 -96t-10.5 -72.5t-11 -61.5t-14 -65z" />
<glyph unicode="Y" horiz-adv-x="1355" d="M1 975q1 41 14.5 82t31.5 78q43 86 119 174q63 82 131 133q29 20 62.5 37.5t69.5 23.5q17 3 34 3q20 0 40 -4q38 -7 77 -32q45 -31 69.5 -89t36.5 -115q14 -68 16 -144v-116q0 -115 18.5 -167.5t41.5 -68.5q17 -12 36 -12q12 0 25 4l193 203v137q-2 27 -2 51q0 29 3 53 q5 43 17.5 77t30.5 60.5t43 55.5q47 49 94 76q41 23 84 29q7 1 13 1q35 0 65 -30q25 -28 25 -62q0 -11 -3 -23q-10 -47 -32 -90q-29 -51 -74 -100l-125 -131v-414q0 -92 -5 -147t-24.5 -98t-57.5 -88.5t-101 -116.5q-27 -29 -61 -64t-72.5 -65.5t-80.5 -52t-85 -23.5h-6 q-40 0 -79 22q-42 25 -79 84l14 15q27 -45 55.5 -68.5t56 -31t55.5 -3t52 14.5q55 25 111 88q-35 -11 -70 -11l-20 1q-39 4 -81 23.5t-77 74.5l47 45q35 -53 82 -70q42 -14 79 -14h9q49 2 101 20q25 27 43 53.5t31.5 62.5t19.5 87q4 38 4 89v36v404l-170 -181 q-53 -55 -104 -91q-46 -33 -83 -33q-3 0 -7 1q-40 3 -64.5 56t-24.5 176v143q0 72 -8 137q-6 55 -20.5 110.5t-40.5 84.5q-20 23 -45 34t-49.5 14t-50 -1t-48.5 -12q-53 -18 -108 -55q-35 -55 -50 -115q-9 -38 -9 -85q0 -15 1 -31q4 -66 51 -134q33 -47 71 -64 q34 -14 64 -14h7q37 0 75 19l62 77l14 -8q-68 -102 -137 -157q-31 -25 -65.5 -40.5t-71.5 -16.5h-4q-35 0 -71 18q-38 18 -77 63q-31 37 -42 77q-10 37 -10 74v7zM21.5 942q3.5 -29 14.5 -57.5t34 -55.5q51 -59 101 -67q18 -3 35 -3q30 0 56 9q47 16 92 57q-33 -6 -64 -6 h-16q-35 2 -71.5 15.5t-65.5 50.5q-37 45 -48 95t-11 91q0 49 14 94q-39 -57 -57 -114q-8 -25 -12.5 -52.5t-1 -56.5zM258 1376q43 18 86 23q10 1 20 1q28 0 61 -8q44 -12 85 -53q27 -29 41 -85t20 -115q8 -68 9 -146v-106q0 -80 8 -131t22.5 -79t33 -37t38.5 -5 q45 8 104 72q-8 -1 -16 -1q-31 0 -57 19q-29 20 -50.5 75.5t-21.5 170.5v63q-2 88 -10 164q-8 66 -23.5 128.5t-44.5 90.5q-57 51 -111.5 51t-97.5 -20q-51 -25 -96 -72zM1016 311q23 23 41 64q16 35 27 93q10 49 10 121v25v566q0 51 4 89t8 62q6 29 14 47q-23 -20 -43 -51 q-16 -27 -30.5 -68.5t-14.5 -101.5v-635q1 -33 1 -59.5t-1 -46.5q-2 -41 -6 -64q-4 -27 -10 -41zM1155 1112l70 74q18 41 28 78q10 31 12.5 63.5t-12.5 52.5q-10 14 -24.5 20.5t-26.5 8.5q-14 2 -28 -2q-6 -8 -11 -29q-4 -16 -7 -44q-2 -18 -2 -41q0 -15 1 -33v-148z M1192 1430q12 2 27 -3q10 -4 24 -11t25 -21q16 -23 17 -52.5t-5 -58.5q-8 -33 -23 -65q33 43 56 81q18 35 27 71q2 10 2 19q0 24 -17 44q-20 23 -42.5 24.5t-43.5 -4.5q-22 -8 -47 -24z" />
<glyph unicode="Z" horiz-adv-x="858" d="M2 274q4 41 14 78q23 88 82 180q59 82 125 130q27 20 58.5 34.5t63.5 16.5q4 0 8 1q27 0 57 -12q34 -14 65 -47q20 -23 26.5 -46t4.5 -48.5t-12.5 -51.5t-24.5 -48q-33 -53 -88 -109l-12 13q14 37 18 73q1 10 1 19q0 22 -6 46q-9 34 -42 58q-31 22 -66 22h-8 q-39 -3 -69 -20q-37 -18 -72 -47q-19 -56 -19 -111v-6q2 -49 26 -102t91 -92q76 -43 143.5 -43t118.5 18q59 23 109 64q31 39 52 95q22 55 30 119q4 32 4 64t-4 64q-8 64 -35 116q-47 90 -111.5 123t-121.5 35h-9q-64 0 -129 -26l-6 18q69 27 135 27h9q59 -2 126.5 -35 t120.5 -125q29 -51 39.5 -109.5t10.5 -109.5q0 -59 -9 -121q33 47 56 102q18 47 25 111q2 17 2 35q0 50 -15 106q-31 111 -96.5 158t-130.5 57q-29 4 -60 4q-51 0 -106 -12l-64 -55l-12 18l197 184q25 23 38 52q12 25 16 57q1 7 1 15q0 27 -12 59q-16 39 -51 53t-73 15h-11 q-32 0 -62 -5q-35 -6 -47 -10q-53 -17 -108 -17q-25 0 -51 4q-81 12 -116 56l17 12q41 -41 107 -52q21 -3 43 -3q47 0 98 16q18 5 53 13q31 7 66 7h9q40 -1 77.5 -17.5t62.5 -55.5q12 -20 16 -38.5t6 -35.5q0 -18 -2 -34q27 27 41 61q14 33 14 70q0 36 -28 77q-35 50 -87 56 q-18 2 -36 2q-35 0 -71 -8q-56 -12 -106 -32t-81 -20q-49 0 -79 10.5t-46 24.5q-20 16 -27 37l31 31l5 -7q5 -7 19.5 -14.5t40 -13.5t66.5 -6q29 0 60.5 10t66.5 21.5t72 20.5q33 8 65 8h7q36 -1 70 -17t65 -55q41 -53 41 -106.5t-19 -94.5q-23 -49 -63 -94l-172 -160 q76 25 143 24q22 0 43 -2q37 -4 72 -19t65.5 -45t53 -77t32.5 -117q4 -33 4 -64q0 -60 -15 -116q-23 -84 -60 -151.5t-78.5 -115.5t-61.5 -75q-80 -96 -165 -153q-37 -25 -79 -43.5t-88 -23.5q-14 -2 -29 -2q-33 0 -65 8q-48 11 -94 46q-41 31 -62.5 67t-28.5 74 q-4 24 -4 51q0 14 1 29zM19 248q-1 -30 9 -60q10 -32 31 -62.5t56 -57.5q37 -28 73 -40q34 -11 67 -12q3 0 6 1q36 1 68.5 11.5t61.5 26.5q68 37 127 103q-45 -23 -98 -33q-35 -8 -77 -8q-13 0 -25 1q-58 3 -117 32q-66 29 -92.5 80t-36.5 98q-6 31 -6 64q0 26 4 54 q-37 -68 -47 -135q-4 -32 -4 -63zM176 592q31 12 64 14q29 2 62.5 -6t64.5 -35q20 -18 28 -41.5t13 -46.5q4 -25 0 -51q29 43 43 82q10 30 10 60v10q-2 36 -35 65q-32 27 -69 27q-6 0 -12 -1q-44 -5 -81 -22q-45 -20 -88 -55z" />
<glyph unicode="[" horiz-adv-x="573" d="M82 -512v1894h78v123h332v-61h-271v-62h207v-16h-207v-1739h271v-61h-332v1800h-62v-1862h330v-16h-346z" />
<glyph unicode="\" horiz-adv-x="1005" d="M0 977l113 88l718 -936l89 70l36 -49l-88 -70l39 -49l88 69l11 -12l-115 -88l-84 111l-633 823l-90 -68l-10 15l90 67l-37 49l-90 -69z" />
<glyph unicode="]" horiz-adv-x="573" d="M82 -496h270v62h-209v61h209v1739h-270v16h287v-1755h61v1817h-287v61h349v-1939h-123v-78h-287v16z" />
<glyph unicode="_" horiz-adv-x="1085" d="M164 -78l131 139h688l-59 -61h-666l-55 -61h663l-14 -17h-688z" />
<glyph unicode="`" horiz-adv-x="524" d="M102 1407l11 12l264 -260l-12 -12zM158 1462l43 43l262 -260l-43 -43z" />
<glyph unicode="a" horiz-adv-x="968" d="M0 227l178 189q53 66 117 119q53 45 122.5 82.5t145.5 37.5q49 0 82 -17t55 -38q23 -25 39 -55l-43 -41q-12 29 -32 51q-16 20 -44 36.5t-69 16.5t-79 -10t-66 -23q-35 -14 -66 -30q10 4 29 8q14 4 36.5 6t51.5 2q43 0 71.5 -11t46.5 -26q23 -16 35 -37l-20 -18 q-10 20 -29 37q-16 14 -39.5 26.5t-58.5 12.5q-72 0 -112 -17.5t-54 -33.5q-16 -18 -29.5 -53t-20.5 -75q-5 -28 -5 -56q0 -12 1 -25q3 -41 23 -72q40 -61 90 -79q45 -17 86 -17h9q53 2 106 26q23 23 41 45.5t37 44.5v136l16 14v-285q0 -10 2 -23.5t9.5 -26.5t22.5 -22.5 t40 -9.5q18 0 33.5 5.5t25.5 13.5q12 8 21 20q-10 -4 -19 -4q-20 -4 -36 10q-37 25 -37 95v268l61 47v-293q0 -10 1 -24.5t4 -27.5t11.5 -21.5t22.5 -8.5q10 0 23.5 6.5t23.5 14.5q12 8 23 20l106 113l19 -21q-33 -35 -60 -63q-23 -25 -46 -50.5t-34 -35.5 q-23 -23 -55.5 -51.5t-87.5 -28.5t-72.5 28.5t-17.5 69.5v101q-16 -20 -33 -43q-16 -18 -33.5 -38t-38.5 -34q-55 -43 -112 -66q-50 -18 -108 -19h-2q-57 0 -111 44q-53 49 -65 103q-9 41 -10 77q0 12 1 23q6 53 31 104l-136 -143zM147 166q9 -60 70 -113q40 -36 87 -36h7 q51 3 95 20q51 20 102 57q-39 -14 -78 -18q-13 -1 -27 -1q-24 0 -51 4q-43 7 -86 36q-41 27 -55 74t-16 94v15q0 46 10 97q-41 -59 -55 -119q-7 -29 -7 -61q0 -23 4 -49z" />
<glyph unicode="b" horiz-adv-x="864" d="M0 227l242 258v330q0 76 12 126t29 79q18 35 41 53l6 -12q-20 -18 -37 -53q-14 -29 -24.5 -77t-10.5 -118v-313l61 67v381q0 57 33 124t92 130q27 29 62 50q36 20 72 26q13 2 25 2q23 0 46 -7q35 -11 64 -44q27 -33 29 -74v-8q0 -37 -12 -74q-13 -41 -36.5 -82t-44.5 -73 q-29 -43 -74 -99.5t-88 -107.5q-51 -59 -106 -121v-299q0 -23 2 -49.5t8 -51t19.5 -46t35.5 -33.5q40 -20 79 -20q7 0 13 1q46 4 62 19q8 8 20.5 27.5t21.5 49t12 67.5q1 10 1 21q0 29 -6 60q-12 57 -32.5 87t-43.5 44q-25 16 -51 18l6 19q33 -4 62 -25q25 -16 46 -49 t32 -88q5 -38 5 -68q-1 -40 -9 -68q-16 -50 -19 -59q16 14 34.5 36t34 51.5t23.5 70.5q5 23 5 52q0 21 -3 46q-6 57 -23.5 88t-35.5 48q-23 18 -47 22l22 53q31 -10 58 -30q23 -16 44 -46t27 -77q7 -50 7 -87q0 -32 -5 -52q-10 -46 -12 -52q-6 -23 -29.5 -51.5t-53 -57 t-61.5 -55t-55 -45.5q-37 -29 -73.5 -45t-85.5 -16q-37 0 -69 8t-55.5 27.5t-36.5 52.5t-13 82v274l-224 -237zM258 170q0 -18 6 -45t22.5 -51.5t48.5 -41t83 -16.5q23 0 44 7.5t38 17.5q18 10 35 25q-29 -4 -54 -7q-23 -2 -45.5 1.5t-38.5 17.5q-29 25 -52 64.5t-26 93.5 v288l-61 -65v-289zM381 631l168 221q23 31 35 70q10 35 15 80q1 11 1 22q0 37 -12 82q-16 35 -39 49t-45 19q-25 6 -53 0q-20 -16 -35 -41q-14 -23 -24.5 -54.5t-10.5 -79.5v-368zM481 1202q20 -2 43 -10q18 -8 39 -24.5t37 -45.5q16 -30 20 -66q2 -19 3 -36q0 -15 -2 -29 q-4 -35 -13 -67q39 49 62 98q18 41 24 88q1 8 2 15q0 38 -28 71q-33 39 -66 44t-59 -3q-33 -10 -62 -35z" />
<glyph unicode="c" horiz-adv-x="638" d="M0 227l178 189q29 31 62 63q29 29 64.5 59.5t74.5 57.5q27 18 64.5 35.5t77.5 21.5q9 1 19 1q30 0 59 -10q38 -13 63 -52l-54 -41q-23 57 -82 57q-50 0 -127 -41q18 6 41 6q18 0 39 -5t39 -19q16 -16 21 -31q2 -8 0 -14l-19 -17q0 12 -4 23q-4 10 -8 18.5t-12 12.5 q-30 12 -56 12q-10 0 -20 -2q-35 -6 -64 -19q-32 -13 -59 -38q-16 -18 -29.5 -53t-20.5 -75q-5 -28 -5 -56q0 -12 1 -25q3 -41 23 -72q40 -61 90 -79q45 -17 86 -18q4 0 9 1q53 2 106 26l102 107l19 -21q-35 -39 -66 -71q-27 -29 -52 -54.5t-38 -35.5q-55 -35 -110 -54 q-42 -14 -92 -14h-12q-58 2 -111 43q-53 49 -65 103q-9 41 -10 77q0 12 1 23q6 53 31 104l-136 -143zM147 166q9 -60 70 -113q40 -36 89 -36h8q54 3 100 20q53 20 110 59q-43 -14 -86 -18q-15 -2 -31 -2q-24 0 -52 4q-46 6 -89 35q-41 27 -55 74t-16 94v15q0 46 10 97 q-41 -59 -55 -119q-7 -29 -7 -61q0 -23 4 -49z" />
<glyph unicode="d" horiz-adv-x="989" d="M0 227l178 189q37 39 74 81t78 76.5t90 58t108 23.5q74 0 110 -34.5t52 -75.5v622l17 13v-1069q0 -89 52 -93q2 0 4 -1q50 0 114 81q-33 -8 -56 0q-20 6 -36.5 25.5t-16.5 64.5v1047l61 45v-1030q0 -61 8.5 -91t20.5 -37t28.5 3t33.5 29l90 96l18 -21q-33 -35 -59 -63 q-23 -25 -46.5 -50.5t-33.5 -35.5q-47 -50 -84 -68q-25 -12 -45 -13q-10 0 -18 3q-26 8 -39 38t-13 71v225q-39 -55 -76 -105q-31 -41 -60.5 -79.5t-45.5 -55.5q-16 -18 -33.5 -34.5t-39 -31t-48.5 -22.5t-63 -8q-63 2 -109.5 21.5t-79.5 60.5q-31 44 -36 108q-1 9 -1 17 q0 56 27 112l-107 -112zM117 173q4 -50 49 -95q37 -39 80 -50.5t80 -11.5q25 0 46 8.5t38 18.5q20 10 36 27q-32 -9 -64 -9h-7q-31 2 -69 16.5t-70 51.5q-33 35 -44.5 77t-15.5 77q-2 16 -2 33q0 25 4 49q-35 -47 -51 -99q-11 -33 -11 -71q0 -11 1 -22zM221 319 q0 -43 13.5 -81.5t38 -67.5t58.5 -47.5t75 -18.5q49 0 83.5 17.5t57 47.5t34 67.5t13.5 76.5v12q0 196 -197 205h-10q-41 0 -71 -14q-34 -16 -55 -46t-30.5 -69t-9.5 -82zM350 547q20 2 39 2t37 -2q33 -4 69.5 -17.5t65.5 -44.5q29 -29 39 -66.5t14 -72.5q2 -16 1 -32 q0 -24 -3 -50q33 57 45 113q6 29 6 62q0 21 -2 41q-6 56 -53 102q-37 36 -80 36h-3q-44 -2 -83 -18q-45 -18 -92 -53z" />
<glyph unicode="e" horiz-adv-x="608" d="M0 227l307 328q79 85 147 97q16 3 30 3q48 0 79 -32q18 -18 20.5 -47t-6 -59t-21.5 -57.5t-28 -41.5l-219 -246q8 -12 23 -20q12 -8 31.5 -16.5t50.5 -12.5q13 -2 25 -2q29 0 55 10q36 14 63 43l72 76l18 -21l-121 -129q-12 -12 -31.5 -29.5t-44 -32.5t-54 -26.5 t-62.5 -11.5q-84 0 -127 35t-64 110q-6 27 -6 55q0 18 2 34q6 46 19 79q14 41 37 80l-177 -186zM165 157q5 -50 40 -85q49 -54 98 -56h11q42 0 77 17q45 23 88 65q-37 -14 -73 -16h-10q-29 0 -62 10q-39 12 -80 51q-29 25 -38 63t-13 73q-2 16 -2 33q0 26 4 53 q-27 -57 -35 -111q-7 -31 -6 -64q-1 -16 1 -33zM253 354.5q-1 -24.5 1 -47.5q2 -47 20 -82q8 -18 19 -32l143 157q12 31 21 60q6 25 4 53.5t-19 52.5q-18 23 -44.5 19.5t-51.5 -15.5q-29 -14 -61 -41l-25 -35q-2 -23 -4 -45q-2 -20 -3 -44.5zM330 541q20 12 43 16 q18 4 40.5 0t41.5 -25q12 -14 18 -34.5t8 -42.5q2 -25 0 -52q27 33 39 68q12 34 12 67t-28 62q-23 23 -51.5 15.5t-57.5 -23.5q-33 -20 -65 -51z" />
<glyph unicode="f" horiz-adv-x="526" d="M-156 -598q25 113 131 231q53 59 108.5 119t100.5 109q53 57 103 110v408v52.5t-5.5 28.5t-18.5 -1t-40 -35l-205 -217l-18 20l287 305v390q0 47 21.5 90t47.5 75q31 37 68 70q27 35 57 62q27 23 57.5 42t61.5 19q29 0 54.5 -11.5t43.5 -25.5q23 -16 39 -35l-61 -32 q-10 18 -23 32q-10 12 -24.5 21.5t-32.5 11.5q-18 0 -35.5 -7t-30.5 -17q-16 -10 -28 -25q10 2 24 0q27 -4 62 -21q18 -10 26.5 -25.5t12.5 -29.5q4 -16 2 -35h-23q4 25 -4 45q-8 16 -28.5 30.5t-67.5 14.5q-35 0 -51.5 -27.5t-22.5 -64.5t-6 -73.5v-57.5v-272l102 110 q18 20 45 37t55.5 21t58.5 -10.5t54 -53.5l-41 -32q-23 53 -68 55h-4q-44 0 -93 -47q12 2 22 0t20.5 -5t20.5 -14q16 -23 18 -32q2 -8 2 -13l-18 -16q0 12 -2 22q-4 23 -18 31t-28.5 7t-27.5 -5l-28 -12l-70 -76v-524l121 131l18 -21q-33 -35 -59 -63q-23 -25 -46.5 -50.5 t-33.5 -35.5v-465q0 -49 -8 -83t-26.5 -66.5t-49.5 -68.5t-80 -87q-37 -41 -84 -75t-96 -50q-39 -13 -77 -13q-10 0 -19 1q-47 4 -86 41q-61 57 -61 136q0 25 5 52zM-138 -658q1 -55 48 -106q40 -44 88 -44h2q49 1 92 17q51 20 103 62q-33 -6 -64 -6h-16q-35 2 -71 10 t-60 33q-31 29 -41.5 69.5t-10.5 79.5q0 45 11 92q-41 -53 -64 -106q-17 -45 -17 -96v-5zM-20 -484q-4 -23 -4 -45.5t4 -44.5q6 -44 30 -71q25 -27 56.5 -43.5t62.5 -20.5t57.5 2.5t44.5 22.5t28.5 54t17 81t8.5 85t2 67v327l-250 -266q-18 -20 -34.5 -61t-22.5 -87z M283 -641q25 25 43 66q16 35 28 95q11 52 11 129v25v338l-62 -65v-320q0 -53 -3 -101t-7 -85zM303 -12l62 65v525l-62 -66v-524zM303 545l62 65v299q0 82 6 125q2 25 6 43q-20 -20 -37 -47q-14 -23 -25.5 -57.5t-11.5 -77.5v-350z" />
<glyph unicode="g" horiz-adv-x="874" d="M0 227l178 189q53 66 117 119q53 45 122.5 82.5t145.5 37.5q49 0 82 -17t55 -38q23 -25 39 -55l-43 -41q-12 29 -32 51q-16 20 -44 36.5t-69 16.5t-79 -10t-66 -23q-35 -14 -66 -30q10 4 29 8q14 4 36.5 6t51.5 2q43 0 71.5 -11t46.5 -26q23 -16 35 -37l-20 -18 q-12 20 -31 37q-16 14 -39.5 26.5t-56.5 12.5q-66 0 -109 -17.5t-57 -33.5q-16 -18 -29.5 -53t-20.5 -75q-5 -28 -5 -56q0 -13 1 -25q3 -41 23 -72q41 -61 90 -79q45 -17 86 -17h9q53 2 106 26l78 93v135l16 14v-397l62 65v371l61 47v-352l121 131l18 -21q-33 -35 -59 -63 q-23 -25 -46.5 -50.5t-33.5 -35.5v-465q0 -49 -8 -83t-26.5 -66.5t-49.5 -68.5t-80 -87q-37 -41 -84 -75t-96 -50q-39 -13 -77 -13q-10 0 -19 1q-47 4 -86 41q-61 57 -61 136q0 25 5 52q25 113 132 231q53 59 108 119t100 109q53 57 103 110v226q-16 -20 -33 -41 q-16 -16 -33.5 -37t-38.5 -35q-55 -43 -112 -66q-49 -18 -108 -19h-2q-57 0 -111 44q-53 51 -67 105q-12 41 -12 78q0 10 1 20q6 53 31 100l-132 -139zM140 172q10 -60 71 -115q46 -40 96 -40h2q51 1 97 18q53 20 102 59q-39 -14 -78 -18q-13 -1 -27 -1q-24 0 -51 4 q-43 7 -86 36q-41 27 -55 74t-16 94v15q0 46 10 97q-43 -57 -60 -114q-8 -29 -8 -62q0 -23 3 -47zM210 -658q1 -55 48 -106q40 -44 88 -44h2q49 1 92 17q51 20 103 62q-33 -6 -64 -6h-16q-35 2 -71 10t-60 33q-31 29 -41 69.5t-10 79.5q0 45 10 92q-41 -53 -64 -106 q-17 -45 -17 -96v-5zM328 -484q-3 -23 -3 -45.5t3 -44.5q6 -44 30 -71q25 -27 56.5 -43.5t62.5 -20.5t58 2.5t45 22.5t28 54t16.5 81t8.5 85t2 67v327l-250 -266q-18 -20 -34.5 -61t-22.5 -87zM631 -641q25 25 43 66q16 35 28 95q11 52 11 129v25v338l-62 -65v-320 q0 -53 -3 -101t-7 -85z" />
<glyph unicode="h" horiz-adv-x="993" d="M0 227l242 258v330q0 76 12 126t29 79q18 35 41 53l6 -12q-20 -18 -37 -53q-14 -29 -24.5 -77t-10.5 -118v-313l61 67v381q0 57 33 124t92 130q27 29 62 50q36 20 72 26q13 2 25 2q23 0 46 -7q35 -11 64 -44q27 -33 29 -74v-8q0 -37 -12 -74q-13 -41 -36.5 -82t-44.5 -73 q-29 -43 -74 -99.5t-88 -107.5q-51 -59 -106 -121v-279l268 287q27 31 58.5 45t59.5 11t47.5 -24.5t19.5 -62.5v-315q0 -61 8 -91t20 -38t28.5 2t33.5 29l90 96l18 -21q-33 -35 -59 -63q-23 -25 -46.5 -50.5t-33.5 -35.5q-47 -50 -84 -68q-25 -12 -45 -13q-10 0 -18 3 q-26 8 -39 38t-13 71v313q-4 51 -16 72.5t-27 27.5q-16 8 -35 -2l-235 -250v-159l-62 -62v473l-61 -65v-443l-16 -16v444l-224 -237zM381 631l168 221q23 31 35 70q10 35 15 80q1 11 1 22q0 37 -12 82q-16 35 -39 49t-45 19q-25 6 -53 0q-20 -16 -35 -41 q-14 -23 -24.5 -54.5t-10.5 -79.5v-368zM481 1202q20 -2 43 -10q18 -8 39 -24.5t37 -45.5q16 -30 20 -66q2 -19 3 -36q0 -15 -2 -29q-4 -35 -13 -67q39 49 62 98q18 41 24 88q1 8 2 15q0 38 -28 71q-33 39 -66 44t-59 -3q-33 -10 -62 -35zM641 549q20 0 35 -8 q12 -10 22.5 -31t12.5 -61v-263v-75q0 -89 52 -93q2 0 4 -1q50 0 114 81q-33 -8 -56 0q-20 6 -36.5 25.5t-16.5 64.5v295q0 63 -10 93t-28.5 33t-42 -14t-50.5 -46z" />
<glyph unicode="i" horiz-adv-x="585" d="M0 227l283 301q53 55 82.5 87t43 39.5t15.5 -12t2 -67.5v-323q0 -61 8 -91t20.5 -38t29 2t32.5 29l90 96l19 -21q-33 -35 -60 -63q-23 -25 -46 -50.5t-34 -35.5q-47 -50 -83 -68q-25 -12 -46 -13q-9 0 -17 3q-26 8 -39 38t-13 71v268v52.5t-5.5 28.5t-18.5 -1t-40 -35 l-205 -217zM266 829l10 13l84 -82l-12 -12zM303 111q1 -89 53 -93q2 0 4 -1q51 0 113 81q-33 -8 -55 0q-20 6 -36.5 25.5t-16.5 64.5v385l-62 -65v-397zM322 885l43 43l81 -82l-43 -43z" />
<glyph unicode="j" horiz-adv-x="526" d="M-156 -598q25 113 131 231q53 59 108.5 119t100.5 109q53 57 103 110v408v52.5t-5.5 28.5t-18.5 -1t-40 -35l-205 -217l-18 20l283 301q53 55 82.5 87t43 39.5t15.5 -12t2 -67.5v-456l121 131l18 -21q-33 -35 -59 -63q-23 -25 -46.5 -50.5t-33.5 -35.5v-465q0 -49 -8 -83 t-26.5 -66.5t-49.5 -68.5t-80 -87q-37 -41 -84 -75t-96 -50q-39 -13 -77 -13q-10 0 -19 1q-47 4 -86 41q-61 57 -61 136q0 25 5 52zM-138 -658q1 -55 48 -106q40 -44 88 -44h2q49 1 92 17q51 20 103 62q-33 -6 -64 -6h-16q-35 2 -71 10t-60 33q-31 29 -41.5 69.5t-10.5 79.5 q0 45 11 92q-41 -53 -64 -106q-17 -45 -17 -96v-5zM-20 -484q-4 -23 -4 -45.5t4 -44.5q6 -44 30 -71q25 -27 56.5 -43.5t62.5 -20.5t57.5 2.5t44.5 22.5t28.5 54t17 81t8.5 85t2 67v327l-250 -266q-18 -20 -34.5 -61t-22.5 -87zM266 829l10 13l84 -82l-12 -12zM283 -641 q25 25 43 66q16 35 28 95q11 52 11 129v25v338l-62 -65v-320q0 -53 -3 -101t-7 -85zM303 -12l62 65v520l-62 -65v-520zM322 885l43 43l81 -82l-43 -43z" />
<glyph unicode="k" horiz-adv-x="888" d="M0 227l242 258v330q0 76 12 126t29 79q18 35 41 53l6 -12q-20 -18 -37 -53q-14 -29 -24.5 -77t-10.5 -118v-313l61 67v381q0 57 33 124t92 130q27 29 62 50q36 20 72 26q13 2 25 2q23 0 46 -7q35 -11 64 -44q27 -33 29 -74v-8q0 -37 -12 -74q-13 -41 -36.5 -82t-44.5 -73 q-29 -43 -74 -99.5t-88 -107.5q-51 -59 -106 -121v-219l213 227q18 20 45 36.5t55.5 20.5t58 -10t54.5 -53l-41 -33q-23 53 -69 55h-4q-44 0 -93 -47q12 2 23 0q10 -2 20 -5t21 -13q16 -23 18 -33q2 -8 2 -12l-18 -17q0 12 -2 23q-4 23 -19 31q-14 8 -28.5 7t-26.5 -5 q-14 -6 -29 -13l-180 -194v-223l-62 -62v473l-61 -65v-443l-16 -16v444l-224 -237zM381 631l168 221q23 31 35 70q10 35 15 80q1 11 1 22q0 37 -12 82q-16 35 -39 49t-45 19q-25 6 -53 0q-20 -16 -35 -41q-14 -23 -24.5 -54.5t-10.5 -79.5v-368zM434 254q27 10 51 14 q23 2 45.5 -4t38.5 -33q12 -18 13.5 -42.5t1.5 -49t2 -48t18 -42.5q27 -30 55 -30l19 3q37 14 96 76q-27 -10 -49 -12q-20 -2 -40.5 4t-31.5 33q-8 18 -8 45t1 54.5t-3 53t-22 39.5q-23 16 -44.5 21.5t-37.5 3.5q-20 -2 -39 -12l-8 20q29 18 57 27q25 6 55.5 3t59.5 -30 q27 -25 35 -53.5t9 -56t1 -51t12 -35.5q14 -16 30.5 -17.5t32.5 2.5q18 6 35 17l90 96l19 -21q-33 -35 -62 -65q-25 -27 -49 -53.5t-35 -36.5q-48 -54 -106 -70q-14 -4 -26 -4q-40 0 -68 37q-12 14 -13.5 39.5t-1.5 52.5t-2 51.5t-14 40.5q-16 20 -35.5 25.5t-36.5 3.5 q-20 -2 -39 -12zM481 1202q20 -2 43 -10q18 -8 39 -24.5t37 -45.5q16 -30 20 -66q2 -19 3 -36q0 -15 -2 -29q-4 -35 -13 -67q39 49 62 98q18 41 24 88q1 8 2 15q0 38 -28 71q-33 39 -66 44t-59 -3q-33 -10 -62 -35z" />
<glyph unicode="l" horiz-adv-x="540" d="M0 227l242 258v330q0 76 12 126t29 79q18 35 41 53l6 -12q-20 -18 -37 -53q-14 -29 -24.5 -77t-10.5 -118v-313l61 67v381q0 57 33 124t92 130q27 29 62 50q36 20 72 26q13 2 25 2q23 0 46 -7q35 -11 64 -44q27 -33 29 -74v-8q0 -37 -12 -74q-13 -41 -36.5 -82t-44.5 -73 q-29 -43 -74 -99.5t-88 -107.5q-51 -59 -106 -121v-338q0 -61 8 -91t20.5 -38t29 2t32.5 29l90 96l19 -21q-33 -35 -60 -63q-23 -25 -46 -50.5t-34 -35.5q-47 -50 -84 -68q-25 -12 -45 -13q-9 0 -17 3q-26 8 -39 38t-13 71v333l-224 -237zM258 111q0 -89 52 -93q2 0 4 -1 q50 0 114 81q-33 -8 -55 0q-20 6 -37 25.5t-17 64.5v336l-61 -65v-273v-75zM381 631l168 221q23 31 35 70q10 35 15 80q1 11 1 22q0 37 -12 82q-16 35 -39 49t-45 19q-25 6 -53 0q-20 -16 -35 -41q-14 -23 -24.5 -54.5t-10.5 -79.5v-368zM481 1202q20 -2 43 -10 q18 -8 39 -24.5t37 -45.5q16 -30 20 -66q2 -19 3 -36q0 -15 -2 -29q-4 -35 -13 -67q39 49 62 98q18 41 24 88q1 8 2 15q0 38 -28 71q-33 39 -66 44t-59 -3q-33 -10 -62 -35z" />
<glyph unicode="m" horiz-adv-x="1490" d="M0 227l283 301q53 55 82.5 87t43 38t15.5 -13t2 -67v-20v-242l268 287q27 31 58.5 45t59.5 11t47.5 -24.5t19.5 -62.5v-256l268 287q27 31 58.5 45t59 11t47 -24.5t19.5 -62.5v-315q0 -61 8.5 -91t20.5 -38t28.5 2t32.5 29l90 96l19 -21q-33 -35 -60 -63 q-23 -25 -46 -50.5t-33 -35.5q-47 -50 -84 -68q-25 -12 -45 -13q-10 0 -18 3q-26 8 -39 38t-13 71v313q-4 51 -16.5 72.5t-26.5 27.5q-16 8 -35 -2l-235 -250v-159l-62 -62v432q0 63 -10 93t-28.5 33t-42 -14t-50.5 -46q20 0 35 -8q12 -10 22.5 -31t12.5 -61v-433l-17 -16 v424q-4 51 -16 72.5t-27 27.5q-16 8 -34 -2l-236 -250v-159l-61 -62v524l-62 -67v-492l-16 -16v379v52.5t-5.5 28.5t-18.5 -1t-40 -35l-205 -217zM1139 549q20 0 35 -8q12 -10 22 -31t12 -61v-263v-75q0 -89 52 -93q2 0 5 -1q51 0 113 81q-33 -8 -55 0q-20 6 -36.5 25.5 t-16.5 64.5v295q0 63 -10.5 93t-29 33t-42 -14t-49.5 -46z" />
<glyph unicode="n" d="M0 227l283 301q53 55 82.5 87t43 38t15.5 -13t2 -67v-20v-242l268 287q27 31 58.5 45t59.5 11t47.5 -24.5t19.5 -62.5v-315q0 -61 8 -91t20.5 -38t28.5 2t33 29l90 96l18 -21q-33 -35 -59 -63q-23 -25 -46.5 -50.5t-33.5 -35.5q-47 -50 -84 -68q-25 -12 -45 -13 q-9 0 -17 3q-26 8 -39.5 38t-13.5 71v313q-4 51 -16 72.5t-27 27.5q-16 8 -34 -2l-236 -250v-159l-61 -62v524l-62 -67v-492l-16 -16v379v52.5t-5.5 28.5t-18.5 -1t-40 -35l-205 -217zM686 549q20 0 35 -8q12 -10 22.5 -31t12.5 -61v-263v-75q0 -89 52 -93q2 0 4 -1 q50 0 114 81q-33 -8 -56 0q-20 6 -36.5 25.5t-16.5 64.5v295q0 63 -10 93t-28.5 33t-42 -14t-50.5 -46z" />
<glyph unicode="o" horiz-adv-x="745" d="M0 227l178 189q53 66 117 119q53 45 122.5 82.5t145.5 37.5q49 0 82 -15t53.5 -35.5t29.5 -38t11 -21.5q13 -41 12 -85q1 -39 -7 -75q-8 -39 -23.5 -71.5t-30.5 -57.5q-29 -43 -75 -93t-85 -79q-55 -43 -112 -66q-50 -18 -108 -19h-2q-57 0 -111 44q-53 49 -65 103 q-9 41 -10 77q0 12 1 23q6 53 31 104l-136 -143zM147 166q9 -60 70 -113q40 -36 87 -36h7q51 3 95 20q51 20 102 57q-39 -14 -78 -18q-13 -1 -27 -1q-24 0 -51 4q-43 7 -86 36q-41 27 -55 74t-16 94v15q0 46 10 97q-41 -59 -55 -119q-7 -29 -7 -61q0 -23 4 -49zM243 285 q3 -41 23 -72q40 -61 90 -79q45 -17 86 -17h9q53 2 106 26q27 23 43 67t22 93q3 22 2 44q0 26 -4 51q-6 46 -24 75q-10 18 -29 35q-16 14 -41.5 25.5t-62.5 11.5q-72 0 -112 -17.5t-54 -33.5q-16 -18 -29.5 -53t-20.5 -75q-5 -28 -5 -56q0 -13 1 -25zM340 545q10 4 29 8 q14 4 36.5 6t51.5 2q66 0 99.5 -22.5t45.5 -38.5q23 -31 31 -70t8 -77t-7 -72.5t-13 -57.5q43 45 69 123q15 44 15 88q0 35 -9 70q-12 29 -32 51q-16 20 -44 36.5t-69 16.5t-79 -10t-66 -23q-35 -14 -66 -30zM639 111l127 139l18 -21l-129 -139z" />
<glyph unicode="p" horiz-adv-x="997" d="M-74 -748l23 11q10 -23 28 -39q16 -14 40 -25.5t59 -11.5q29 0 54.5 16.5t43.5 38.5q23 25 41 58q-16 -8 -37 -17q-16 -6 -39.5 -9t-50.5 1q-25 4 -43 13.5t-33 19.5q-16 12 -26 28l53 41q6 -14 16 -24t25.5 -17.5t44.5 -11.5q18 -4 37.5 0t36.5 10q18 8 34 17 q12 14 23 49q10 29 18.5 79t12.5 134v766v52.5t-5.5 28.5t-18.5 -1t-40 -35l-205 -217l-18 20l283 301q53 55 82.5 87t43 39.5t15.5 -12t2 -67.5v-186q55 74 113 133q47 49 104 91t107 42q55 0 91 -20.5t55 -56t24 -82.5q3 -19 3 -39q0 -30 -5 -62q-14 -98 -76 -189 t-152 -157q-27 -20 -60.5 -34.5t-64 -14.5t-55.5 20.5t-33 73.5l21 6q4 -37 20 -59q14 -18 42 -25q5 -1 11 -1q26 0 68 24q23 12 40 26.5t28 24.5q12 12 22 25q-16 -8 -37 -15q-16 -4 -39.5 -7t-50.5 5q-23 4 -33 17.5t-16 25.5q-8 14 -8 31l39 27q4 -16 12 -29 q6 -10 17.5 -19.5t29.5 -13.5q29 -4 50.5 -1t35.5 9q16 8 29 19q25 49 35 102q8 36 8 78v16q-2 52 -31 93q-33 47 -72 57q-28 7 -53 7q-10 0 -20 -1q-41 -6 -82 -29l-117 -139v-672q-2 -53 -11 -93t-21.5 -68.5t-26 -51t-25.5 -43.5q-12 -23 -28.5 -40t-30.5 -31 q-16 -16 -33 -29q-18 -43 -45 -76q-23 -29 -56.5 -51t-74.5 -22t-70 12t-45 29q-20 18 -33 40zM283 -606q23 23 41 59q16 31 28.5 78t12.5 113v544v385l-62 -65v-256v-582q1 -29 1 -54q0 -39 -2 -70q-3 -52 -7 -87q-6 -39 -12 -65zM575 520q35 14 72 15q31 0 67 -13.5 t66 -54.5q27 -37 34 -81q5 -34 5 -65v-18q-2 -45 -14 -88q39 70 57 137q12 41 12 86q0 17 -2 34q-6 63 -61 110q-25 20 -56 20q-8 0 -16 -2q-41 -6 -77 -25q-43 -23 -87 -55z" />
<glyph unicode="q" horiz-adv-x="874" d="M0 227l178 189q53 66 117 119q53 45 122.5 82.5t145.5 37.5q49 0 82 -17t55 -38q23 -25 39 -55l-43 -41q-12 29 -32 51q-16 20 -44 36.5t-69 16.5t-79 -10t-66 -23q-35 -14 -66 -30q10 4 29 8q14 4 36.5 6t51.5 2q43 0 71.5 -11t46.5 -26q23 -16 35 -37l-20 -18 q-12 20 -31 37q-16 14 -39.5 26.5t-56.5 12.5q-66 0 -109 -17.5t-57 -33.5q-16 -18 -29.5 -53t-20.5 -75q-5 -28 -5 -56q0 -13 1 -25q3 -41 23 -72q41 -61 90 -79q45 -17 86 -17h9q53 2 106 26l78 93v135l16 14v-725q0 -72 14.5 -125t30.5 -88q20 -41 45 -70q-8 33 -16 76 q-6 37 -10 93q-3 36 -3 80q0 22 1 46v381v371l61 47v-352l121 131l18 -21q-33 -35 -59 -63q-23 -25 -46.5 -50.5t-33.5 -35.5v-408q-1 -23 -1 -45q0 -55 4 -101q5 -65 11 -110q8 -53 19 -94q18 -10 37 -18q16 -6 34.5 -12.5t39.5 -2.5q49 6 77 31q14 10 23 27l12 -11 q-10 -16 -26 -28q-14 -10 -34 -19.5t-42 -13.5q-27 -4 -46.5 -2t-31.5 6q-14 6 -25 12q10 -18 29 -30q14 -10 36.5 -19.5t51.5 -9.5q35 0 57.5 6t36.5 14q16 8 27 23l27 -23q-12 -23 -33 -40q-16 -16 -45 -28.5t-70 -12.5q-53 0 -90 26.5t-59 59.5q-27 37 -43 86 q-10 8 -19 18q-18 23 -41 61q-25 41 -38 95.5t-17 163.5v516q-16 -20 -33 -41q-16 -16 -33.5 -37t-38.5 -35q-55 -43 -112 -66q-49 -18 -108 -19h-2q-57 0 -111 44q-53 51 -67 105q-12 41 -12 78q0 10 1 20q6 53 31 100l-132 -139zM140 172q10 -60 71 -115q46 -40 96 -40h2 q51 1 97 18q53 20 102 59q-39 -14 -78 -18q-13 -1 -27 -1q-24 0 -51 4q-43 7 -86 36q-41 27 -55 74t-16 94v15q0 46 10 97q-43 -57 -60 -114q-8 -29 -8 -62q0 -23 3 -47z" />
<glyph unicode="r" horiz-adv-x="716" d="M0 227l401 428q16 -12 35 -20q16 -8 32.5 -14.5t33.5 -6.5q20 0 40.5 6.5t39 14.5t33 14t20.5 6q16 0 28.5 -6t-10.5 -41l-145 -215q-12 -47 -14 -88q-1 -13 -1 -26q0 -23 4 -47q7 -38 33 -58q29 -23 55.5 -25t47.5 9q23 8 45 30l59 62l19 -21l-127 -137 q-31 -35 -67 -58.5t-70 -30.5q-13 -3 -26 -3q-21 0 -41 8q-32 12 -56 49q-24 36 -24 76q0 7 1 17q6 50 25 94q23 51 57 98l107 152q-12 -6 -29 -11q-31 -10 -86 -10q-20 0 -37.5 7t-32.5 18q-16 10 -33 24l-299 -315zM330 537q10 -14 24 -25q12 -10 29.5 -16.5t42.5 -6.5 q33 0 59.5 6.5t42.5 16.5q20 8 35 23l39 51q4 6 1 11t-17 -5q-33 -23 -61.5 -31t-57.5 -8q-20 0 -34.5 6t-24.5 16q-12 8 -21 23zM375 123q0 -45 35 -80q26 -28 53 -28q7 1 15 3q36 10 69 31q37 27 74 74q-16 -12 -39 -21q-18 -6 -43 -5t-52 18q-31 16 -41 51q-8 29 -8 58 v12q0 39 13 86q-37 -51 -58 -103q-18 -49 -18 -96z" />
<glyph unicode="s" horiz-adv-x="643" d="M0 227l403 428l9 -1q10 -1 17 -4t8 -10t-11 -22q-16 -18 -22.5 -47.5t-2 -63.5t18.5 -66.5t39 -57.5q51 -53 74.5 -94t33.5 -72q10 -37 6 -63l91 96l18 -21q-20 -23 -41 -45q-16 -18 -34.5 -37.5t-28.5 -29.5q-18 -20 -58.5 -48t-81.5 -40q-101 -29 -170 -29q-27 0 -49 4 q-78 16 -119 80l19 16q45 -64 115 -80q22 -5 45 -4q49 0 102 23q-27 0 -56.5 9t-57 24.5t-48 38t-26.5 47.5l47 43q8 -31 31.5 -55.5t54 -42t61.5 -27.5t51 -13q1 10 1 20q-1 35 -17 73q-22 48 -84 106q-45 39 -58.5 79t-13.5 73q0 37 17 71l-265 -278zM289 369 q6 -47 59 -95q47 -43 71.5 -79.5t35.5 -63.5q10 -33 10 -57q14 6 30.5 18.5t22.5 22.5q2 29 -6 63q-10 29 -32.5 69t-69.5 87q-35 31 -48.5 67.5t-17.5 69.5q-2 15 -2 30q0 23 4 46q-37 -43 -51 -90q-8 -27 -8 -57q0 -15 2 -31z" />
<glyph unicode="t" horiz-adv-x="585" d="M0 227l287 305v603l16 16v-606l62 65v607l61 63v-604l102 110q18 20 45 37t55.5 21t58.5 -10.5t54 -53.5l-41 -32q-22 53 -68 55h-4q-44 0 -93 -47q12 2 22 0t20.5 -5t20.5 -14q16 -23 18 -32q2 -8 2 -13l-18 -16q0 12 -2 22q-4 23 -18 31t-28.5 7t-27.5 -5l-28 -12 l-70 -76v-391q0 -61 8 -91t20.5 -38t29 2t32.5 29l90 96l19 -21q-33 -35 -60 -63q-23 -25 -46 -50.5t-34 -35.5q-47 -50 -83 -68q-25 -12 -46 -13q-9 0 -17 3q-26 8 -39 38t-13 71v268v52.5t-5.5 28.5t-18.5 -1t-40 -35l-205 -217zM303 111q1 -89 53 -93q2 0 4 -1 q51 0 113 81q-33 -8 -55 0q-20 6 -36.5 25.5t-16.5 64.5v390l-62 -66v-401z" />
<glyph unicode="u" d="M0 227l283 301q53 55 82.5 87t43 39.5t15.5 -12t2 -67.5v-323q0 -47 1 -80t7 -45t21.5 0t46.5 53l342 475h35v-403q0 -61 8 -91t20.5 -38t28.5 2t33 29l90 96l18 -21q-33 -35 -59 -63q-23 -25 -46.5 -50.5t-33.5 -35.5q-47 -50 -84 -68q-25 -12 -45 -13q-9 0 -17 3 q-26 8 -39.5 38t-13.5 71v356l-278 -385q-45 -53 -78 -70.5t-54.5 -9.5t-31.5 38t-10 71v268v52.5t-5.5 28.5t-18.5 -1t-40 -35l-205 -217zM303 111q0 -53 13.5 -75t33 -19t44 24.5t48.5 56.5q-23 -6 -39 2q-14 6 -26 24.5t-12 63.5v385l-62 -65v-256v-141zM756 111 q0 -89 52 -93q2 0 4 -1q50 0 114 81q-33 -8 -56 0q-20 6 -36.5 25.5t-16.5 64.5v390l-61 -89v-303v-75z" />
<glyph unicode="v" horiz-adv-x="919" d="M0 227l334 359q25 29 47 47q18 16 38.5 22.5t35.5 -12.5q10 -16 15 -37.5t9 -42.5q4 -23 4 -49v-219q0 -31 9 -57q6 -23 19 -47.5t38 -36.5q25 -14 45 -16.5t37 1.5q18 4 33 13q20 33 36 69q14 33 26 73q10 34 9 70v13q-4 57 -14 92t-25 57q-16 23 -34 37l10 15 q20 -16 39 -43q16 -23 28.5 -61t12.5 -95q0 -49 -10.5 -89t-20.5 -69q-14 -35 -31 -59q35 33 66 71q25 35 47 81t26 100q1 15 1 28q0 54 -13 90q-16 44 -37 66q-23 27 -55 39l39 43q43 -12 74 -47q27 -29 42 -82q7 -26 7 -60q0 -37 -8 -83q-14 -74 -49 -129.5t-70 -90.5 q-41 -41 -90 -69q-20 -35 -47 -60q-23 -23 -58 -41t-80 -18q-57 0 -85.5 26.5t-41.5 59.5q-14 37 -14 86v219q0 51 -7 74.5t-18 32.5q-10 8 -22 4l-279 -295zM315 520q12 0 23 -12q8 -10 15 -36t7 -77v-209q2 -49 17 -86q12 -33 37.5 -58.5t72.5 -25.5q35 0 64 14.5t49 30.5 q23 20 43 48q-27 -6 -53 -7q-23 0 -51.5 4.5t-53.5 20.5t-37 37.5t-18 44.5q-8 25 -8 53v205q0 23 -2 43q-2 16 -4 34.5t-8 30.5t-18.5 9.5t-27 -15t-26.5 -27t-21 -22.5z" />
<glyph unicode="w" horiz-adv-x="1282" d="M0 227l334 359q25 29 47 47q18 16 38.5 22.5t35.5 -12.5q10 -16 15 -37.5t9 -42.5q4 -23 4 -49v-219q0 -33 9 -59q6 -23 19 -46.5t38 -35.5q30 -14 55 -14h8q28 2 50 14q25 12 45 34v275l16 20v-297q2 -49 16 -86q12 -33 38 -58.5t73 -25.5q35 0 63.5 14.5t49.5 30.5 q23 20 43 48q-27 -6 -54 -7q-23 0 -51.5 4.5t-52.5 20.5q-25 16 -37 37.5t-18 44.5q-8 25 -9 53v285l62 67v-319q0 -31 8 -57q6 -23 19.5 -47.5t37.5 -36.5q25 -14 45.5 -16.5t36.5 1.5q18 4 33 13q20 33 37 69q13 33 25 73q10 34 10 70v13q-4 57 -14.5 92t-24.5 57 q-16 23 -35 37l10 15q20 -16 39 -43q16 -23 28.5 -61t12.5 -95q0 -49 -10 -89t-21 -69q-14 -35 -30 -59q35 33 65 71q25 35 47.5 81t26.5 100q1 14 1 28q1 56 -13 90q-16 44 -37 66q-23 27 -56 39l39 43q43 -12 74 -47q27 -29 42 -82q7 -26 7 -60q0 -37 -8 -83 q-14 -74 -49 -129.5t-70 -90.5q-41 -41 -90 -69q-20 -35 -47 -60q-23 -23 -57.5 -41t-79.5 -18q-57 0 -86 24.5t-41 55.5q-14 37 -14 82q-29 -45 -66 -82q-31 -31 -71 -55.5t-85 -24.5q-57 0 -85.5 26.5t-41.5 59.5q-14 37 -14 86v219q0 51 -7 74.5t-18 32.5q-10 8 -22 4 l-279 -295zM315 520q12 0 23 -12q8 -10 15 -36t7 -77v-209q2 -49 17 -86q12 -33 37.5 -58.5t72.5 -25.5q35 0 67 16.5t56 39.5q29 25 54 57q-27 -14 -56 -23q-25 -6 -56.5 -4t-66.5 25q-25 16 -37 37.5t-18 44.5q-8 25 -8 53v205q0 23 -2 43q-2 16 -4 34.5t-8 30.5 t-18.5 9.5t-27 -15t-26.5 -27t-21 -22.5z" />
<glyph unicode="x" horiz-adv-x="968" d="M0 227l283 301q33 35 69 64q31 23 70 43t80 20q59 0 87.5 -32.5t39.5 -73.5q7 -34 7 -73q0 -16 -1 -32l135 154q18 20 45 36.5t55.5 20.5t58 -10t54.5 -53l-41 -33q-23 53 -69 55h-4q-44 0 -93 -47q12 2 23 0q10 -2 20 -5t21 -13q16 -23 18 -33q2 -8 2 -12l-18 -17 q0 12 -2 23q-4 23 -19 31q-18 12 -36.5 9t-32.5 -13q-18 -10 -33 -27q-16 -16 -29 -45q-10 -25 -17 -68q-4 -27 -4 -63q0 -20 1 -43q2 -47 14 -79t28.5 -50.5t37 -26.5t41.5 -8h6q46 0 102 27l90 96l19 -21q-33 -35 -60 -63q-23 -25 -46.5 -50.5t-33.5 -35.5 q-33 -35 -70.5 -54.5t-74.5 -24.5q-11 -1 -21 -1q-24 0 -48 8q-32 12 -58 41q-29 33 -38 67t-11 62q-1 8 -1 16q0 24 5 48q-23 -33 -45 -66q-20 -29 -47 -60.5t-58 -56.5q-27 -23 -62.5 -39t-71.5 -19h-10q-29 1 -55 15q-30 18 -46 66l16 10q16 -45 49 -63q19 -11 46 -11 q12 0 26 2q45 7 110 70q-16 -8 -38 -10q-18 -4 -42 -1t-47 15q-16 8 -25 21.5t-13 25.5q-6 14 -9 29l39 27q6 -14 15 -27q8 -10 18 -21.5t27 -15.5q33 -12 56 -12q10 0 19 2q14 2 27 10q27 14 49 41q18 23 32.5 64t16.5 106q0 70 -28.5 112t-68.5 58q-28 11 -57 11 q-13 0 -25 -2q-42 -7 -66 -36l-265 -280zM340 541q25 4 49 2q23 -2 48.5 -10.5t49.5 -30.5q23 -23 36.5 -55.5t19.5 -63.5q6 -30 6 -59v-15q29 51 37 103q4 22 4 44.5t-4 46.5q-8 48 -56 87q-28 23 -56 23q-6 -1 -10 -1q-32 -4 -61 -20q-33 -18 -63 -51zM568 170 q2 -58 48 -111q34 -43 74 -43h4q43 2 78 21q41 23 84 63q-33 -10 -65 -12q-29 -2 -60 2t-53 23q-35 25 -46 68.5t-11 88.5q0 51 10 109q-35 -51 -51 -105q-12 -40 -12 -87v-17z" />
<glyph unicode="y" horiz-adv-x="978" d="M0 227l283 301q53 55 82.5 87t43 39.5t15.5 -12t2 -67.5v-323q0 -47 1 -80t7 -45t21.5 0t46.5 53l342 475h35v-536l120 131l19 -21q-33 -35 -60 -63q-23 -25 -46 -50.5t-33 -35.5v-465q0 -49 -8.5 -83t-27 -66.5t-49 -68.5t-79.5 -87q-37 -41 -84 -75t-97 -50 q-39 -13 -77 -13q-10 0 -19 1q-47 4 -86 41q-61 56 -61 136q0 24 6 52q25 113 131 231q53 59 108.5 119t100.5 109q53 57 102 110v496l-278 -385q-45 -53 -78 -70.5t-54.5 -9.5t-31.5 38t-10 71v268v52.5t-5.5 28.5t-18.5 -1t-40 -35l-205 -217zM303 111q0 -53 13.5 -75 t33 -19t44 24.5t48.5 56.5q-23 -6 -39 2q-14 6 -26 24.5t-12 63.5v385l-62 -65v-256v-141zM362 -764q40 -44 88 -44h2q50 1 93 17q51 20 102 62q-33 -6 -64 -6h-16q-35 2 -70.5 10t-60.5 33q-31 29 -41 69.5t-10 79.5q0 45 10 92q-41 -53 -63 -106q-18 -46 -18 -99 q0 -56 48 -108zM432 -484q-3 -23 -3 -45.5t3 -44.5q6 -44 31 -71t56.5 -43.5t62 -20.5t57.5 2.5t45 22.5t28.5 54t16.5 81t8 85t2 67v327l-250 -266q-18 -20 -34.5 -61t-22.5 -87zM735 -641q25 25 43 66q16 35 28 95q11 52 11 129v25v338l-61 -65v-320q0 -53 -3 -101t-8 -85 zM756 -12l61 65v525l-61 -89v-501z" />
<glyph unicode="z" horiz-adv-x="724" d="M0 227l340 363q27 27 61.5 44t70.5 20q8 1 16 1q28 0 52 -8q32 -10 54 -37q29 -34 38 -74q5 -24 6 -48q0 -16 -3 -32q-6 -40 -25.5 -78t-44.5 -65l-172 -184q15 4 31 4q32 -1 64 -17q48 -24 77 -59l180 193l19 -21q-45 -47 -82 -86q-33 -35 -62.5 -67.5t-39.5 -42.5 q20 -25 36 -62q14 -33 24.5 -82t10.5 -118q-2 -94 -22.5 -167t-49 -128.5t-61.5 -95t-57 -70.5q-37 -41 -84 -75t-97 -50q-40 -13 -77 -13q-10 0 -19 1q-47 4 -86 41q-61 56 -61 136q0 26 6 52q25 114 131 231q53 59 103.5 113.5t89.5 95.5q45 49 86 92q-45 49 -93 69 q-21 9 -43 9q-29 0 -59 -16l-20 8l247 266q12 49 19 92q2 18 2 37t-2 39q-4 39 -27 62q-25 26 -57 26h-12q-40 -6 -78.5 -25.5t-68.5 -44t-38 -32.5l-205 -217zM62 -661.5q0 -57.5 47 -108.5q39 -43 86 -43h4q49 2 92 20q51 23 102 64q-33 -6 -64 -6h-16q-35 2 -70.5 10 t-60.5 33q-31 29 -41 70.5t-10 82.5q0 47 8 97q-41 -55 -61 -113q-16 -49 -16 -106.5zM178 -484q-3 -23 -3 -45.5t3 -44.5q6 -44 31 -71t56.5 -43.5t62 -20.5t57.5 2.5t45 22.5q63 72 81.5 163t18.5 210q0 59 -10 100t-20 70q-14 33 -31 53l-233 -248q-18 -20 -35 -61 t-23 -87zM297 27q12 1 22 2q34 -1 62 -15q37 -18 86 -65l61 67q-26 38 -72 64q-29 16 -62 17q-18 0 -36 -5zM326 530q25 12 51 17q23 4 51 -2t57 -31q25 -23 33 -57.5t8 -69.5q0 -39 -8 -82q33 45 49 94q13 37 13 80v9q-2 48 -37 92q-30 34 -64 34h-6q-37 -4 -70 -22 q-37 -23 -77 -62zM483 -72q16 -20 29 -51q10 -27 20.5 -64.5t14.5 -88.5q2 -43 2 -84v-74q0 -37 -2 -72q16 23 26 57q10 29 17.5 75t7.5 112q-2 66 -10 115t-19 79q-12 37 -26 60z" />
<glyph unicode="{" horiz-adv-x="567" d="M41 565l102 109v461q0 98 41 162.5t111 127.5q35 33 67.5 53.5t62.5 25.5t55.5 -8t45.5 -48l-43 -35q-4 12 -12 21q-6 8 -14 16t-21 12q-20 6 -39.5 2t-36.5 -12q-20 -8 -36 -22q80 14 116 -50l-12 -8q-12 20 -31 33q-16 10 -38.5 14t-53.5 -10q-10 -4 -14 -24.5 t-6 -43.5q-2 -27 -2 -61v-371q0 -70 -27 -125t-59 -96q-37 -47 -84 -86q47 -12 84 -43q33 -27 59.5 -74t26.5 -125v-493q0 -70 14 -117t37.5 -75.5t53.5 -41t58 -12.5l-2 -59q-104 0 -163.5 75.5t-59.5 229.5v438q0 98 -22.5 151.5t-48.5 80.5q-31 31 -70 36l-27 -22z M47 504v16q41 0 63.5 -17.5t34 -46t13.5 -67.5t2 -84v-522q0 -135 62.5 -207t187.5 -72l-2 -18q-135 2 -200 77t-65 220v524q0 33 -1 68t-10 63.5t-28.5 47t-56.5 18.5zM160 688q18 20 30.5 41t18.5 55.5t9 91t3 148.5q0 102 2 164.5t7.5 99.5t10.5 53.5t11 26.5 q-16 -20 -32.5 -40.5t-30 -48.5t-21.5 -68t-8 -101v-422z" />
<glyph unicode="}" horiz-adv-x="573" d="M41 -455l43 35q2 -12 10 -20q6 -8 15.5 -16.5t21.5 -12.5q20 -8 39.5 -3t36.5 13q18 8 37 23q-80 -16 -117 49l12 8q12 -20 31 -33q16 -10 38.5 -14t53.5 10q6 8 12 35q4 23 8.5 66t4.5 118v416q0 74 18.5 126t40.5 87q27 39 62 66q-35 16 -62 49q-23 29 -41 77t-18 126 v348q0 74 -16.5 121t-41 73.5t-51 36.5t-47.5 10l10 15q25 0 52.5 -12.5t52 -42t41 -79t16.5 -122.5v-348q0 -180 117 -240l39 37q-63 35 -78.5 98.5t-15.5 159.5v424q0 68 -23 111.5t-51.5 69.5t-58 36t-42.5 10l25 49q23 0 58.5 -14t69.5 -47t58.5 -86t24.5 -129v-424 q0 -100 28.5 -166t77.5 -66v-22q-53 -16 -79.5 -69.5t-26.5 -114.5v-465q0 -53 -8 -95.5t-26.5 -80t-48.5 -75.5t-71 -83q-35 -33 -67.5 -53.5t-62 -25.5t-55.5 8.5t-46 47.5zM287 -387q25 33 39 64.5t23 85t12.5 137.5t3.5 219q0 94 4 158.5t11 105.5t14 62.5t14 31.5 q-47 -47 -76 -103.5t-29 -154.5v-416q0 -66 -2 -104.5t-6 -56.5q-4 -23 -8 -29z" />
<glyph unicode="&#xab;" horiz-adv-x="614" d="M0 328q16 39 31.5 71.5t30 64.5t28.5 65.5t27 76.5l22 12q-12 -41 -26.5 -76.5t-29.5 -69.5t-31.5 -69.5t-35.5 -74.5q35 -82 66 -158t57 -158l-16 -12q-27 86 -57.5 168t-65.5 160zM78 328q41 74 70.5 143.5t52.5 155.5l61 28q-27 -98 -57.5 -177t-65.5 -150 q20 -41 38 -74t32 -63.5t26.5 -63.5t24.5 -70l-59 -28q-25 84 -54.5 152.5t-68.5 146.5zM283 328q16 39 31.5 71.5t29.5 64.5t28.5 65.5t26.5 76.5l23 12q-12 -41 -26.5 -76.5t-30 -69.5t-32 -69.5t-34.5 -74.5q35 -82 65.5 -158t57.5 -158l-16 -12q-27 86 -58 168t-65 160z M360 328q41 74 71 143.5t52 155.5l62 28q-27 -98 -57.5 -177t-65.5 -150q20 -41 37.5 -74t32 -63.5t26.5 -63.5t25 -70l-60 -28q-25 84 -54.5 152.5t-68.5 146.5z" />
<glyph unicode="&#xad;" horiz-adv-x="886" d="M164 258l131 139h489l-59 -61h-467l-55 -62h465l-15 -16h-489z" />
<glyph unicode="&#xbb;" horiz-adv-x="690" d="M61 0q27 82 58 164t65 164q-18 39 -32.5 71.5t-26.5 63.5t-23.5 64.5t-23.5 74.5l14 12q12 -43 24.5 -77.5t25 -68.5t26.5 -67.5t33 -72.5q-35 -78 -65 -157t-58 -163zM168 16q25 76 50.5 148t66.5 164q-35 70 -61.5 137t-53.5 164l53 26q23 -86 53.5 -167.5t69.5 -159.5 q-37 -80 -60.5 -142.5t-47.5 -144.5zM344 0q27 82 57.5 164t65.5 164q-18 39 -32.5 71.5t-28 64.5t-24.5 65.5t-24 74.5l17 10q12 -43 24.5 -77.5t24.5 -68.5t26.5 -67.5t32.5 -72.5q-35 -78 -64.5 -156t-56.5 -164zM451 16q25 76 50 148t66 164q-35 70 -61.5 137t-52.5 164 l53 26q23 -86 53.5 -167.5t69.5 -159.5q-37 -80 -61.5 -142.5t-49.5 -144.5z" />
<glyph unicode="&#x401;" horiz-adv-x="827" d="M0 369q0 45 17.5 97t41 98t47 83t33.5 51q31 41 45.5 78t12.5 76t-20.5 82t-55.5 96q-31 43 -45.5 78t-9 74t30 86t73.5 112q35 47 70.5 73t69.5 37t65 13t55 2q63 0 101 -20.5t61 -44.5q25 -29 35 -64l-60 -45q-14 31 -35 58q-18 23 -44.5 42t-61.5 23q-57 4 -94 -3 t-60 -17q-27 -12 -43 -33q31 10 64 16q29 4 59.5 4t59.5 -14q35 -18 55 -41t31 -43q10 -23 12 -47l-16 -2q-6 25 -19 47q-10 20 -27.5 40.5t-46.5 33.5q-23 10 -54.5 11t-62 -3t-55 -14.5t-34.5 -22.5t-10.5 -35.5t6 -49.5t18.5 -52.5t29 -46.5q31 -41 56 -90.5t25 -102.5 q0 -37 -12 -72.5t-30.5 -67.5t-40 -60.5t-39.5 -51.5q-23 -33 -39.5 -62.5t-25.5 -63t-12 -74.5t1 -97q4 -47 19.5 -92t42 -83t65.5 -64.5t90 -38.5q102 -23 184 2.5t123 97.5q20 35 33.5 89.5t15.5 112.5t-9 113.5t-40 90.5q-49 59 -97 74.5t-85 11.5q-45 -6 -84 -33 q-12 -41 -17 -78q-4 -33 1.5 -67.5t29.5 -59.5q23 -27 48.5 -33t47.5 -4q25 2 50 13l20 -27q-33 -20 -67 -29q-29 -6 -63 -1t-64 40q-20 23 -27.5 49.5t-11.5 50.5q-4 29 0 60q-18 -49 -27 -96q-6 -41 0 -84t41 -74q39 -35 74 -31t63 23q33 23 62 61l12 -8q-31 -45 -68 -68 q-31 -20 -70.5 -24t-82.5 33q-41 37 -48.5 88t3 101t30 93t31.5 62q12 18 39 55t69 68.5t95 47t119 -11.5q74 -29 105.5 -101.5t27.5 -162.5t-40 -188.5t-97 -177.5q-49 -66 -91.5 -112t-81 -74.5t-79.5 -41t-88 -12.5q-51 0 -108.5 17.5t-105 60.5t-79 113.5t-31.5 177.5z M27 367q-8 -72 13 -150t101 -137q92 -68 169 -65t136 34q68 37 123 105q-51 -31 -106 -41q-49 -10 -111.5 -5t-132.5 46q-70 39 -101.5 104.5t-41.5 126.5q-12 72 -4 152q-37 -88 -45 -170zM84 1142.5q4 -49.5 49 -102.5q39 -47 56.5 -90t21.5 -76q6 -37 0 -71q27 57 37 115 q10 49 3 104t-46 102q-35 39 -49.5 72t-18.5 57q-6 29 2 52q-33 -37 -47 -78q-12 -35 -8 -84.5zM195 1649l10 12l84 -82l-13 -12zM250 1704l43 43l82 -82l-43 -43zM412 762q37 12 73 10q33 -2 73 -16.5t81 -55.5q37 -39 53.5 -92t20.5 -100q6 -57 0 -117q27 76 35 148 q8 61 -0.5 128.5t-49.5 114.5q-53 59 -104 62.5t-92 -15.5q-49 -23 -90 -67zM436 1649l10 12l84 -82l-12 -12zM492 1704l43 43l81 -82l-43 -43z" />
<glyph unicode="&#x410;" horiz-adv-x="1275" d="M1.5 472q8.5 83 29.5 142q23 68 61 123l12 -8q-37 -63 -59 -135q-18 -61 -26.5 -143t20.5 -172q23 -74 69 -124.5t99 -81t104 -44t82 -13.5q53 0 95 12.5t73 28.5q37 18 64 43q-92 -18 -181 -6q-76 10 -159.5 56.5t-147.5 156.5q-53 92 -57 183.5t15.5 168t51 132 t54.5 73.5q-23 49 -19 117q4 57 33 137t115 180q96 115 181 161t167 46q57 0 103 -10t82 -27.5t62.5 -40t45.5 -45.5q45 -53 63 -120l-63 -29q-18 68 -56 121q-33 45 -90 83t-149 38q-53 0 -96 -15.5t-76 -34.5q-37 -23 -68 -49q39 20 88 29q41 6 95.5 1t117.5 -38 q61 -35 97 -76t53 -78q20 -43 24 -86h-16q-8 43 -29 84q-16 35 -50 74t-87 68q-39 20 -85 29.5t-95 2t-99.5 -33t-97.5 -72.5q-27 -27 -36 -78t-4 -105.5t20.5 -102.5t40.5 -66q41 -35 75.5 -37t61.5 8q31 12 55 39l13 -16q-39 -39 -82 -56q-37 -14 -84 -9t-97 54 q-29 29 -37 74t-8 90q0 53 9 109q-37 -63 -60 -125q-18 -53 -21 -108.5t31 -94.5q55 -61 108.5 -66.5t94.5 13.5q49 23 92 67l13 -10q-20 -25 -48 -45q-23 -16 -55.5 -30.5t-71.5 -14.5q-35 0 -61.5 10.5t-44.5 22.5q-23 14 -37 35q-51 -66 -74 -150q-18 -72 -6.5 -172 t88.5 -223q33 -53 72 -86t78 -51.5t78 -24.5t75 -4q82 4 168 43q33 20 68 64.5t63 91.5q35 53 66 114v463l16 17v-652q0 -80 10.5 -131t27 -78.5t38 -37t43.5 -5.5q53 8 121 72q-51 0 -90 25q-35 23 -61.5 70.5t-26.5 146.5v622l61 45v-567q0 -78 7.5 -132t19.5 -88 t28.5 -50.5t32.5 -22.5q37 -14 88 23l86 90l19 -21l-101 -106q-20 -25 -52 -52.5t-67.5 -46t-70.5 -23.5t-63.5 15.5t-47 71.5t-18.5 143v150q-55 -109 -129 -191q-31 -37 -71 -70.5t-87 -60t-101 -43t-116 -16.5q-78 0 -141.5 27.5t-111.5 70.5t-78.5 94.5t-41.5 96.5 q-25 100 -16.5 183z" />
<glyph unicode="&#x411;" horiz-adv-x="1390" d="M4 209q-10 88 21.5 167t89.5 146q23 27 64.5 60.5t89.5 54t97.5 16.5t86.5 -49q31 -41 25.5 -84t-23.5 -80q-23 -43 -62 -84l-8 19q27 31 41 65q10 29 10 66t-33 72q-29 29 -67.5 26.5t-77.5 -16.5q-45 -18 -92 -49q33 8 67 10q29 0 60 -7t53 -36q23 -31 26 -60.5 t-3 -54.5q-8 -29 -25 -53l-10 12q12 25 18 47q4 20 2 45t-18 50q-23 31 -55.5 37t-63.5 1q-37 -6 -76 -20q-18 -72 -16 -139q0 -29 6 -60.5t18.5 -61.5t34 -56.5t54.5 -47.5q45 -29 94 -28.5t92 14.5q49 14 98 45q-2 -4 8.5 12.5t22.5 70.5t23.5 155.5t11.5 267.5v408 q0 49 14 88q8 20 16 36l13 -10q-8 -10 -15 -28q-4 -16 -8 -39t-4 -52v-399q0 -111 -2 -187.5t-5 -129t-7 -82t-6 -43.5q23 39 41 98q16 51 28.5 130t12.5 192v444q0 35 9 65.5t21 53.5q14 27 33 49l16 -19q-6 -14 -10 -36q-4 -18 -6 -49t-2 -72v-410q33 59 80 109 q41 41 100.5 74.5t139.5 33.5t141 -28.5t104 -75.5t65.5 -110.5t22.5 -131.5q0 -109 -44 -209t-107.5 -179t-134 -126t-123.5 -47q-61 0 -99 21.5t-61 50.5q-25 31 -37 71l21 4q12 -37 34 -65q20 -25 54.5 -45.5t89.5 -20.5q33 0 65.5 16.5t59.5 39.5q31 23 59 55 q-29 -23 -65 -31q-31 -10 -71 -8t-83 29q-25 14 -38 34.5t-17 36.5q-8 20 -6 41l51 23q0 -23 8 -45q6 -18 22.5 -36.5t45.5 -27.5q78 -23 132 3t81 65q14 18 32.5 66.5t21.5 113t-18.5 140t-87.5 153.5q-45 53 -95 75.5t-98 23.5t-91 -13t-77 -36.5t-55.5 -47t-23.5 -41.5 q0 -82 -18 -166q-16 -72 -52.5 -156.5t-107.5 -158.5q-80 -84 -141.5 -122t-139.5 -42q-35 -2 -78 4t-80.5 28.5t-66.5 64.5t-37 112zM20 254q0 -57 21 -111.5t74 -91.5q78 -41 143.5 -36t112.5 28q55 27 100 74q-39 -23 -84 -31q-39 -10 -87 -8t-97 24q-33 14 -54.5 38 t-35 51.5t-19.5 59.5t-8 62q-6 70 10 152q-23 -27 -39 -59q-14 -29 -25.5 -67t-11.5 -85zM156 1071q-4 53 16.5 106.5t55 100.5t65.5 76t63.5 55.5t68.5 48t76 33.5t83 12q57 0 104 -8t92 -16.5t90 -16.5t97 -8q74 -2 124 6t78 19q35 10 56 26l10 -18q-18 -23 -53 -41 q-31 -16 -82 -27.5t-133 -11.5q-72 0 -123 6t-94 12.5t-82 12.5t-86 6q-53 0 -95.5 -12.5t-70.5 -26.5q-35 -18 -60 -39q20 6 47 12q23 4 57 9.5t79 5.5q39 0 76.5 -9.5t77.5 -21.5t82 -21.5t87 -9.5q37 0 81 6t81 15q43 8 86 22l6 -16q-39 -14 -80 -23q-35 -8 -81 -14 t-93 -6t-92 9t-87 21.5t-80 21.5t-71 9q-59 0 -101 -8t-66 -18q-31 -12 -48 -27q-16 -39 -22 -76q-6 -33 -2 -69.5t26 -71.5q29 -41 64 -48t63 -1q35 8 70 30l14 -10q-41 -37 -86 -51q-39 -12 -85 -7t-87 54q-23 27 -25.5 64t1.5 71q6 39 20 84q-45 -55 -67 -108 q-20 -47 -22.5 -99.5t40.5 -93.5q43 -43 88 -46t82 11q43 16 86 50l14 -13q-43 -35 -92 -51q-41 -14 -92 -11t-98 46q-47 41 -51 94zM807 762q59 27 121 35q53 6 115.5 -9.5t121.5 -76.5q63 -68 90 -140.5t33 -132.5q8 -70 -6 -139q29 80 41 158q10 66 4 137.5t-47 124.5 q-43 53 -85 82.5t-83 43t-80 12.5t-71 -9q-80 -23 -154 -86z" />
<glyph unicode="&#x412;" horiz-adv-x="1255" d="M3 584.5q7 115.5 40 229.5t84 217.5t113 180.5q115 147 241.5 220t292.5 73q82 0 143.5 -25.5t102.5 -68.5t59.5 -99.5t12.5 -117.5q-6 -70 -33 -128t-55 -103q-35 -53 -78 -95q80 10 147 -12q29 -10 56.5 -28.5t51 -48t40 -73t22.5 -104.5q10 -109 -29.5 -216 t-103 -193.5t-137.5 -139.5t-131 -53q-66 0 -98.5 14.5t-49.5 30.5q-18 20 -18 45l14 4q2 -23 19 -39q14 -16 44.5 -27.5t88.5 -11.5q31 0 62.5 18.5t58.5 41.5q31 27 59 61q-27 -12 -55 -20q-25 -6 -55.5 -9.5t-61.5 7.5q-33 10 -51.5 21t-28.5 22q-10 12 -14 24l26 45 q10 -18 29 -34q16 -14 38.5 -27.5t57.5 -18.5q23 -2 49.5 1.5t52 13.5t48 27.5t37.5 41.5q16 27 30.5 74t19.5 100.5t-4.5 110.5t-37.5 107q-53 88 -111.5 111.5t-105.5 17.5q-57 -8 -111 -45l-12 14q59 39 119 47q51 8 111.5 -14.5t113.5 -104.5q33 -51 43 -104t12 -101 q0 -53 -8 -104q20 47 33 100q10 47 12 105.5t-20 124.5q-29 82 -79 115.5t-100 43.5q-57 10 -122 -4l-23 -26l-16 14l112 135q20 35 29 80q6 39 -1 90t-42 115q-35 61 -82 92t-94 43t-90 12t-70 -2q-25 -2 -69 -12t-93 -30.5t-95 -51.5t-73 -72q-88 -131 -112.5 -304 t8.5 -363q14 -88 38.5 -151.5t54.5 -108.5t62.5 -73t65.5 -42q76 -37 164 -23q2 0 6 21q4 16 6 54t2 114v794q0 72 19 101q8 14 20 20l8 -12q-10 -8 -18 -25q-6 -14 -11 -38.5t-1 -63.5v-780q0 -47 -1 -78t-3 -49q-2 -23 -3 -33q18 14 33 53q12 35 23.5 100.5t11.5 178.5 v661q0 35 9.5 61.5t21.5 45.5q12 20 31 35l16 -15q-4 -12 -8 -35q-4 -18 -6 -49.5t-2 -77.5v-641q0 -35 -4.5 -81t-17.5 -95t-41 -98t-75 -90t-79.5 -65.5t-57 -38t-43 -17.5t-37.5 -4q-35 0 -80 16.5t-90 57.5t-87 111.5t-70 181.5q-27 102 -20 217.5zM24 609.5 q-12 -115.5 17 -238.5q23 -98 62.5 -166t84.5 -110t88 -60.5t74 -18.5t62.5 15.5t56.5 34.5q29 23 57 51q-18 -10 -43 -15q-23 -4 -55.5 -0.5t-79.5 23.5q-78 33 -132 101.5t-79 162.5q-35 123 -39 236.5t6 201.5q10 102 37 191q-47 -94 -78 -201q-27 -92 -39 -207.5z M389 1339q84 35 168 50q72 12 154.5 6.5t152.5 -54.5q59 -43 88 -94t39 -98q12 -53 8 -107q31 66 39 132q6 55 -8 116.5t-78 108.5q-47 33 -96 48t-97 17t-94.5 -6t-86.5 -22q-98 -33 -189 -97z" />
<glyph unicode="&#x413;" horiz-adv-x="894" d="M4 209q-10 88 21.5 167t89.5 146q23 27 64.5 60.5t89.5 54t97.5 16.5t86.5 -49q31 -41 25.5 -84t-23.5 -80q-23 -43 -62 -84l-8 19q27 31 41 65q10 29 10 66t-33 72q-29 29 -67.5 26.5t-77.5 -16.5q-45 -18 -92 -49q33 8 67 10q29 0 60 -7t53 -36q23 -31 26 -60.5 t-3 -54.5q-8 -29 -25 -53l-10 12q12 25 18 47q4 20 2 45t-18 50q-23 31 -55.5 37t-63.5 1q-37 -6 -76 -20q-18 -72 -16 -139q0 -29 6 -60.5t18.5 -61.5t34 -56.5t54.5 -47.5q45 -29 94 -28.5t92 14.5q49 14 98 45q-2 -4 8.5 12.5t22.5 70.5t23.5 155.5t11.5 267.5v408 q0 49 14 88q8 20 16 36l13 -10q-8 -10 -15 -28q-4 -16 -8 -39t-4 -52v-399q0 -111 -2 -187.5t-5 -129t-7 -82t-6 -43.5q23 39 41 98q16 51 28.5 130t12.5 192v444q0 35 9 65.5t21 53.5q14 27 33 49l16 -19q-6 -14 -10 -36q-4 -18 -6 -49t-2 -72v-469q0 -78 -18 -160 q-16 -70 -53.5 -151.5t-108.5 -155.5q-80 -84 -141.5 -122t-139.5 -42q-35 -2 -78 4t-80.5 28.5t-66.5 64.5t-37 112zM20 254q0 -57 21 -111.5t74 -91.5q78 -41 143.5 -36t112.5 28q55 27 100 74q-39 -23 -84 -31q-39 -10 -87 -8t-97 24q-33 14 -54.5 38t-35 51.5 t-19.5 59.5t-8 62q-6 70 10 152q-23 -27 -39 -59q-14 -29 -25.5 -67t-11.5 -85zM156 1071q-4 53 16.5 106.5t55 100.5t65.5 76t63.5 55.5t68.5 48t76 33.5t83 12q57 0 99 -8t80 -16.5t78 -16.5t91 -8q74 -2 124 6t79 19q35 10 55 26l10 -18q-18 -23 -53 -41 q-31 -16 -82 -27.5t-133 -11.5q-72 0 -118 6t-82 12.5t-69.5 12.5t-80.5 6q-53 0 -95.5 -12.5t-70.5 -26.5q-35 -18 -60 -39q20 6 47 12q23 4 57 9.5t79 5.5q39 0 76.5 -9.5t77.5 -21.5t82 -21.5t87 -9.5q49 0 88 6t68 15q33 8 57 22l6 -16q-20 -14 -51 -23 q-27 -8 -68.5 -14t-99.5 -6q-47 0 -92 9t-87 21.5t-80 21.5t-71 9q-59 0 -101 -8t-66 -18q-31 -12 -48 -27q-16 -39 -22 -76q-6 -33 -2 -69.5t26 -71.5q29 -41 64 -48t63 -1q35 8 70 30l14 -10q-41 -37 -86 -51q-39 -12 -85 -7t-87 54q-23 27 -25.5 64t1.5 71q6 39 20 84 q-45 -55 -67 -108q-20 -47 -22.5 -99.5t40.5 -93.5q43 -43 88 -46t82 11q43 16 86 50l14 -13q-43 -35 -92 -51q-41 -14 -92 -11t-98 46q-47 41 -51 94z" />
<glyph unicode="&#x414;" horiz-adv-x="1304" d="M3 584.5q7 115.5 40 229.5t84 217.5t113 180.5q115 147 241.5 220t292.5 73q123 0 213 -53t149.5 -138t94.5 -193.5t47 -219t7 -215t-21 -180.5q-33 -141 -74 -213t-72 -105q-31 -41 -66.5 -75.5t-72.5 -59t-72 -39t-65 -14.5q-66 0 -98.5 14.5t-49.5 30.5q-18 20 -18 45 l14 4q2 -23 19 -39q14 -16 44.5 -27.5t88.5 -11.5q31 0 62.5 18.5t58.5 41.5q31 27 59 61q-27 -12 -55 -20q-25 -6 -55.5 -9.5t-61.5 7.5q-33 10 -51.5 21t-28.5 22q-10 12 -14 24l26 45q10 -18 29 -34q16 -14 38.5 -27.5t57.5 -18.5q23 -2 49.5 1.5t52 13.5t48 27.5 t37.5 41.5q18 39 37.5 136.5t22.5 221.5t-20.5 263t-93.5 264q-35 61 -71.5 109.5t-87 82t-119 52t-162.5 18.5q-27 0 -72 -10t-93 -31.5t-93 -52.5t-72 -72q-88 -131 -112.5 -304t8.5 -363q14 -88 38.5 -151.5t54.5 -108.5t62.5 -73t65.5 -42q76 -37 164 -23q2 0 6 21 q4 16 6 54t2 114v794q0 72 19 101q8 14 20 20l8 -12q-10 -8 -18 -25q-6 -14 -11 -38.5t-1 -63.5v-780q0 -47 -1 -78t-3 -49q-2 -23 -3 -33q18 14 33 53q12 35 23.5 100.5t11.5 178.5v661q0 35 9.5 61.5t21.5 45.5q12 20 31 35l16 -15q-4 -12 -8 -35q-4 -18 -6 -49.5 t-2 -77.5v-641q0 -35 -4.5 -81t-17.5 -95t-41 -98t-75 -90t-79.5 -65.5t-57 -38t-43 -17.5t-37.5 -4q-35 0 -80 16.5t-90 57.5t-87 111.5t-70 181.5q-27 102 -20 217.5zM24 609.5q-12 -115.5 17 -238.5q23 -98 62.5 -166t84.5 -110t88 -60.5t74 -18.5t62.5 15.5t56.5 34.5 q29 23 57 51q-18 -10 -43 -15q-23 -4 -55.5 -0.5t-79.5 23.5q-78 33 -132 101.5t-79 162.5q-35 123 -39 236.5t6 201.5q10 102 37 191q-47 -94 -78 -201q-27 -92 -39 -207.5zM389 1339q72 35 152 52q68 12 152.5 6.5t174.5 -56.5q88 -49 147.5 -134t94.5 -186t50.5 -212 t14.5 -214t-13.5 -188t-31.5 -137q35 33 58 109q20 63 33.5 178t5.5 299q-6 94 -35 190.5t-79 179.5t-120.5 144.5t-162 83t-202 -2.5t-239.5 -112z" />
<glyph unicode="&#x415;" horiz-adv-x="827" d="M0 369q0 45 17.5 97t41 98t47 83t33.5 51q31 41 45.5 78t12.5 76t-20.5 82t-55.5 96q-31 43 -45.5 78t-9 74t30 86t73.5 112q35 47 70.5 73t69.5 37t65 13t55 2q63 0 101 -20.5t61 -44.5q25 -29 35 -64l-60 -45q-14 31 -35 58q-18 23 -44.5 42t-61.5 23q-57 4 -94 -3 t-60 -17q-27 -12 -43 -33q31 10 64 16q29 4 59.5 4t59.5 -14q35 -18 55 -41t31 -43q10 -23 12 -47l-16 -2q-6 25 -19 47q-10 20 -27.5 40.5t-46.5 33.5q-23 10 -54.5 11t-62 -3t-55 -14.5t-34.5 -22.5t-10.5 -35.5t6 -49.5t18.5 -52.5t29 -46.5q31 -41 56 -90.5t25 -102.5 q0 -37 -12 -72.5t-30.5 -67.5t-40 -60.5t-39.5 -51.5q-23 -33 -39.5 -62.5t-25.5 -63t-12 -74.5t1 -97q4 -47 19.5 -92t42 -83t65.5 -64.5t90 -38.5q102 -23 184 2.5t123 97.5q20 35 33.5 89.5t15.5 112.5t-9 113.5t-40 90.5q-49 59 -97 74.5t-85 11.5q-45 -6 -84 -33 q-12 -41 -17 -78q-4 -33 1.5 -67.5t29.5 -59.5q23 -27 48.5 -33t47.5 -4q25 2 50 13l20 -27q-33 -20 -67 -29q-29 -6 -63 -1t-64 40q-20 23 -27.5 49.5t-11.5 50.5q-4 29 0 60q-18 -49 -27 -96q-6 -41 0 -84t41 -74q39 -35 74 -31t63 23q33 23 62 61l12 -8q-31 -45 -68 -68 q-31 -20 -70.5 -24t-82.5 33q-41 37 -48.5 88t3 101t30 93t31.5 62q12 18 39 55t69 68.5t95 47t119 -11.5q74 -29 105.5 -101.5t27.5 -162.5t-40 -188.5t-97 -177.5q-49 -66 -91.5 -112t-81 -74.5t-79.5 -41t-88 -12.5q-51 0 -108.5 17.5t-105 60.5t-79 113.5t-31.5 177.5z M27 367q-8 -72 13 -150t101 -137q92 -68 169 -65t136 34q68 37 123 105q-51 -31 -106 -41q-49 -10 -111.5 -5t-132.5 46q-70 39 -101.5 104.5t-41.5 126.5q-12 72 -4 152q-37 -88 -45 -170zM84 1142.5q4 -49.5 49 -102.5q39 -47 56.5 -90t21.5 -76q6 -37 0 -71q27 57 37 115 q10 49 3 104t-46 102q-35 39 -49.5 72t-18.5 57q-6 29 2 52q-33 -37 -47 -78q-12 -35 -8 -84.5zM412 762q37 12 73 10q33 -2 73 -16.5t81 -55.5q37 -39 53.5 -92t20.5 -100q6 -57 0 -117q27 76 35 148q8 61 -0.5 128.5t-49.5 114.5q-53 59 -104 62.5t-92 -15.5 q-49 -23 -90 -67z" />
<glyph unicode="&#x416;" horiz-adv-x="1853" d="M7 1109q13 71 45 137.5t65 105.5q49 59 118.5 106t165.5 47q88 0 158 -46t117 -117.5t71.5 -156.5t24.5 -161q2 -121 -12.5 -213t-30.5 -158q-20 -76 -47 -131l264 383v170q0 61 3 102.5t14.5 76t32 68.5t55.5 79q37 47 69.5 70.5t61 30.5t51 0t37.5 -19q16 -16 23 -36 t-2 -53.5t-36.5 -85t-78.5 -126.5l-91 -129v-312l258 377q20 43 43 84q20 35 47 76t56 72q100 106 181 141t149 -10q20 -14 30.5 -28.5t14.5 -27.5q6 -14 6 -28l-53 -56q-4 31 -17 54q-10 20 -31.5 36.5t-58.5 16.5q-29 0 -54.5 -7t-43.5 -18q-23 -10 -41 -24q25 0 47 -2 q20 -2 40.5 -6.5t35.5 -14.5q20 -14 29.5 -31.5t13.5 -33.5q4 -18 4 -37l-23 -2q2 16 -2 33q-6 31 -41 51q-25 12 -50.5 14t-49 -2t-43 -14.5t-29.5 -20.5q-37 -39 -55 -118.5t-24.5 -174t-5.5 -191.5t1 -171q-2 -57 16.5 -147.5t61.5 -175.5t114.5 -143t176.5 -52l86 90 l18 -21l-100 -106q-29 -35 -61 -62q-29 -23 -64 -42t-72 -19q-45 0 -90 22.5t-86 68.5t-75.5 115.5t-55.5 162.5q-29 117 -30 229.5t10 202.5q10 104 32 200l-215 -311v-280q0 -23 -5 -60t-16 -79t-30.5 -85t-50.5 -77q-59 -70 -115.5 -97.5t-105.5 4.5q-16 10 -31.5 30 t-18.5 55.5t13 88t68 125.5q35 53 63.5 94.5t48.5 69.5q23 35 41 60v313l-403 -592q-57 -84 -103.5 -135t-84.5 -79t-72.5 -37t-69.5 -9q-41 0 -71.5 14.5t-51.5 32.5q-23 23 -41 49l14 15q18 -27 41 -48q20 -18 48 -32.5t63 -14.5q39 0 73 16.5t62 37.5q31 23 60 55 q-23 -16 -50 -27q-23 -10 -54.5 -14t-65.5 6q-37 8 -59.5 25.5t-35.5 36.5q-14 23 -18 45l41 43q8 -25 20 -47q10 -18 29 -34t43 -20q51 -8 125 23t133 117q43 61 65.5 127.5t34 131t14.5 125t3 111.5q0 90 -16.5 198.5t-53.5 202t-94 157t-135 63.5q-82 0 -129 -30 t-69.5 -69t-28 -74.5t-5.5 -47.5q0 -29 11.5 -59t32 -56.5t50 -43t68.5 -16.5q55 0 90 15.5t56 36.5q23 23 34 51l23 -15q-49 -88 -111 -145q-27 -25 -57.5 -45t-65 -31.5t-73.5 -8.5t-80 26q-59 31 -73.5 93t-1.5 133zM16.5 1052.5q-2.5 -30.5 5 -59t24.5 -53.5t48 -43 q53 -33 105.5 -20.5t93.5 38.5q49 31 92 80q-27 -23 -61 -30q-29 -10 -71 -9.5t-91 23.5q-55 23 -74.5 69t-21.5 93q-2 53 14 114q-41 -76 -55 -143q-6 -29 -8.5 -59.5zM182 1382q31 12 68 21q31 6 70.5 7t82.5 -9q68 -18 123.5 -101t96.5 -219q25 -86 30.5 -182t3.5 -182 q-2 -99 -12 -197q18 43 33 113q12 59 22.5 155.5t10.5 235.5q0 76 -29 156t-74 145.5t-101 108.5t-112 43q-45 0 -84 -15.5t-67 -31.5q-35 -23 -62 -48zM734 90.5q3 -34.5 38 -57.5t65.5 -14.5t55.5 26.5q29 23 53 55q-16 -8 -37 -12q-16 -4 -36.5 -3t-43.5 15t-33 38 t-14 46q-4 27 -2 58q-27 -43 -39 -82q-10 -35 -7 -69.5zM817 256q0 -23 7.5 -46.5t27.5 -43.5q20 -23 37.5 -30t30.5 -9q14 -2 26 2v356l-123 -180q-6 -25 -6 -49zM963 147q12 31 24 76q10 39 20.5 95.5t16.5 134.5v854q-18 -27 -31 -60q-10 -29 -20 -67.5t-8 -87.5z M1085 1108l58 82q10 27 18 53q6 23 7 51.5t-7 55.5q-8 23 -17 33t-20 16q-10 6 -24 8l-15 -18v-281zM1112 1423q12 -4 25 -12q10 -8 20 -19.5t19 -31.5q8 -23 10 -44.5t0 -37.5q-2 -20 -8 -37q25 37 43 74q14 31 22 64.5t-8 56.5t-37.5 24.5t-40.5 -6.5q-23 -8 -45 -31z M1276 655q0 -121 25.5 -235.5t69.5 -203.5t102 -144.5t124 -55.5q29 0 56.5 16.5t50.5 37.5q27 23 51 55q-20 -4 -45 -4q-23 0 -50.5 6t-62.5 23q-59 29 -97 81t-63.5 114.5t-41 129t-27.5 123.5q-16 84 -14 183.5t12 187.5q10 102 33 205q-35 -59 -62 -140 q-23 -68 -42 -163t-19 -216z" />
<glyph unicode="&#x417;" horiz-adv-x="858" d="M2 274q4 41 14 78q23 88 82 180q59 82 125 130q27 20 58.5 34.5t63.5 16.5t65.5 -11.5t64.5 -46.5q20 -23 26.5 -46t4.5 -48.5t-12.5 -51.5t-24.5 -48q-33 -53 -88 -109l-12 13q14 37 18 73q4 31 -5 65t-42 58q-35 25 -74 22t-69 -20q-37 -18 -72 -47q-20 -59 -19 -117 q2 -49 26 -102t91 -92q76 -43 143.5 -43t118.5 18q59 23 109 64q31 39 52.5 95t29.5 119.5t0 127t-35 116.5q-47 90 -111.5 123t-121.5 35q-68 2 -138 -26l-6 18q74 29 144 27q59 -2 126.5 -35t120.5 -125q29 -51 39.5 -109.5t10.5 -109.5q0 -59 -9 -121q33 47 56 102 q18 47 25 111.5t-13 140.5q-31 111 -96.5 158t-130.5 57q-78 12 -166 -8l-64 -55l-12 18l197 184q25 23 38 52q12 25 16.5 57.5t-11.5 73.5q-16 39 -51 53t-73 15t-73 -5t-47 -10q-78 -25 -159 -13.5t-116 56.5l17 12q41 -41 107.5 -52t140.5 13q18 6 53 13.5t75 6.5 t77.5 -17.5t62.5 -55.5q12 -20 16 -38.5t6 -35.5q0 -18 -2 -34q27 27 41 61q12 29 13.5 66.5t-27.5 80.5q-35 49 -87 55.5t-107.5 -6t-105.5 -32t-81 -19.5q-49 0 -79 10.5t-46 24.5q-20 16 -27 37l31 31l5 -7t19.5 -14.5t40 -13.5t66.5 -6q29 0 60.5 10t66.5 21.5t72 20.5 t72.5 8t69.5 -17t65 -55q41 -53 41 -106.5t-19 -94.5q-23 -49 -63 -94l-172 -160q102 33 186 22q37 -4 72 -19t65.5 -45t53 -77t32.5 -117q12 -96 -11 -180t-60 -151.5t-78.5 -115.5t-61.5 -75q-80 -96 -165 -153q-37 -25 -79 -43.5t-88 -23.5t-93.5 6t-94.5 46 q-41 31 -62.5 67t-28.5 74.5t-3 79.5zM18.5 250.5q-0.5 -31.5 10 -63t31 -62t55.5 -57.5q37 -29 73.5 -40.5t72.5 -10.5t68.5 11.5t61.5 26.5q68 37 127 103q-45 -23 -98 -33q-45 -10 -102.5 -7t-116.5 32q-66 29 -92.5 80t-36.5 98q-10 55 -2 118q-37 -68 -47 -135 q-4 -29 -4.5 -60.5zM176 592q31 12 64 14q29 2 62.5 -6t64.5 -35q20 -18 28 -41.5t13 -46.5q4 -25 0 -51q29 43 43 82q12 35 10 70.5t-35 64.5q-37 31 -81 26t-81 -22q-45 -20 -88 -55z" />
<glyph unicode="&#x418;" horiz-adv-x="1519" d="M1 975q1 41 14.5 82t31.5 78q43 86 119 174q63 82 131 133q29 20 62.5 37.5t69.5 23.5t74 -1t77 -32q45 -31 69.5 -89t36.5 -115q14 -68 16 -144v-735q0 -115 18.5 -167t41.5 -70q25 -23 59 -11l318 336v885l16 16v-1108q0 -80 10.5 -131t26.5 -78.5t37.5 -37t44.5 -5.5 q53 8 121 72q-51 0 -90 25q-35 23 -61.5 70.5t-26.5 146.5v1112l61 63v-1075q0 -78 7 -132t19.5 -88t29 -50.5t32.5 -22.5q37 -14 88 23l86 90l19 -21l-101 -106q-20 -25 -52 -52.5t-67.5 -46t-70.5 -23.5t-63.5 15.5t-47 71.5t-18.5 143v207l-301 -319q-39 -53 -87.5 -88 t-89 -31t-69.5 56.5t-29 174.5v762q0 72 -8 137q-6 55 -20.5 110.5t-40.5 84.5q-20 23 -45 34t-49.5 14t-50 -1t-48.5 -12q-53 -18 -108 -55q-35 -55 -50 -115q-12 -51 -8 -116.5t51 -133.5q33 -47 71 -63.5t71 -14.5q37 0 75 19l62 77l14 -8q-68 -102 -137 -157 q-31 -25 -65.5 -40.5t-71.5 -16.5t-75 17.5t-77 63.5q-31 37 -42 77t-10 81zM21.5 942q3.5 -29 14.5 -57.5t34 -55.5q51 -59 101 -67t91 6q47 16 92 57q-41 -8 -80 -6q-35 2 -71.5 15.5t-65.5 50.5q-37 45 -48 95t-11 91q0 49 14 94q-39 -57 -57 -114q-8 -25 -12.5 -52.5 t-1 -56.5zM258 1376q43 18 86 23q37 4 81 -7.5t85 -52.5q27 -29 41 -85t20 -115q8 -68 9 -146v-725q0 -80 8 -131t22.5 -78.5t33 -37t38.5 -5.5q45 8 104 72q-41 -6 -73 18q-29 20 -50.5 76t-21.5 170v682q-2 88 -10 164q-8 66 -23.5 128.5t-44.5 90.5q-57 51 -111.5 51 t-97.5 -20q-51 -25 -96 -72z" />
<glyph unicode="&#x419;" horiz-adv-x="1519" d="M1 975q1 41 14.5 82t31.5 78q43 86 119 174q63 82 131 133q29 20 62.5 37.5t69.5 23.5t74 -1t77 -32q45 -31 69.5 -89t36.5 -115q14 -68 16 -144v-735q0 -115 18.5 -167t41.5 -70q25 -23 59 -11l318 336v885l16 16v-1108q0 -80 10.5 -131t26.5 -78.5t37.5 -37t44.5 -5.5 q53 8 121 72q-51 0 -90 25q-35 23 -61.5 70.5t-26.5 146.5v1112l61 63v-1075q0 -78 7 -132t19.5 -88t29 -50.5t32.5 -22.5q37 -14 88 23l86 90l19 -21l-101 -106q-20 -25 -52 -52.5t-67.5 -46t-70.5 -23.5t-63.5 15.5t-47 71.5t-18.5 143v207l-301 -319q-39 -53 -87.5 -88 t-89 -31t-69.5 56.5t-29 174.5v762q0 72 -8 137q-6 55 -20.5 110.5t-40.5 84.5q-20 23 -45 34t-49.5 14t-50 -1t-48.5 -12q-53 -18 -108 -55q-35 -55 -50 -115q-12 -51 -8 -116.5t51 -133.5q33 -47 71 -63.5t71 -14.5q37 0 75 19l62 77l14 -8q-68 -102 -137 -157 q-31 -25 -65.5 -40.5t-71.5 -16.5t-75 17.5t-77 63.5q-31 37 -42 77t-10 81zM21.5 942q3.5 -29 14.5 -57.5t34 -55.5q51 -59 101 -67t91 6q47 16 92 57q-41 -8 -80 -6q-35 2 -71.5 15.5t-65.5 50.5q-37 45 -48 95t-11 91q0 49 14 94q-39 -57 -57 -114q-8 -25 -12.5 -52.5 t-1 -56.5zM258 1376q43 18 86 23q37 4 81 -7.5t85 -52.5q27 -29 41 -85t20 -115q8 -68 9 -146v-725q0 -80 8 -131t22.5 -78.5t33 -37t38.5 -5.5q45 8 104 72q-41 -6 -73 18q-29 20 -50.5 76t-21.5 170v682q-2 88 -10 164q-8 66 -23.5 128.5t-44.5 90.5q-57 51 -111.5 51 t-97.5 -20q-51 -25 -96 -72zM801 1665l20 2q-2 -25 6 -43q6 -16 18.5 -28.5t41.5 -12.5q20 0 37.5 8t31.5 19q16 12 29 28q-18 0 -35 4q-14 4 -28.5 10.5t-24.5 20.5q-10 16 -13 30.5t-3 25.5q0 12 4 22l37 8q0 -12 4 -22t9 -21.5t15 -19.5q12 -10 25.5 -13.5t23.5 -1.5 q12 2 27 7l82 92l16 -13l-108 -122q-43 -43 -69.5 -60.5t-61.5 -17.5q-37 0 -54.5 15t-23.5 34q-8 23 -6 49z" />
<glyph unicode="&#x41a;" horiz-adv-x="1404" d="M2 274q4 41 14 78q23 88 82 180q59 82 125 130q27 20 58.5 34.5t63.5 16.5t65.5 -11.5t64.5 -46.5q20 -23 26.5 -46t4.5 -48.5t-12.5 -51.5t-24.5 -48q-33 -53 -88 -109l-12 13q14 37 18 73q4 31 -5 65t-42 58q-35 25 -74 22t-69 -20q-37 -18 -72 -47q-20 -61 -19 -117 q2 -49 26 -101t91 -93q68 -41 126.5 -45t103.5 6q51 12 94 43l45 53q10 16 18 51q6 29 12.5 77t6.5 120v565q0 84 10 121q6 20 12 31l19 -8q-6 -12 -13 -35q-4 -18 -8 -48t-4 -71v-555q0 -68 -2 -109t-6 -63q-4 -25 -8 -35q20 20 39 57q16 33 27.5 89.5t11.5 146.5v502 q-2 66 8 108.5t22 67.5q14 29 35 41l19 -19q-6 -18 -13 -45q-10 -51 -10 -143v-481q0 -76 -11.5 -129.5t-25.5 -87.5q-16 -41 -35 -68l-176 -197q-61 -70 -129 -106q-59 -33 -135 -40t-160 54q-41 31 -62.5 67t-28.5 74.5t-3 79.5zM18.5 250.5q-0.5 -31.5 10 -63t31 -62 t55.5 -57.5q37 -29 72.5 -41.5t69.5 -11.5t65.5 11.5t58.5 26.5q63 37 119 101q-41 -23 -90 -31q-41 -8 -95.5 -5t-113.5 32q-66 29 -92.5 80t-36.5 98q-10 55 -2 118q-37 -68 -47 -135q-4 -29 -4.5 -60.5zM102.5 1126q-2.5 50 16.5 101q23 59 67 125q31 41 68 75 q29 29 66.5 53.5t72.5 24.5q43 0 81 -10t72 -22.5t66.5 -22.5t63.5 -10q39 0 62.5 4t37.5 8q16 6 25 14l18 -12q-31 -43 -67 -78q-33 -29 -80 -53.5t-107 -24.5q-37 0 -66.5 10.5t-57 24t-56.5 23.5t-61 10q-37 0 -59.5 -8t-37.5 -19q-16 -10 -22 -24q-8 -25 -6 -47 q0 -20 9 -41t32 -37q35 -27 67.5 -27t57.5 11q29 10 53 34l10 -12q-37 -61 -80 -100q-37 -35 -85 -55.5t-101 6.5q-57 29 -59.5 79zM121 1178q-6 -33 3 -66t56 -53q35 -16 70 -3t63 36q33 25 62 65q-20 -18 -45 -29q-23 -10 -50.5 -12t-56.5 12q-35 16 -50 38t-19 42 q-6 23 0 49q-25 -43 -33 -79zM176 592q31 12 64 14q29 2 62.5 -6t64.5 -35q20 -18 28 -41.5t13 -46.5q4 -25 0 -51q29 43 43 82q12 35 10 70.5t-35 64.5q-37 31 -81 26t-81 -22q-45 -20 -88 -55zM225 1362l25 10q12 4 31.5 8t46.5 4q35 0 64.5 -10t58 -22.5t59.5 -23.5 t68 -11q39 0 83 22.5t74 55.5l-4 4q-10 -2 -32.5 -8.5t-53.5 -6.5q-47 0 -81 13.5t-63.5 29t-58 28.5t-65.5 13q-23 0 -48.5 -16t-47.5 -37q-27 -23 -56 -53zM848 764l104 108q16 16 27 52q10 29 17.5 78t4.5 122q0 84 21.5 139.5t48.5 88.5q31 37 70 59q49 55 102 78 q47 20 104.5 13t116.5 -79l-53 -51q-33 66 -72 81t-73 7q-39 -8 -80 -41q66 4 98.5 -13t48.5 -42q18 -29 21 -66l-21 -18q0 55 -26.5 80.5t-57.5 34.5q-37 8 -84 2q-6 -10 -12 -37q-4 -23 -8 -70t-4 -125q0 -72 -20.5 -125t-45.5 -88q-29 -41 -65 -69q41 0 75 -25 q29 -23 52.5 -74t23.5 -151v-203q0 -78 7.5 -132t19.5 -88t28.5 -50.5t32.5 -22.5q37 -14 88 23l86 90l19 -21l-101 -106q-20 -25 -52 -52.5t-67.5 -46t-70.5 -23.5t-63.5 15.5t-47 71.5t-18.5 143v349q0 78 -25.5 113.5t-54.5 47.5q-35 12 -78 4zM901 780q37 0 68 -18 q27 -16 48 -52t21 -108v-334q0 -80 10.5 -131t27 -78.5t38 -37t43.5 -5.5q53 8 121 72q-51 0 -90 25q-35 23 -61.5 70.5t-26.5 146.5v352q0 68 -21.5 101.5t-46.5 47.5q-31 16 -67 15zM1001 913q20 20 39 56q14 29 26.5 77t12.5 119q0 53 6.5 92t16.5 66q8 31 22 51 q-31 -18 -53 -51q-20 -29 -36.5 -77t-16.5 -126q0 -63 -2 -103t-6 -63q-4 -27 -9 -41z" />
<glyph unicode="&#x41b;" horiz-adv-x="1327" d="M2 274q4 41 14 78q23 88 82 180q59 82 125 130q27 20 58.5 34.5t63.5 16.5t65.5 -11.5t64.5 -46.5q20 -23 26.5 -46t4.5 -48.5t-12.5 -51.5t-24.5 -48q-33 -53 -88 -109l-12 13q14 37 18 73q4 31 -5 65t-42 58q-35 25 -74 22t-69 -20q-37 -18 -72 -47q-20 -61 -19 -117 q2 -49 26 -101t91 -93q68 -41 126.5 -45t103.5 6q51 12 94 43l45 53q10 16 18 51q6 29 12.5 77t6.5 120v590q0 72 23.5 126t52.5 93q35 45 77 80q23 31 47 53q23 20 51.5 36.5t61.5 16.5q25 0 43.5 -11t30.5 -24q14 -16 22 -34q12 -25 23 -54q10 -25 17 -55.5t7 -60.5v-836 q0 -78 7.5 -132t19.5 -88t28.5 -50.5t33.5 -22.5q37 -14 88 23l86 90l18 -21l-100 -106q-20 -25 -52 -52.5t-68 -46t-71 -23.5t-63.5 15.5t-47 71.5t-18.5 143v951q0 31 -4 59q-4 25 -10 51.5t-17 44.5q-18 29 -36.5 39t-34.5 10q-18 0 -35 -8q-12 -14 -21 -41 q-8 -23 -14 -65.5t-6 -108.5v-536q0 -76 -11.5 -129.5t-25.5 -87.5q-16 -41 -35 -68l-176 -197q-61 -70 -129 -106q-59 -33 -135 -40t-160 54q-41 31 -62.5 67t-28.5 74.5t-3 79.5zM18.5 250.5q-0.5 -31.5 10 -63t31 -62t55.5 -57.5q37 -29 72.5 -41.5t69.5 -11.5t65.5 11.5 t58.5 26.5q63 37 119 101q-41 -23 -90 -31q-41 -8 -95.5 -5t-113.5 32q-66 29 -92.5 80t-36.5 98q-10 55 -2 118q-37 -68 -47 -135q-4 -29 -4.5 -60.5zM176 592q31 12 64 14q29 2 62.5 -6t64.5 -35q20 -18 28 -41.5t13 -46.5q4 -25 0 -51q29 43 43 82q12 35 10 70.5 t-35 64.5q-37 31 -81 26t-81 -22q-45 -20 -88 -55zM629 303q20 20 39 57q16 33 27.5 89.5t11.5 146.5v534q0 45 4 81t10 61q6 29 14 51q-25 -23 -45 -59q-16 -31 -30.5 -80t-14.5 -121v-553q0 -68 -2 -109t-6 -63q-4 -25 -8 -35zM829 1403q14 4 31 0q14 -4 31.5 -15.5 t36.5 -33.5q12 -18 19 -42t11 -46q4 -25 5 -52v-946q0 -80 10 -131t26.5 -78.5t38 -37t43.5 -5.5q53 8 121 72q-51 0 -90 25q-35 23 -61.5 70.5t-26.5 146.5v909q0 33 -4 64q-4 27 -11.5 56.5t-21.5 51.5q-23 35 -49.5 38t-50.5 -7q-29 -12 -58 -39z" />
<glyph unicode="&#x41c;" horiz-adv-x="1961" d="M2 274q4 41 14 78q23 88 82 180q59 82 125 130q27 20 58.5 34.5t63.5 16.5t65.5 -11.5t64.5 -46.5q20 -23 26.5 -46t4.5 -48.5t-12.5 -51.5t-24.5 -48q-33 -53 -88 -109l-12 13q14 37 18 73q4 31 -5 65t-42 58q-35 25 -74 22t-69 -20q-37 -18 -72 -47q-20 -61 -19 -117 q2 -49 26 -101t91 -93q68 -41 126.5 -45t103.5 6q51 12 94 43l45 53q10 16 18 51q6 29 12.5 77t6.5 120v590q0 72 23.5 126t52.5 93q35 45 77 80q23 31 47 53q23 20 51.5 36.5t61.5 16.5q25 0 43.5 -11t30.5 -24q14 -16 22 -34q12 -25 23 -54q10 -25 17 -55.5t7 -60.5v-836 q0 -74 6.5 -126t16.5 -86t23.5 -52.5t27.5 -26.5q33 -21 76 4q6 10 14 37q4 23 9.5 67t5.5 115v738q0 72 23.5 126t51.5 93q35 45 78 80q23 31 47 53q23 20 51.5 36.5t61.5 16.5q25 0 43 -11t31 -24q14 -16 22 -34q12 -25 23 -54q10 -25 17 -55.5t7 -60.5v-836 q0 -78 7.5 -132t19.5 -88t28.5 -50.5t32.5 -22.5q37 -14 88 23l86 90l19 -21l-100 -106q-20 -25 -52 -52.5t-68 -46t-71 -23.5t-63.5 15.5t-47 71.5t-18.5 143v951q0 31 -4 59q-4 25 -10 51.5t-17 44.5q-18 29 -36.5 39t-34.5 10q-18 0 -35 -8q-12 -14 -21 -41 q-8 -23 -14 -65.5t-6 -108.5v-684q0 -76 -11.5 -129t-25.5 -88q-16 -41 -35 -67l-65 -72q-20 -25 -52 -52.5t-68 -46t-71 -23.5t-63.5 15.5t-47 71.5t-18.5 143v951q0 31 -4 59q-4 25 -10 51.5t-17 44.5q-18 29 -36.5 39t-34.5 10q-18 0 -35 -8q-12 -14 -21 -41 q-8 -23 -14 -65.5t-6 -108.5v-536q0 -76 -11.5 -129.5t-25.5 -87.5q-16 -41 -35 -68l-176 -197q-61 -70 -129 -106q-59 -33 -135 -40t-160 54q-41 31 -62.5 67t-28.5 74.5t-3 79.5zM18.5 250.5q-0.5 -31.5 10 -63t31 -62t55.5 -57.5q37 -29 72.5 -41.5t69.5 -11.5t65.5 11.5 t58.5 26.5q63 37 119 101q-41 -23 -90 -31q-41 -8 -95.5 -5t-113.5 32q-66 29 -92.5 80t-36.5 98q-10 55 -2 118q-37 -68 -47 -135q-4 -29 -4.5 -60.5zM176 592q31 12 64 14q29 2 62.5 -6t64.5 -35q20 -18 28 -41.5t13 -46.5q4 -25 0 -51q29 43 43 82q12 35 10 70.5 t-35 64.5q-37 31 -81 26t-81 -22q-45 -20 -88 -55zM629 303q20 20 39 57q16 33 27.5 89.5t11.5 146.5v534q0 45 4 81t10 61q6 29 14 51q-25 -23 -45 -59q-16 -31 -30.5 -80t-14.5 -121v-553q0 -68 -2 -109t-6 -63q-4 -25 -8 -35zM829 1403q14 4 31 0q14 -4 31.5 -15.5 t36.5 -33.5q12 -18 19 -42t11 -46q4 -25 5 -52v-946q0 -80 10 -131t26.5 -78.5t38 -37t43.5 -5.5q53 8 121 72q-51 0 -90 25q-35 23 -61.5 70.5t-26.5 146.5v909q0 33 -4 64q-4 27 -11.5 56.5t-21.5 51.5q-23 35 -49.5 38t-50.5 -7q-29 -12 -58 -39zM1264 156q20 20 39 57 q16 33 27 89t11 147v681q0 45 4.5 81t10.5 61q6 29 14 51q-25 -23 -45 -59q-16 -31 -30.5 -80t-14.5 -121v-701q0 -68 -2 -108.5t-6 -63.5q-4 -25 -8 -34zM1464 1403q14 4 31 0q14 -4 31.5 -15.5t36.5 -33.5q12 -18 19 -42t11 -46q4 -25 4 -52v-946q0 -80 10.5 -131 t27 -78.5t38 -37t43.5 -5.5q53 8 121 72q-51 0 -90 25q-35 23 -61.5 70.5t-26.5 146.5v909q0 33 -4 64q-4 27 -11.5 56.5t-21.5 51.5q-23 35 -49.5 38t-50.5 -7q-29 -12 -58 -39z" />
<glyph unicode="&#x41d;" horiz-adv-x="1466" d="M2 274q4 41 14 78q23 88 82 180q59 82 125 130q27 20 58.5 34.5t63.5 16.5t65.5 -11.5t64.5 -46.5q20 -23 26.5 -46t4.5 -48.5t-12.5 -51.5t-24.5 -48q-33 -53 -88 -109l-12 13q14 37 18 73q4 31 -5 65t-42 58q-35 25 -74 22t-69 -20q-37 -18 -72 -47q-20 -61 -19 -117 q2 -49 26 -101t91 -93q68 -41 126.5 -45t103.5 6q51 12 94 43l45 53q10 16 18 51q6 29 12.5 77t6.5 120v565q0 84 10 121q6 20 12 31l19 -8q-6 -12 -13 -35q-4 -18 -8 -48t-4 -71v-555q0 -68 -2 -109t-6 -63q-4 -25 -8 -35q20 20 39 57q16 33 27.5 89.5t11.5 146.5v502 q-2 66 8 108.5t22 67.5q14 29 35 41l19 -19q-6 -18 -13 -45q-10 -51 -10 -143v-481q0 -76 -11.5 -129.5t-25.5 -87.5q-16 -41 -35 -68l-176 -197q-61 -70 -129 -106q-59 -33 -135 -40t-160 54q-41 31 -62.5 67t-28.5 74.5t-3 79.5zM18.5 250.5q-0.5 -31.5 10 -63t31 -62 t55.5 -57.5q37 -29 72.5 -41.5t69.5 -11.5t65.5 11.5t58.5 26.5q63 37 119 101q-41 -23 -90 -31q-41 -8 -95.5 -5t-113.5 32q-66 29 -92.5 80t-36.5 98q-10 55 -2 118q-37 -68 -47 -135q-4 -29 -4.5 -60.5zM102.5 1126q-2.5 50 16.5 101q23 59 67 125q31 41 68 75 q29 29 66.5 53.5t72.5 24.5q43 0 81 -10t72 -22.5t66.5 -22.5t63.5 -10q39 0 62.5 4t37.5 8q16 6 25 14l18 -12q-31 -43 -67 -78q-33 -29 -80 -53.5t-107 -24.5q-37 0 -66.5 10.5t-57 24t-56.5 23.5t-61 10q-37 0 -59.5 -8t-37.5 -19q-16 -10 -22 -24q-8 -25 -6 -47 q0 -20 9 -41t32 -37q35 -27 67.5 -27t57.5 11q29 10 53 34l10 -12q-37 -61 -80 -100q-37 -35 -85 -55.5t-101 6.5q-57 29 -59.5 79zM121 1178q-6 -33 3 -66t56 -53q35 -16 70 -3t63 36q33 25 62 65q-20 -18 -45 -29q-23 -10 -50.5 -12t-56.5 12q-35 16 -50 38t-19 42 q-6 23 0 49q-25 -43 -33 -79zM176 592q31 12 64 14q29 2 62.5 -6t64.5 -35q20 -18 28 -41.5t13 -46.5q4 -25 0 -51q29 43 43 82q12 35 10 70.5t-35 64.5q-37 31 -81 26t-81 -22q-45 -20 -88 -55zM225 1362l25 10q12 4 31.5 8t46.5 4q35 0 64.5 -10t58 -22.5t59.5 -23.5 t68 -11q39 0 83 22.5t74 55.5l-4 4q-10 -2 -32.5 -8.5t-53.5 -6.5q-47 0 -81 13.5t-63.5 29t-58 28.5t-65.5 13q-23 0 -48.5 -16t-47.5 -37q-27 -23 -56 -53zM778 692q2 12 10 23q6 8 16.5 15t29.5 7q23 0 37 -9t27 -21.5t27.5 -21.5t37.5 -9t36 8t23 18q10 12 16 29l2 -22 q-4 -14 -12 -25q-8 -10 -23.5 -17.5t-39.5 -7.5q-29 0 -47.5 9.5t-33 21.5t-26.5 21.5t-24 9.5q-14 0 -23.5 -7t-15.5 -16q-8 -10 -13 -22zM803 784q4 12 12 23q8 8 19.5 15t29.5 7q23 0 33 -4t21.5 -9t27 -9t49.5 -4q12 0 25.5 4t26.5 8q14 6 28 14l2 -16q-6 -18 -16 -31 q-10 -12 -25.5 -21t-40.5 -9q-29 0 -47 9t-32.5 21.5t-26.5 21.5t-25 9q-14 0 -23.5 -7t-15.5 -15q-8 -10 -12 -23zM1085 231v893q0 84 21.5 139.5t48.5 88.5q31 37 70 59q49 55 102 78q47 20 104.5 13t116.5 -79l-53 -51q-33 66 -72 81t-73 7q-39 -8 -80 -41q66 4 98.5 -13 t48.5 -42q18 -29 21 -66l-21 -18q0 55 -26.5 80.5t-57.5 34.5q-37 8 -84 2q-6 -10 -12 -37q-4 -23 -8 -70t-4 -125v-735q0 -78 7 -132t19.5 -88t28.5 -50.5t33 -22.5q37 -14 88 23l86 90l18 -21l-100 -106q-20 -25 -52 -52.5t-68 -46t-70.5 -23.5t-63.5 15.5t-47.5 71.5 t-18.5 143zM1102 268q0 -80 10 -131t26.5 -78.5t38 -37t44.5 -5.5q53 8 120 72q-51 0 -90 25q-35 23 -61.5 70.5t-26.5 146.5v835q0 53 6.5 92t16.5 66q8 31 22 51q-31 -18 -53 -51q-20 -29 -36.5 -77t-16.5 -126v-852z" />
<glyph unicode="&#x41e;" horiz-adv-x="925" d="M6 526q10 109 33.5 188t48.5 132q29 61 62 106q-2 33 6 74q6 35 23.5 84t51.5 109q33 57 78 116.5t100.5 104.5t122 66t140.5 7q76 -16 136 -71.5t98 -142.5t50.5 -202.5t-8.5 -250.5q-20 -123 -63 -268.5t-110.5 -273.5t-159 -217t-207.5 -101q-82 -8 -160 22.5 t-136.5 99t-89 174t-16.5 244.5zM25 401q2 -51 14 -104t38.5 -102.5t69 -92t105.5 -73.5q45 -23 88 -28t81 3t70.5 24.5t61.5 37.5q66 49 119 124q-49 -35 -107 -53q-51 -16 -118.5 -19t-149.5 27q-47 16 -82 48t-60.5 71t-43 83t-29.5 87q-27 100 -31 219 q-35 -133 -26 -252zM111 728.5q-2 -66.5 5 -140.5t27.5 -143.5t56.5 -129t89 -96.5q55 -37 124.5 -44t136 9.5t119 50t70.5 76.5l86 187q14 31 22.5 96t8.5 146t-9 171t-31.5 170t-59.5 143.5t-90 94.5q-90 49 -163 42t-126 -36q-61 -33 -109 -90q-16 -49 -16 -100 q-2 -43 12.5 -96.5t59.5 -100.5q35 -41 70.5 -45t64.5 8q33 12 63 45l21 -14q-25 -47 -60 -74q-31 -23 -76 -29t-106 35q-41 25 -60.5 67t-29.5 83q-10 47 -12 100q-20 -74 -21 -141q0 -59 20.5 -123t82.5 -105q53 -37 98 -27.5t80 34.5q39 29 73 77l17 -12q-33 -47 -74 -78 q-35 -27 -86 -38t-117 22q-39 18 -62.5 51t-35.5 68q-16 37 -22 82q-16 -27 -27.5 -78t-13.5 -117.5zM340 1331q57 29 117 39q51 10 112.5 5t118.5 -44q43 -31 74 -72.5t53.5 -91t36.5 -102.5t22 -104q21 -121 15 -254q25 152 16 288q-4 57 -13 119t-29.5 119t-53.5 107.5 t-80 84.5q-82 57 -153.5 51t-122.5 -38q-61 -37 -113 -107z" />
<glyph unicode="&#x41f;" horiz-adv-x="1425" d="M4 209q-10 88 21.5 167t89.5 146q23 27 64.5 60.5t89.5 54t97.5 16.5t86.5 -49q31 -41 25.5 -84t-23.5 -80q-23 -43 -62 -84l-8 19q27 31 41 65q10 29 10 66t-33 72q-29 29 -67.5 26.5t-77.5 -16.5q-45 -18 -92 -49q33 8 67 10q29 0 60 -7t53 -36q23 -31 26 -60.5 t-3 -54.5q-8 -29 -25 -53l-10 12q12 25 18 47q4 20 2 45t-18 50q-23 31 -55.5 37t-63.5 1q-37 -6 -76 -20q-18 -72 -16 -139q0 -29 6 -60.5t18.5 -61.5t34 -56.5t54.5 -47.5q45 -29 94 -28.5t92 14.5q49 14 98 45q-2 -4 8.5 12.5t22.5 70.5t23.5 155.5t11.5 267.5v408 q0 49 14 88q8 20 16 36l13 -10q-8 -10 -15 -28q-4 -16 -8 -39t-4 -52v-399q0 -111 -2 -187.5t-5 -129t-7 -82t-6 -43.5q23 39 41 98q16 51 28.5 130t12.5 192v444q0 35 9 65.5t21 53.5q14 27 33 49l16 -19q-6 -14 -10 -36q-4 -18 -6 -49t-2 -72v-469q0 -78 -18 -160 q-16 -70 -53.5 -151.5t-108.5 -155.5q-80 -84 -141.5 -122t-139.5 -42q-35 -2 -78 4t-80.5 28.5t-66.5 64.5t-37 112zM20 254q0 -57 21 -111.5t74 -91.5q78 -41 143.5 -36t112.5 28q55 27 100 74q-39 -23 -84 -31q-39 -10 -87 -8t-97 24q-33 14 -54.5 38t-35 51.5 t-19.5 59.5t-8 62q-6 70 10 152q-23 -27 -39 -59q-14 -29 -25.5 -67t-11.5 -85zM156 1071q-4 53 16.5 106.5t55 100.5t65.5 76t63.5 55.5t68.5 48t76 33.5t83 12q57 0 118.5 -8t124 -16.5t122 -16.5t110.5 -8q74 -2 124 6t79 19q35 10 55 26l10 -18q-18 -23 -53 -41 q-31 -16 -82 -27.5t-133 -11.5q-145 0 -263 18.5t-214 18.5q-53 0 -95.5 -12.5t-70.5 -26.5q-35 -18 -60 -39q20 6 47 12q23 4 57 9.5t79 5.5q39 0 97 -9.5t121.5 -21.5t125 -21.5t106.5 -9.5q49 0 88 6t68 15q33 8 57 22l6 -16q-20 -14 -51 -23q-27 -8 -68.5 -14t-99.5 -6 q-47 0 -111.5 9t-130 21.5t-124 21.5t-91.5 9q-59 0 -101 -8t-66 -18q-31 -12 -48 -27q-16 -39 -22 -76q-6 -33 -2 -69.5t26 -71.5q29 -41 64 -48t63 -1q35 8 70 30l14 -10q-41 -37 -86 -51q-39 -12 -85 -7t-87 54q-23 27 -25.5 64t1.5 71q6 39 20 84q-45 -55 -67 -108 q-20 -47 -22.5 -99.5t40.5 -93.5q43 -43 88 -46t82 11q43 16 86 50l14 -13q-43 -35 -92 -51q-41 -14 -92 -11t-98 46q-47 41 -51 94zM1044 231v897l17 19v-879q0 -80 10 -131t26.5 -78.5t38 -37t44.5 -5.5q53 8 120 72q-51 0 -90 25q-35 23 -61.5 70.5t-26.5 146.5v884 l62 66v-850q0 -78 7 -132t19.5 -88t28.5 -50.5t33 -22.5q37 -14 88 23l86 90l18 -21l-100 -106q-20 -25 -52 -52.5t-68 -46t-70.5 -23.5t-63.5 15.5t-47.5 71.5t-18.5 143z" />
<glyph unicode="&#x420;" horiz-adv-x="903" d="M4 209q-10 88 21.5 167t89.5 146q23 27 64.5 60.5t89.5 54t97.5 16.5t86.5 -49q31 -41 25.5 -84t-23.5 -80q-23 -43 -62 -84l-8 19q27 31 41 65q10 29 10 66t-33 72q-29 29 -67.5 26.5t-77.5 -16.5q-45 -18 -92 -49q33 8 67 10q29 0 60 -7t53 -36q23 -31 26 -60.5 t-3 -54.5q-8 -29 -25 -53l-10 12q12 25 18 47q4 20 2 45t-18 50q-23 31 -55.5 37t-63.5 1q-37 -6 -76 -20q-18 -72 -16 -139q0 -29 6 -60.5t18.5 -61.5t34 -56.5t54.5 -47.5q45 -29 94 -28.5t92 14.5q49 14 98 45q-2 -4 8.5 12.5t22.5 70.5t23.5 155.5t11.5 267.5v408 q0 49 14 88q8 20 16 36l13 -10q-8 -10 -15 -28q-4 -16 -8 -39t-4 -52v-399q0 -111 -2 -187.5t-5 -129t-7 -82t-6 -43.5q23 39 41 98q16 51 28.5 130t12.5 192v444q0 35 9 65.5t21 53.5q14 27 33 49l16 -19q-6 -14 -10 -36q-4 -18 -6 -49t-2 -72v-469q0 -78 -18 -160 q-16 -70 -53.5 -151.5t-108.5 -155.5q-80 -84 -141.5 -122t-139.5 -42q-35 -2 -78 4t-80.5 28.5t-66.5 64.5t-37 112zM20 254q0 -57 21 -111.5t74 -91.5q78 -41 143.5 -36t112.5 28q55 27 100 74q-39 -23 -84 -31q-39 -10 -87 -8t-97 24q-33 14 -54.5 38t-35 51.5 t-19.5 59.5t-8 62q-6 70 10 152q-23 -27 -39 -59q-14 -29 -25.5 -67t-11.5 -85zM158 1001.5q0 36.5 10 74.5t27 73q37 82 106 168q68 74 162 123q39 20 88 36.5t107.5 24.5t125 4t142.5 -24q98 -27 140 -82.5t43 -122t-29.5 -135t-78.5 -121.5q-59 -68 -106 -84t-80 -8 q-37 8 -67 41l12 14q27 -23 59 -31q27 -8 61.5 -1t69.5 46q-41 -12 -76 -6q-29 4 -56 24.5t-34 69.5l45 31q10 -39 34 -56.5t48 -21.5q29 -8 64 -2q12 61 4 117q-8 47 -40 99.5t-105 86.5q-104 47 -195.5 47t-161.5 -18q-82 -23 -147 -68q-25 -63 -33 -120q-8 -49 -5 -98.5 t34 -75.5q43 -39 80.5 -46.5t66.5 1.5q33 8 62 30l18 -10q-49 -74 -104 -115q-25 -18 -51.5 -30.5t-56.5 -15.5t-61.5 7.5t-62.5 38.5q-33 29 -46 64t-13 71.5zM174.5 990.5q1.5 -62.5 56.5 -111.5q51 -47 96.5 -44t80.5 23q39 23 75 70q-25 -12 -53 -17q-25 -4 -59.5 2 t-75.5 33q-41 33 -50 82t-5 96q6 53 24 111q-49 -66 -71 -129q-20 -53 -18.5 -115.5zM410 1366q57 25 127 33q59 8 138 1t169 -46q76 -37 109.5 -89.5t43.5 -99.5q12 -55 2 -114q35 55 48 112q10 49 -2.5 106.5t-73.5 106.5q-47 37 -120 55.5t-153 16.5t-156.5 -22.5 t-131.5 -59.5z" />
<glyph unicode="&#x421;" horiz-adv-x="823" d="M2 601q-4 89 6 169t31.5 149.5t48.5 127.5q61 133 156 239q82 106 180 164q41 25 89 41t100.5 16t107.5 -20.5t113 -69.5q37 -33 56 -73.5t24.5 -83.5t-1 -88.5t-18.5 -88.5q-29 -98 -90 -204q-59 -72 -123 -121q-27 -20 -57.5 -38t-63.5 -27t-66.5 -8t-64.5 20 q-41 20 -60.5 49.5t-23.5 63.5t3 69t20 69q31 80 98 166l16 -12q-25 -53 -28 -104q-4 -43 11 -87.5t73 -68.5q53 -25 97 -20.5t79 18.5q39 16 71 47q20 80 23 156q2 66 -14.5 133t-69.5 112q-88 74 -171 78t-148 -20q-78 -29 -146 -88q-59 -102 -90 -228q-29 -109 -32 -253 t52 -316q29 -90 69 -150.5t86 -98.5t95 -55.5t97 -23.5q111 -12 231 31l76 78l18 -21l-80 -84q-37 -41 -80 -73q-37 -29 -88 -50.5t-110 -21.5q-66 0 -136.5 19.5t-135 67.5t-118 127t-83.5 200q-25 98 -29 187zM20.5 608q4.5 -80 25 -166t63.5 -178q33 -70 84 -117 t107 -76.5t110.5 -42t93.5 -12.5q47 0 87 15.5t68 34.5q35 23 62 51q-86 -43 -178 -39q-39 2 -83 13t-91 39t-94.5 75t-92.5 119q-41 63 -62.5 132.5t-29.5 139.5t-6 138.5t12 129.5q23 143 78 287q-82 -119 -121 -260q-16 -59 -26.5 -131t-6 -152zM340 1348q61 33 129 41 q57 8 127 -5.5t141 -72.5q49 -43 68.5 -103.5t23.5 -113.5q4 -63 -8 -129q31 78 39 151q8 63 -2 131t-59 115q-78 72 -160 80t-147 -15q-78 -25 -152 -79zM369 802q10 -52 71 -81q49 -27 100.5 -14.5t92.5 38.5q49 31 96 78q-29 -20 -63 -32q-31 -10 -72 -13.5t-92 17.5 q-51 18 -68.5 58t-19.5 81q-2 47 10 100q-39 -68 -53 -127q-12 -53 -2 -105z" />
<glyph unicode="&#x422;" horiz-adv-x="1601" d="M4 209q-10 88 21.5 167t89.5 146q23 27 64.5 60.5t89.5 54t97.5 16.5t86.5 -49q31 -41 25.5 -84t-23.5 -80q-23 -43 -62 -84l-8 19q27 31 41 65q10 29 10 66t-33 72q-29 29 -67.5 26.5t-77.5 -16.5q-45 -18 -92 -49q33 8 67 10q29 0 60 -7t53 -36q23 -31 26 -60.5 t-3 -54.5q-8 -29 -25 -53l-10 12q12 25 18 47q4 20 2 45t-18 50q-23 31 -55.5 37t-63.5 1q-37 -6 -76 -20q-18 -72 -16 -139q0 -29 6 -60.5t18.5 -61.5t34 -56.5t54.5 -47.5q45 -29 94 -28.5t92 14.5q49 14 98 45q-2 -4 8.5 12.5t22.5 70.5t23.5 155.5t11.5 267.5v408 q0 49 14 88q8 20 16 36l13 -10q-8 -10 -15 -28q-4 -16 -8 -39t-4 -52v-399q0 -111 -2 -187.5t-5 -129t-7 -82t-6 -43.5q23 39 41 98q16 51 28.5 130t12.5 192v444q0 35 9 65.5t21 53.5q14 27 33 49l16 -19q-6 -14 -10 -36q-4 -18 -6 -49t-2 -72v-469q0 -78 -18 -160 q-16 -70 -53.5 -151.5t-108.5 -155.5q-80 -84 -141.5 -122t-139.5 -42q-35 -2 -78 4t-80.5 28.5t-66.5 64.5t-37 112zM20 254q0 -57 21 -111.5t74 -91.5q78 -41 143.5 -36t112.5 28q55 27 100 74q-39 -23 -84 -31q-39 -10 -87 -8t-97 24q-33 14 -54.5 38t-35 51.5 t-19.5 59.5t-8 62q-6 70 10 152q-23 -27 -39 -59q-14 -29 -25.5 -67t-11.5 -85zM156 1071q-4 53 16.5 106.5t55 100.5t65.5 76q61 57 132 103t159 48q80 0 172 -7t181 -16t168 -18.5t130 -9.5q74 -2 124 6t79 19q35 10 55 26l10 -18q-18 -23 -53 -41q-31 -16 -82 -27.5 t-133 -11.5q-72 0 -156 6t-170 12.5t-170 12.5t-157 6q-53 0 -95.5 -12.5t-70.5 -26.5q-35 -18 -60 -39q20 6 47 12q23 4 57 9.5t79 5.5q39 0 124 -9.5t182 -21.5t186 -21.5t134 -9.5q49 0 88 6t68 15q33 8 57 22l6 -16q-20 -14 -51 -23q-27 -8 -68.5 -14t-99.5 -6 q-31 0 -84 4t-115.5 11t-130 15.5t-128 15.5t-106.5 11t-69 4q-59 0 -101 -8t-66 -18q-31 -12 -48 -27q-16 -39 -22 -76q-6 -33 -2 -69.5t26 -71.5q29 -41 64 -48t63 -1q35 8 70 30l14 -10q-41 -37 -86 -51q-39 -12 -85 -7t-87 54q-23 27 -25.5 64t1.5 71q6 39 20 84 q-45 -55 -67 -108q-20 -47 -22.5 -99.5t40.5 -93.5q43 -43 88 -46t82 11q43 16 86 50l14 -13q-43 -35 -92 -51q-41 -14 -92 -11t-98 46q-47 41 -51 94zM905 0v1128l17 19v-1131zM983 82v1132l61 66l-2 -1135zM1221 231v897l16 19v-879q0 -80 10 -131t26.5 -78.5t38 -37 t44.5 -5.5q53 8 121 72q-51 0 -91 25q-35 23 -61.5 70.5t-26.5 146.5v884l62 66v-850q0 -78 7 -132t19.5 -88t29 -50.5t32.5 -22.5q37 -14 88 23l86 90l18 -21l-100 -106q-20 -25 -52 -52.5t-68 -46t-70.5 -23.5t-63.5 15.5t-47 71.5t-18 143z" />
<glyph unicode="&#x423;" horiz-adv-x="1273" d="M1 975q1 41 14.5 82t31.5 78q43 86 119 174q63 82 131 133q29 20 62.5 37.5t69.5 23.5t74 -1t77 -32q45 -31 69.5 -89t36.5 -115q14 -68 16 -144v-116q0 -115 18.5 -167.5t41.5 -68.5q27 -20 61 -8l193 203v137q-4 61 1 104t17.5 77t30.5 60.5t43 55.5q47 49 94 76 q41 23 84 29.5t78 -29.5q33 -37 22.5 -84.5t-32.5 -90.5q-29 -51 -74 -100l-125 -131v-414q0 -92 -5 -147t-24.5 -98t-57.5 -88.5t-101 -116.5q-27 -29 -61 -64t-72.5 -65.5t-80.5 -52t-85 -23.5t-85 22.5t-79 83.5l14 15q27 -45 55.5 -68.5t56 -31t55.5 -3t52 14.5 q55 25 111 88q-45 -14 -90 -10q-39 4 -81 23.5t-77 74.5l47 45q35 -53 82 -69.5t88 -14.5q49 2 101 20q25 27 43 53.5t31.5 62.5t19.5 87t4 125v404l-170 -181q-53 -55 -103.5 -91t-90.5 -32.5t-64.5 56.5t-24.5 176v143q0 72 -8 137q-6 55 -20.5 110.5t-40.5 84.5 q-20 23 -45 34t-49.5 14t-50 -1t-48.5 -12q-53 -18 -108 -55q-35 -55 -50 -115q-12 -51 -8 -116.5t51 -133.5q33 -47 71 -63.5t71 -14.5q37 0 75 19l62 77l14 -8q-68 -102 -137 -157q-31 -25 -65.5 -40.5t-71.5 -16.5t-75 17.5t-77 63.5q-31 37 -42 77t-10 81zM21.5 942 q3.5 -29 14.5 -57.5t34 -55.5q51 -59 101 -67t91 6q47 16 92 57q-41 -8 -80 -6q-35 2 -71.5 15.5t-65.5 50.5q-37 45 -48 95t-11 91q0 49 14 94q-39 -57 -57 -114q-8 -25 -12.5 -52.5t-1 -56.5zM258 1376q43 18 86 23q37 4 81 -7.5t85 -52.5q27 -29 41 -85t20 -115 q8 -68 9 -146v-106q0 -80 8 -131t22.5 -79t33 -37t38.5 -5q45 8 104 72q-41 -6 -73 18q-29 20 -50.5 75.5t-21.5 170.5v63q-2 88 -10 164q-8 66 -23.5 128.5t-44.5 90.5q-57 51 -111.5 51t-97.5 -20q-51 -25 -96 -72zM1016 311q23 23 41 64q16 35 27.5 93t9.5 146v566 q0 51 4 89t8 62q6 29 14 47q-23 -20 -43 -51q-16 -27 -30.5 -68.5t-14.5 -101.5v-635q2 -66 0 -106.5t-6 -63.5q-4 -27 -10 -41zM1155 1112l70 74q18 41 28 78q10 31 12.5 63.5t-12.5 52.5q-10 14 -24.5 20.5t-26.5 8.5q-14 2 -28 -2q-6 -8 -11 -29q-4 -16 -7 -44.5 t-1 -73.5v-148zM1192 1430q12 2 27 -3q10 -4 24 -11t25 -21q16 -23 17 -52.5t-5 -58.5q-8 -33 -23 -65q33 43 56 81q18 35 26.5 71t-14.5 63q-20 23 -42.5 24.5t-43.5 -4.5q-22 -8 -47 -24z" />
<glyph unicode="&#x424;" horiz-adv-x="1206" d="M2 677q-2 48 8 96t27 93q37 104 108 213q53 80 121 121q29 18 62.5 29.5t73.5 11.5t84 -15.5t92 -51.5l-41 -48q-66 53 -128.5 55.5t-111.5 -16.5q-57 -23 -111 -69q59 31 115 39q47 8 96 -6.5t82 -73.5l-12 -13q-41 61 -92 71.5t-99 0.5q-53 -14 -110 -51 q-33 -80 -41 -158q-8 -66 6 -141.5t80 -134.5q45 -41 94 -53.5t90 -10.5q49 2 94 17l86 100l19 -14l-105 -119q-68 -70 -137 -103q-31 -14 -64.5 -22t-69.5 -4t-72.5 22.5t-73.5 57.5q-37 37 -52.5 83t-17.5 94zM26 641.5q7 -76.5 66 -135.5q31 -33 62.5 -48.5t61.5 -19.5 t58.5 1t53.5 16q57 23 112 75q-51 -14 -104 -14q-45 0 -94 11.5t-88 50.5q-51 49 -67.5 111.5t-14.5 119.5q0 65 18 133q-41 -80 -57 -158q-14 -66 -7 -142.5zM100 106l15 15q27 -45 55.5 -68.5t56 -31t55 -3t52.5 14.5q55 25 110 88q-45 -14 -90 -10q-39 4 -81 23.5 t-76 74.5l47 45q35 -53 82 -69.5t88 -14.5q49 2 100 20q25 27 43 53.5t31.5 62.5t19.5 87t4 125v737q0 49 15 88q8 20 16 37l12 -10q-8 -10 -14 -29q-4 -16 -8 -38.5t-4 -51.5v-729q2 -66 0 -106.5t-6 -63.5q-4 -27 -11 -41q23 23 41 64q16 35 27.5 93t9.5 146v686 q0 35 9.5 66t21.5 53q14 27 33 49l16 -18q-6 -14 -10 -37q-4 -18 -6 -49t-2 -72v-188q55 66 120 102q55 31 126 34t149 -62q43 -37 63.5 -95.5t15.5 -131t-38 -156.5t-94 -174q-29 -39 -63 -86.5t-75 -79t-88 -36.5t-98 42l12 14q20 -23 43 -32t44.5 -7t41 11.5t35.5 21.5 q39 31 76 84q-43 -23 -80 -27q-33 -4 -68.5 9.5t-60.5 62.5l41 47q31 -59 67.5 -67.5t71.5 4.5q37 14 78 53q29 76 37 149q8 63 -3 134t-61 129q-43 47 -90 63t-86 16q-45 0 -88 -18l-28 -33v-420q0 -92 -5.5 -147t-25 -98t-57 -88.5t-101.5 -116.5q-27 -29 -60.5 -64 t-72.5 -65.5t-81 -52t-85 -23.5t-85 22.5t-79 83.5zM193 1352q31 41 65 75q29 29 64.5 53.5t74.5 24.5q31 0 51.5 -8t36 -18.5t30.5 -18.5t36 -8q23 0 45 7t39 18q20 10 35 26l20 -16q-23 -23 -47 -41q-23 -16 -50.5 -28.5t-57.5 -12.5q-29 0 -48.5 8t-36 17.5t-34 17.5 t-41.5 8q-20 0 -41 -11t-37 -24q-20 -14 -39 -32q10 4 21 8q10 4 23 6t34 2q16 0 30.5 -10.5t29 -22.5t30.5 -22.5t39 -10.5q25 0 48.5 7.5t41.5 17.5q23 10 39 25l12 -13q-20 -16 -43 -28q-20 -10 -47 -19.5t-55 -9.5q-23 0 -40.5 10t-32.5 22.5t-30.5 22.5t-33.5 10 q-25 0 -43.5 -7t-32.5 -17q-16 -10 -29 -23zM803 1133q39 14 82 12q37 -2 82 -20.5t92 -67.5q41 -47 56 -108.5t15 -119.5q0 -68 -14 -135q33 78 47 154q12 66 5 139.5t-56 132.5q-53 61 -107.5 70.5t-99.5 -2.5q-53 -16 -102 -55z" />
<glyph unicode="&#x425;" horiz-adv-x="1374" d="M1 973q1 41 14.5 82t31.5 78q43 86 119 174q63 82 131 133q29 20 62.5 37.5t69.5 23.5t74 -1t77 -32q74 -49 117.5 -125.5t66.5 -148.5q27 -84 35 -178q29 135 75 244q20 45 46 90t58 78.5t70.5 55t84.5 21.5q57 0 96 -17.5t65 -39.5q29 -25 49 -55l-47 -41 q-49 78 -101 93t-93 5q-49 -12 -94 -55q45 12 86 8q35 -4 71.5 -22.5t63.5 -71.5l-17 -15q-23 53 -59.5 72.5t-71.5 22.5q-41 2 -88 -15q-39 -23 -69 -84q-27 -53 -47.5 -149.5t-16.5 -261.5q2 -168 23.5 -288t53.5 -202t73 -131t82 -74q98 -59 217 -24l86 90l18 -21 l-100 -106q-31 -35 -68 -62q-31 -23 -68.5 -42t-78.5 -19q-66 0 -116 22.5t-87 58.5t-62.5 83t-44.5 96q-41 115 -51 262q-57 -145 -133 -258q-33 -49 -72.5 -95t-87 -83t-100.5 -60.5t-113 -25.5q-47 -2 -76.5 15.5t-50.5 39.5q-23 25 -36 58l14 12q27 -51 59.5 -75.5 t68.5 -31t71.5 3t68.5 27.5q78 41 160 127q-68 -39 -131 -53q-53 -12 -112.5 0t-102.5 78l45 41q23 -29 50.5 -44.5t56 -19.5t58 0t56.5 12q63 20 129 66q43 41 76 117q29 66 49.5 175t11.5 279q-6 115 -32.5 203t-57.5 147.5t-56 90.5l-24 30q-33 33 -64.5 49.5t-60 22.5 t-56.5 4t-50 -10q-53 -18 -102 -61q-35 -55 -50 -115q-12 -51 -8 -116.5t51 -133.5q33 -47 71 -63.5t71 -14.5q37 0 75 19l62 77l14 -8q-68 -102 -137 -157q-31 -25 -65.5 -40.5t-71.5 -16.5t-75 17.5t-77 63.5q-31 37 -42 77t-10 81zM21.5 940q3.5 -29 14.5 -57.5t34 -55.5 q51 -59 101 -67t91 6q47 16 92 57q-41 -8 -80 -6q-35 2 -71.5 15.5t-65.5 50.5q-37 45 -48 95t-11 91q0 49 14 94q-39 -57 -57 -114q-8 -25 -12.5 -52.5t-1 -56.5zM258 1374q43 20 92 23q41 2 91.5 -15.5t101.5 -70.5q45 -47 75.5 -103.5t51 -117t32 -123t17.5 -119.5 q12 -137 -2 -279q43 147 47 297q0 63 -7 134t-29.5 141.5t-63 140.5t-101.5 133q-57 51 -111.5 51t-97.5 -20q-51 -25 -96 -72zM758 573q6 -156 43 -278q16 -53 40.5 -102.5t60.5 -89.5t84.5 -63.5t111.5 -23.5q29 0 59.5 15.5t56.5 34.5q31 23 60 51q-29 -14 -66 -17 q-31 -4 -74.5 4.5t-99.5 36.5q-51 27 -89 82.5t-63.5 127t-41 150.5t-24.5 150.5t-11 130t-2 86.5q-4 -55 -9.5 -96t-10.5 -72.5t-11 -61.5t-14 -65z" />
<glyph unicode="&#x426;" horiz-adv-x="1519" d="M1 975q1 41 14.5 82t31.5 78q43 86 119 174q63 82 131 133q29 20 62.5 37.5t69.5 23.5t74 -1t77 -32q45 -31 69.5 -89t36.5 -115q14 -68 16 -144v-735q0 -115 18.5 -167t41.5 -70q25 -23 59 -11l318 336v885l16 16v-1108q0 -80 10.5 -131t26.5 -78.5t37.5 -37t44.5 -5.5 q53 8 121 72q-51 0 -90 25q-35 23 -61.5 70.5t-26.5 146.5v1112l61 63v-1075q0 -78 7 -132t19.5 -88t29 -50.5t32.5 -22.5q37 -14 88 23l86 90l19 -21l-101 -106q-20 -25 -52 -52.5t-67.5 -46t-70.5 -23.5t-63.5 15.5t-47 71.5t-18.5 143v207l-301 -319q-39 -53 -87.5 -88 t-89 -31t-69.5 56.5t-29 174.5v762q0 72 -8 137q-6 55 -20.5 110.5t-40.5 84.5q-20 23 -45 34t-49.5 14t-50 -1t-48.5 -12q-53 -18 -108 -55q-35 -55 -50 -115q-12 -51 -8 -116.5t51 -133.5q33 -47 71 -63.5t71 -14.5q37 0 75 19l62 77l14 -8q-68 -102 -137 -157 q-31 -25 -65.5 -40.5t-71.5 -16.5t-75 17.5t-77 63.5q-31 37 -42 77t-10 81zM21.5 942q3.5 -29 14.5 -57.5t34 -55.5q51 -59 101 -67t91 6q47 16 92 57q-41 -8 -80 -6q-35 2 -71.5 15.5t-65.5 50.5q-37 45 -48 95t-11 91q0 49 14 94q-39 -57 -57 -114q-8 -25 -12.5 -52.5 t-1 -56.5zM258 1376q43 18 86 23q37 4 81 -7.5t85 -52.5q27 -29 41 -85t20 -115q8 -68 9 -146v-725q0 -80 8 -131t22.5 -78.5t33 -37t38.5 -5.5q45 8 104 72q-41 -6 -73 18q-29 20 -50.5 76t-21.5 170v682q-2 88 -10 164q-8 66 -23.5 128.5t-44.5 90.5q-57 51 -111.5 51 t-97.5 -20q-51 -25 -96 -72zM1321 -113q0 20 5 37t11 29q8 14 19 27l10 -15q-8 -10 -14 -20q-14 -23 -15 -56q0 -18 7.5 -32.5t16.5 -28.5t16 -28.5t7 -30.5q0 -27 -4 -46.5t-8 -33.5q-6 -16 -12 -31l-17 10q6 10 13 25q4 12 8 30.5t4 45.5q0 18 -8 30.5t-16.5 24.5 t-15.5 26.5t-7 36.5zM1384 -35q0 23 5.5 37t11.5 25q8 10 18 20l35 -22q-6 -2 -12 -11q-4 -6 -9 -18.5t-3 -30.5q0 -18 9 -34.5t18 -36t17.5 -42t8.5 -53.5q0 -45 -11.5 -73.5t-23.5 -47.5q-14 -23 -33 -32l-31 14q14 6 27 25q10 16 18.5 41.5t8.5 72.5q0 31 -8.5 47.5 t-18.5 32t-18.5 33.5t-8.5 53z" />
<glyph unicode="&#x427;" horiz-adv-x="1396" d="M1 975q1 41 14.5 82t31.5 78q43 86 119 174q63 82 131 133q29 20 62.5 37.5t69.5 23.5t74 -1t77 -32q45 -31 69.5 -89t36.5 -115q14 -68 16 -144v-116q0 -115 18.5 -167.5t41.5 -68.5q27 -20 61 -8l193 203v137q-4 61 1 104t17.5 77t30.5 60.5t43 55.5q47 49 94 76 q41 23 84 29.5t78 -29.5q33 -37 22.5 -84.5t-32.5 -90.5q-29 -51 -74 -100l-125 -131v-639q0 -78 7 -132t19.5 -88t29 -50.5t32.5 -22.5q37 -14 88 23l86 90l19 -21l-101 -106q-20 -25 -52 -52.5t-67.5 -46t-70.5 -23.5t-63.5 15.5t-47 71.5t-18.5 143v691l-170 -181 q-53 -55 -103.5 -91t-90.5 -32.5t-64.5 56.5t-24.5 176v143q0 72 -8 137q-6 55 -20.5 110.5t-40.5 84.5q-20 23 -45 34t-49.5 14t-50 -1t-48.5 -12q-53 -18 -108 -55q-35 -55 -50 -115q-12 -51 -8 -116.5t51 -133.5q33 -47 71 -63.5t71 -14.5q37 0 75 19l62 77l14 -8 q-68 -102 -137 -157q-31 -25 -65.5 -40.5t-71.5 -16.5t-75 17.5t-77 63.5q-31 37 -42 77t-10 81zM21.5 942q3.5 -29 14.5 -57.5t34 -55.5q51 -59 101 -67t91 6q47 16 92 57q-41 -8 -80 -6q-35 2 -71.5 15.5t-65.5 50.5q-37 45 -48 95t-11 91q0 49 14 94q-39 -57 -57 -114 q-8 -25 -12.5 -52.5t-1 -56.5zM258 1376q43 18 86 23q37 4 81 -7.5t85 -52.5q27 -29 41 -85t20 -115q8 -68 9 -146v-106q0 -80 8 -131t22.5 -79t33 -37t38.5 -5q45 8 104 72q-41 -6 -73 18q-29 20 -50.5 75.5t-21.5 170.5v63q-2 88 -10 164q-8 66 -23.5 128.5t-44.5 90.5 q-57 51 -111.5 51t-97.5 -20q-51 -25 -96 -72zM1032 268q0 -80 10.5 -131t26.5 -78.5t37.5 -37t44.5 -5.5q53 8 121 72q-51 0 -90 25q-35 23 -61.5 70.5t-26.5 146.5v850q0 51 4 89t8 62q6 29 14 47q-23 -20 -43 -51q-16 -27 -30.5 -68.5t-14.5 -101.5v-889zM1155 1112 l70 74q18 41 28 78q10 31 12.5 63.5t-12.5 52.5q-10 14 -24.5 20.5t-26.5 8.5q-14 2 -28 -2q-6 -8 -11 -29q-4 -16 -7 -44.5t-1 -73.5v-148zM1192 1430q12 2 27 -3q10 -4 24 -11t25 -21q16 -23 17 -52.5t-5 -58.5q-8 -33 -23 -65q33 43 56 81q18 35 26.5 71t-14.5 63 q-20 23 -42.5 24.5t-43.5 -4.5q-22 -8 -47 -24z" />
<glyph unicode="&#x428;" horiz-adv-x="2095" d="M1 975q1 41 14.5 82t31.5 78q43 86 119 174q63 82 131 133q29 20 62.5 37.5t69.5 23.5t74 -1t77 -32q45 -31 69.5 -89t36.5 -115q14 -68 16 -144v-735q0 -115 18.5 -167t41.5 -70q25 -23 59 -11l318 336v885l16 16v-1108q0 -80 8 -131t22.5 -78.5t33 -37t38.5 -5.5 q45 8 105 72q-41 -6 -74 16q-29 20 -50 74.5t-21 171.5v1092l61 63v-1118q0 -115 18.5 -167t40.5 -70q25 -23 60 -11l317 336v885l17 16v-1108q0 -80 10 -131t26.5 -78.5t38 -37t43.5 -5.5q53 8 121 72q-51 0 -90 25q-35 23 -61.5 70.5t-26.5 146.5v1112l61 63v-1075 q0 -78 7.5 -132t19.5 -88t28.5 -50.5t33.5 -22.5q37 -14 88 23l86 90l18 -21l-100 -106q-20 -25 -52 -52.5t-68 -46t-71 -23.5t-63.5 15.5t-47 71.5t-18.5 143v207l-301 -319q-39 -53 -87 -88t-89 -31t-69.5 56.5t-28.5 174.5v207l-301 -319q-39 -53 -87.5 -88t-89 -31 t-69.5 56.5t-29 174.5v762q0 72 -8 137q-6 55 -20.5 110.5t-40.5 84.5q-20 23 -45 34t-49.5 14t-50 -1t-48.5 -12q-53 -18 -108 -55q-35 -55 -50 -115q-12 -51 -8 -116.5t51 -133.5q33 -47 71 -63.5t71 -14.5q37 0 75 19l62 77l14 -8q-68 -102 -137 -157 q-31 -25 -65.5 -40.5t-71.5 -16.5t-75 17.5t-77 63.5q-31 37 -42 77t-10 81zM21.5 942q3.5 -29 14.5 -57.5t34 -55.5q51 -59 101 -67t91 6q47 16 92 57q-41 -8 -80 -6q-35 2 -71.5 15.5t-65.5 50.5q-37 45 -48 95t-11 91q0 49 14 94q-39 -57 -57 -114q-8 -25 -12.5 -52.5 t-1 -56.5zM258 1376q43 18 86 23q37 4 81 -7.5t85 -52.5q27 -29 41 -85t20 -115q8 -68 9 -146v-725q0 -80 8 -131t22.5 -78.5t33 -37t38.5 -5.5q45 8 104 72q-41 -6 -73 18q-29 20 -50.5 76t-21.5 170v682q-2 88 -10 164q-8 66 -23.5 128.5t-44.5 90.5q-57 51 -111.5 51 t-97.5 -20q-51 -25 -96 -72z" />
<glyph unicode="&#x429;" horiz-adv-x="2095" d="M1 975q1 41 14.5 82t31.5 78q43 86 119 174q63 82 131 133q29 20 62.5 37.5t69.5 23.5t74 -1t77 -32q45 -31 69.5 -89t36.5 -115q14 -68 16 -144v-735q0 -115 18.5 -167t41.5 -70q25 -23 59 -11l318 336v885l16 16v-1108q0 -80 8 -131t22.5 -78.5t33 -37t38.5 -5.5 q45 8 105 72q-41 -6 -74 16q-29 20 -50 74.5t-21 171.5v1092l61 63v-1118q0 -115 18.5 -167t40.5 -70q25 -23 60 -11l317 336v885l17 16v-1108q0 -80 10 -131t26.5 -78.5t38 -37t43.5 -5.5q53 8 121 72q-51 0 -90 25q-35 23 -61.5 70.5t-26.5 146.5v1112l61 63v-1075 q0 -78 7.5 -132t19.5 -88t28.5 -50.5t33.5 -22.5q37 -14 88 23l86 90l18 -21l-100 -106q-20 -25 -52 -52.5t-68 -46t-71 -23.5t-63.5 15.5t-47 71.5t-18.5 143v207l-301 -319q-39 -53 -87 -88t-89 -31t-69.5 56.5t-28.5 174.5v207l-301 -319q-39 -53 -87.5 -88t-89 -31 t-69.5 56.5t-29 174.5v762q0 72 -8 137q-6 55 -20.5 110.5t-40.5 84.5q-20 23 -45 34t-49.5 14t-50 -1t-48.5 -12q-53 -18 -108 -55q-35 -55 -50 -115q-12 -51 -8 -116.5t51 -133.5q33 -47 71 -63.5t71 -14.5q37 0 75 19l62 77l14 -8q-68 -102 -137 -157 q-31 -25 -65.5 -40.5t-71.5 -16.5t-75 17.5t-77 63.5q-31 37 -42 77t-10 81zM21.5 942q3.5 -29 14.5 -57.5t34 -55.5q51 -59 101 -67t91 6q47 16 92 57q-41 -8 -80 -6q-35 2 -71.5 15.5t-65.5 50.5q-37 45 -48 95t-11 91q0 49 14 94q-39 -57 -57 -114q-8 -25 -12.5 -52.5 t-1 -56.5zM258 1376q43 18 86 23q37 4 81 -7.5t85 -52.5q27 -29 41 -85t20 -115q8 -68 9 -146v-725q0 -80 8 -131t22.5 -78.5t33 -37t38.5 -5.5q45 8 104 72q-41 -6 -73 18q-29 20 -50.5 76t-21.5 170v682q-2 88 -10 164q-8 66 -23.5 128.5t-44.5 90.5q-57 51 -111.5 51 t-97.5 -20q-51 -25 -96 -72zM1896 -113q0 20 5.5 37t11.5 29q8 14 18 27l11 -15q-8 -10 -15 -20q-14 -23 -14 -56q0 -18 7 -32.5t16.5 -28.5t16.5 -28.5t7 -30.5q0 -27 -4 -46.5t-8 -33.5q-6 -16 -13 -31l-16 10q6 10 12 25q4 12 8.5 30.5t4.5 45.5q0 18 -8.5 30.5 t-16.5 24.5t-15.5 26.5t-7.5 36.5zM1960 -35q0 23 5 37t11 25q8 10 19 20l35 -22q-6 -2 -13 -11q-4 -6 -9 -18.5t-3 -30.5q0 -18 9 -34.5t18.5 -36t17.5 -42t8 -53.5q0 -45 -11 -73.5t-24 -47.5q-14 -23 -32 -32l-31 14q14 6 27 25q10 16 18 41.5t8 72.5q0 31 -8 47.5 t-18.5 32t-18.5 33.5t-8 53z" />
<glyph unicode="&#x42a;" horiz-adv-x="1241" d="M2 1126q-2 50 16 101q23 59 68 125q31 41 68 75q29 29 66.5 53.5t72.5 24.5q43 0 81 -10t71.5 -22.5t66 -22.5t63.5 -10q39 0 63 4t38 8q16 6 24 14l19 -12q-31 -43 -68 -78q-33 -29 -80 -53.5t-106 -24.5q-37 0 -66.5 10.5t-57.5 24t-56.5 23.5t-61.5 10q-37 0 -59.5 -8 t-36.5 -19q-16 -10 -23 -24q-8 -25 -6 -47q0 -20 9.5 -41t31.5 -37q35 -27 68 -27t57 11q29 10 53 34l11 -12q-37 -61 -80 -100q-37 -35 -85 -55.5t-102 6.5q-57 29 -59 79zM20 1178q-6 -33 3.5 -66t56.5 -53q35 -16 69.5 -3t63.5 36q33 25 61 65q-20 -18 -45 -29 q-23 -10 -50 -12t-56 12q-35 16 -50.5 38t-19.5 42q-6 23 0 49q-25 -43 -33 -79zM125 1362l25 10q12 4 31.5 8t45.5 4q35 0 65 -10t58.5 -22.5t59 -23.5t67.5 -11q39 0 83 22.5t75 55.5l-4 4q-10 -2 -33 -8.5t-53 -6.5q-47 0 -81 13.5t-63.5 29t-58.5 28.5t-66 13 q-23 0 -48 -16t-48 -37q-27 -23 -55 -53zM279 0q27 61 63 113q33 43 80 78.5t113 35.5q49 0 92 -13t85 -28.5t83 -28t88 -12.5t74.5 14.5t43.5 30.5q18 20 27 46q33 82 51 163q16 72 16.5 154t-36.5 156q-41 78 -91 103.5t-96 21.5q-53 -4 -104 -33q-18 -35 -25 -72 q-4 -31 3.5 -65.5t41.5 -61.5q41 -35 72 -36t53 12q25 14 45 43l17 -9q-39 -68 -84 -108q-39 -35 -89 -49.5t-106 30.5q-20 14 -28.5 38t-8.5 50.5t7.5 55t17.5 57.5q23 66 66 137q63 84 135 117q31 14 65.5 18.5t73.5 -9t79 -47.5t81 -95q41 -63 44 -139t-19.5 -156 t-64.5 -155.5t-93 -139.5q-43 -61 -97 -108q-45 -41 -102 -75t-117 -34q-61 0 -94 10t-56.5 23.5t-46 25t-61.5 11.5t-71.5 -13.5t-55.5 -29.5q-27 -20 -49 -45zM322 29q18 14 40 26q20 10 49 19.5t66 9.5q45 0 73 -10.5t52.5 -23.5t53 -23.5t79.5 -10.5q35 0 71 16.5 t64.5 35t45.5 34.5l18 17q-20 -8 -43 -17q-20 -6 -46 -10t-57 -4q-37 0 -67.5 14.5t-60 31t-62.5 30.5t-76 14t-79.5 -23.5t-63.5 -52.5q-33 -33 -57 -73zM424 240q10 10 18 36q6 23 12.5 64t6.5 113v618q0 84 10 121q6 20 12 31l19 -9q-6 -12 -13 -34q-4 -18 -8 -48t-4 -71 v-586q0 -74 -2 -116t-6 -62q-4 -23 -8 -29q20 16 39 56q14 33 26.5 93t12.5 158v519q-2 66 8 108.5t22 67.5q14 29 35 41l19 -19q-6 -18 -13 -45q-10 -51 -10 -143v-508q0 -127 -25.5 -200.5t-54.5 -114.5q-37 -47 -80 -64zM677 558q3 -36 32 -58q41 -35 74.5 -32t60.5 19 q31 18 55 54q-25 -10 -47 -13q-23 -4 -47 1.5t-51 25.5t-36 47t-11 51q-2 29 4 60q-20 -45 -29 -84q-8 -35 -5 -71zM786 831q51 20 105 19q45 -4 94 -29.5t86 -101.5q31 -63 36 -135t1 -131q-6 -72 -23 -142q37 78 60 160q16 70 19 148.5t-36 150.5q-53 94 -112.5 115.5 t-110.5 9.5q-59 -14 -119 -64z" />
<glyph unicode="&#x42b;" horiz-adv-x="1482" d="M0 0q27 61 63 113q33 43 80 78.5t113 35.5q49 0 92 -13t85 -28.5t83 -28t88 -12.5t75 14.5t44 30.5q18 20 27 46q33 82 51 163q16 72 16 154t-37 156q-41 78 -91 103.5t-95 21.5q-53 -4 -105 -33q-18 -35 -24 -72q-4 -31 3 -65.5t42 -61.5q41 -35 71.5 -36t53.5 12 q25 14 45 43l16 -9q-39 -68 -84 -108q-39 -35 -89 -49.5t-105 30.5q-20 14 -28.5 38t-8.5 50.5t7 55t18 57.5q23 66 65 137q63 84 135 117q31 14 66 18.5t73.5 -9t78.5 -47.5t81 -95q41 -63 44 -139t-19.5 -156t-64.5 -155.5t-93 -139.5q-43 -61 -96 -108 q-45 -41 -102.5 -75t-116.5 -34q-61 0 -94 10t-56.5 23.5t-46 25t-61.5 11.5t-72 -13.5t-55 -29.5q-27 -20 -49 -45zM43 29q18 14 41 26q20 10 49 19.5t66 9.5q45 0 72.5 -10.5t52 -23.5t53.5 -23.5t80 -10.5q35 0 70.5 16.5t64.5 35t46 34.5l17 17q-20 -8 -43 -17 q-20 -6 -45.5 -10t-56.5 -4q-37 0 -67.5 14.5t-60.5 31t-62.5 30.5t-75.5 14t-80 -23.5t-64 -52.5q-33 -33 -57 -73zM145 240q10 10 19 36q6 23 12 64t6 113v600q0 57 11.5 104t31 88t45 78t56.5 72q37 41 89 70.5t105 36.5t98.5 -10t65.5 -71l-53 -35q-23 57 -59.5 72 t-73.5 8q-43 -8 -90 -36q29 4 57 0q25 -4 51.5 -17.5t44.5 -46.5l-24 -14q-31 37 -64 44t-61 1q-33 -8 -62 -29q-6 -18 -14 -49q-6 -27 -11.5 -71t-2.5 -111v-541q0 -127 -26 -200.5t-54 -114.5q-37 -47 -80 -64zM182 268q20 16 39 56q14 33 26.5 93t12.5 158v525 q-4 41 0 76.5t10 62.5q9 30 17 53q-25 -31 -45 -67q-16 -31 -30.5 -74t-12.5 -90v-586q0 -74 -2 -116t-7 -62q-4 -23 -8 -29zM398 558q3 -36 32 -58q41 -35 75 -32t60 19q31 18 56 54q-25 -10 -48 -13q-23 -4 -47 1.5t-51 25.5t-36 47t-11 51q-2 29 4 60q-20 -45 -29 -84 q-8 -35 -5 -71zM508 831q51 20 104 19q45 -4 94.5 -29.5t86.5 -101.5q31 -63 36 -135t0 -131q-6 -72 -22 -142q37 78 59 160q16 70 19.5 148.5t-35.5 150.5q-53 94 -112.5 115.5t-110.5 9.5q-59 -14 -119 -64zM870 0q20 25 48 61.5t50.5 92t39 129t16.5 170.5v600 q0 57 11.5 104t30.5 88t45 78t56 72q37 41 89.5 70.5t105.5 36.5t98 -10t66 -71l-53 -35q-23 57 -60 72t-74 8q-43 -8 -90 -36q29 4 58 0q25 -4 51 -17.5t45 -46.5l-25 -14q-31 37 -63.5 44t-61.5 1q-33 -8 -61 -29q-6 -18 -14 -49q-6 -27 -11.5 -71t-3.5 -111v-541 q0 -127 -19.5 -208t-41.5 -128q-27 -55 -62 -86l21 10q10 4 20.5 7.5t20.5 3.5q20 0 46 -10.5t52.5 -24t51 -23.5t42.5 -10q33 0 56.5 5t40.5 11q18 8 28 17l86 90l19 -21l-101 -106q-33 -35 -69 -62q-31 -23 -68 -42t-72 -19q-37 0 -65.5 11.5t-53 23.5t-44 23.5 t-37.5 11.5q-23 0 -45.5 -14.5t-38.5 -30.5q-23 -20 -39 -43zM948 57l2 4q4 4 22.5 13.5t47.5 9.5q18 0 39.5 -10.5t46 -23.5t52.5 -23.5t59 -10.5q29 0 58.5 15.5t55.5 34.5q31 23 60 51q-14 -8 -31 -17q-14 -6 -33.5 -11t-44.5 -5q-37 0 -65.5 9t-54 21.5t-49 21.5 t-46.5 9q-20 0 -39.5 -11t-35 -24.5t-27 -27.5t-15.5 -21q-2 -2 -2 -4zM1001 186q27 39 50 97q18 47 34.5 120.5t16.5 171.5v525q-4 41 0 76.5t10 62.5q8 30 16 53q-25 -31 -45 -67q-16 -31 -30.5 -74t-12.5 -90v-586q0 -82 -6 -136t-14 -89q-8 -39 -19 -64z" />
<glyph unicode="&#x42c;" horiz-adv-x="962" d="M0 0q27 61 63 113q33 43 80 78.5t113 35.5q49 0 92 -13t85 -28.5t83 -28t88 -12.5t75 14.5t44 30.5q18 20 27 46q33 82 51 163q16 72 16 154t-37 156q-41 78 -91 103.5t-95 21.5q-53 -4 -105 -33q-18 -35 -24 -72q-4 -31 3 -65.5t42 -61.5q41 -35 71.5 -36t53.5 12 q25 14 45 43l16 -9q-39 -68 -84 -108q-39 -35 -89 -49.5t-105 30.5q-20 14 -28.5 38t-8.5 50.5t7 55t18 57.5q23 66 65 137q63 84 135 117q31 14 66 18.5t73.5 -9t78.5 -47.5t81 -95q41 -63 44 -139t-19.5 -156t-64.5 -155.5t-93 -139.5q-43 -61 -96 -108 q-45 -41 -102.5 -75t-116.5 -34q-61 0 -94 10t-56.5 23.5t-46 25t-61.5 11.5t-72 -13.5t-55 -29.5q-27 -20 -49 -45zM43 29q18 14 41 26q20 10 49 19.5t66 9.5q45 0 72.5 -10.5t52 -23.5t53.5 -23.5t80 -10.5q35 0 70.5 16.5t64.5 35t46 34.5l17 17q-20 -8 -43 -17 q-20 -6 -45.5 -10t-56.5 -4q-37 0 -67.5 14.5t-60.5 31t-62.5 30.5t-75.5 14t-80 -23.5t-64 -52.5q-33 -33 -57 -73zM145 240q10 10 19 36q6 23 12 64t6 113v600q0 57 11.5 104t31 88t45 78t56.5 72q37 41 89 70.5t105 36.5t98.5 -10t65.5 -71l-53 -35q-23 57 -59.5 72 t-73.5 8q-43 -8 -90 -36q29 4 57 0q25 -4 51.5 -17.5t44.5 -46.5l-24 -14q-31 37 -64 44t-61 1q-33 -8 -62 -29q-6 -18 -14 -49q-6 -27 -11.5 -71t-2.5 -111v-541q0 -127 -26 -200.5t-54 -114.5q-37 -47 -80 -64zM182 268q20 16 39 56q14 33 26.5 93t12.5 158v525 q-4 41 0 76.5t10 62.5q9 30 17 53q-25 -31 -45 -67q-16 -31 -30.5 -74t-12.5 -90v-586q0 -74 -2 -116t-7 -62q-4 -23 -8 -29zM398 558q3 -36 32 -58q41 -35 75 -32t60 19q31 18 56 54q-25 -10 -48 -13q-23 -4 -47 1.5t-51 25.5t-36 47t-11 51q-2 29 4 60q-20 -45 -29 -84 q-8 -35 -5 -71zM508 831q51 20 104 19q45 -4 94.5 -29.5t86.5 -101.5q31 -63 36 -135t0 -131q-6 -72 -22 -142q37 78 59 160q16 70 19.5 148.5t-35.5 150.5q-53 94 -112.5 115.5t-110.5 9.5q-59 -14 -119 -64z" />
<glyph unicode="&#x42d;" horiz-adv-x="823" d="M1 999.5q3 67.5 31.5 136t70.5 127t75 87.5t91.5 71.5t132 67t155.5 11.5t164 -95q86 -88 116.5 -216t19.5 -270.5t-59 -286t-120 -259.5q-47 -78 -103.5 -146.5t-117 -119t-122 -79t-119.5 -28.5t-112.5 35t-97.5 110l17 15q33 -55 68.5 -87t71.5 -44.5t70.5 -10.5 t65.5 13q72 25 141 94q-59 -27 -118 -25q-51 0 -108.5 27t-107.5 104l44 56q33 -49 86 -83t115.5 -38t128 29.5t122.5 117.5q49 72 80 142.5t45 146.5t12 161t-20 187q-12 63 -36 136t-66 133.5t-102 100.5t-144 40q-57 0 -96 -11.5t-62 -23.5q-29 -16 -45 -35 q-23 -59 -31 -112q-8 -47 -4 -94.5t37 -77.5q35 -33 67.5 -38t61.5 1q33 8 61 28l41 47l19 -12q-59 -86 -123 -137q-27 -23 -57.5 -39t-63.5 -21.5t-65.5 6t-63.5 42.5q-49 49 -46 116.5zM20.5 1002.5q-2.5 -58.5 38.5 -105.5q39 -47 83 -47t83 20q45 23 88 68 q-29 -14 -61 -20q-29 -4 -61.5 2t-65.5 34q-33 29 -41 73t-4 89q4 51 18 109q-39 -57 -59 -115q-16 -49 -18.5 -107.5zM217 1350q20 6 45 12q23 4 49.5 9t61.5 5q49 0 102 -16.5t102.5 -62.5t91 -126.5t66.5 -209.5q20 -102 22.5 -178t-1.5 -126q-6 -59 -21 -98 q45 123 64 250q16 109 5 232.5t-77 234.5q-37 61 -79 97t-85 52.5t-85 17.5t-81 -7q-90 -20 -180 -86zM365 692q2 12 10 23q6 8 16 15t29 7q23 0 39 -9t32.5 -21.5t33 -21.5t38.5 -9q23 0 36 8t24 18q10 12 16 29l2 -22q-4 -14 -12 -25q-8 -10 -23.5 -17.5t-40.5 -7.5 q-29 0 -49 9.5t-37.5 21.5t-32 21.5t-26.5 9.5q-14 0 -23.5 -7t-15.5 -16q-8 -10 -12 -22zM389 784q4 12 12 23q8 8 19.5 15t30.5 7q23 0 35 -4t25 -9t31.5 -9t53.5 -4q12 0 25.5 4t25.5 8q14 6 29 14l2 -16q-6 -18 -16 -31q-10 -12 -25.5 -21t-40.5 -9q-29 0 -49.5 9 t-37.5 21.5t-31.5 21.5t-26.5 9q-14 0 -23.5 -7t-15.5 -15q-8 -10 -13 -23z" />
<glyph unicode="&#x42e;" horiz-adv-x="1945" d="M2 274q4 41 14 78q23 88 82 180q59 82 125 130q27 20 58.5 34.5t63.5 16.5t65.5 -11.5t64.5 -46.5q20 -23 26.5 -46t4.5 -48.5t-12.5 -51.5t-24.5 -48q-33 -53 -88 -109l-12 13q14 37 18 73q4 31 -5 65t-42 58q-35 25 -74 22t-69 -20q-37 -18 -72 -47q-20 -61 -19 -117 q2 -49 26 -101t91 -93q68 -41 126.5 -45t103.5 6q51 12 94 43l45 53q10 16 18 51q6 29 12.5 77t6.5 120v565q0 84 10 121q6 20 12 31l19 -8q-6 -12 -13 -35q-4 -18 -8 -48t-4 -71v-555q0 -68 -2 -109t-6 -63q-4 -25 -8 -35q20 20 39 57q16 33 27.5 89.5t11.5 146.5v502 q-2 66 8 108.5t22 67.5q14 29 35 41l19 -19q-6 -18 -13 -45q-10 -51 -10 -143v-481q0 -76 -11.5 -129.5t-25.5 -87.5q-16 -41 -35 -68l-176 -197q-61 -70 -129 -106q-59 -33 -135 -40t-160 54q-41 31 -62.5 67t-28.5 74.5t-3 79.5zM18.5 250.5q-0.5 -31.5 10 -63t31 -62 t55.5 -57.5q37 -29 72.5 -41.5t69.5 -11.5t65.5 11.5t58.5 26.5q63 37 119 101q-41 -23 -90 -31q-41 -8 -95.5 -5t-113.5 32q-66 29 -92.5 80t-36.5 98q-10 55 -2 118q-37 -68 -47 -135q-4 -29 -4.5 -60.5zM102.5 1126q-2.5 50 16.5 101q23 59 67 125q31 41 68 75 q29 29 66.5 53.5t72.5 24.5q43 0 81 -10t72 -22.5t66.5 -22.5t63.5 -10q39 0 62.5 4t37.5 8q16 6 25 14l18 -12q-31 -43 -67 -78q-33 -29 -80 -53.5t-107 -24.5q-37 0 -66.5 10.5t-57 24t-56.5 23.5t-61 10q-37 0 -59.5 -8t-37.5 -19q-16 -10 -22 -24q-8 -25 -6 -47 q0 -20 9 -41t32 -37q35 -27 67.5 -27t57.5 11q29 10 53 34l10 -12q-37 -61 -80 -100q-37 -35 -85 -55.5t-101 6.5q-57 29 -59.5 79zM121 1178q-6 -33 3 -66t56 -53q35 -16 70 -3t63 36q33 25 62 65q-20 -18 -45 -29q-23 -10 -50.5 -12t-56.5 12q-35 16 -50 38t-19 42 q-6 23 0 49q-25 -43 -33 -79zM176 592q31 12 64 14q29 2 62.5 -6t64.5 -35q20 -18 28 -41.5t13 -46.5q4 -25 0 -51q29 43 43 82q12 35 10 70.5t-35 64.5q-37 31 -81 26t-81 -22q-45 -20 -88 -55zM225 1362l25 10q12 4 31.5 8t46.5 4q35 0 64.5 -10t58 -22.5t59.5 -23.5 t68 -11q39 0 83 22.5t74 55.5l-4 4q-10 -2 -32.5 -8.5t-53.5 -6.5q-47 0 -81 13.5t-63.5 29t-58 28.5t-65.5 13q-23 0 -48.5 -16t-47.5 -37q-27 -23 -56 -53zM778 692q2 12 10 23q6 8 16.5 15t29.5 7q23 0 37 -9t27 -21.5t27.5 -21.5t37.5 -9t36 8t23 18q10 12 16 29l2 -22 q-4 -14 -12 -25q-8 -10 -23.5 -17.5t-39.5 -7.5q-29 0 -47.5 9.5t-33 21.5t-26.5 21.5t-24 9.5q-14 0 -23.5 -7t-15.5 -16q-8 -10 -13 -22zM803 784q4 12 12 23q8 8 19.5 15t29.5 7q23 0 33 -4t21.5 -9t27 -9t49.5 -4q12 0 25.5 4t26.5 8q14 6 28 14l2 -16q-6 -18 -16 -31 q-10 -12 -25.5 -21t-40.5 -9q-29 0 -47 9t-32.5 21.5t-26.5 21.5t-25 9q-14 0 -23.5 -7t-15.5 -15q-8 -10 -12 -23zM1026 526q10 109 33.5 188t48.5 132q29 61 61 106q-2 33 7 74q6 35 23.5 84t51.5 109q33 57 78 116.5t100.5 104.5t122 66t140.5 7q76 -16 136 -71.5 t98 -142.5t50.5 -202.5t-8.5 -250.5q-20 -123 -63 -268.5t-111 -273.5t-159 -217t-208 -101q-82 -8 -159.5 22.5t-136 99t-89 174t-16.5 244.5zM1044 401q2 -51 14.5 -104t39 -102.5t69 -92t105.5 -73.5q45 -23 88 -28t81 3t70.5 24.5t61.5 37.5q66 49 119 124 q-49 -35 -107 -53q-51 -16 -118.5 -19t-149.5 27q-47 16 -82 48t-60.5 71t-43 83t-29.5 87q-27 100 -31 219q-35 -133 -27 -252zM1130.5 728.5q-2.5 -66.5 5 -140.5t28 -143.5t56 -129t89.5 -96.5q55 -37 124.5 -44t136 9.5t119 50t70.5 76.5l86 187q14 31 22.5 96t8.5 146 t-9 171t-32 170t-59.5 143.5t-89.5 94.5q-90 49 -163 42t-126 -36q-61 -33 -109 -90q-16 -49 -16 -100q-2 -43 12 -96.5t59 -100.5q35 -41 71 -45t65 8q33 12 63 45l21 -14q-25 -47 -60 -74q-31 -23 -76 -29t-106 35q-41 25 -60.5 67t-29.5 83q-10 47 -12 100 q-20 -74 -21 -141q0 -59 20.5 -123t81.5 -105q53 -37 98.5 -27.5t80.5 34.5q39 29 73 77l17 -12q-33 -47 -74 -78q-35 -27 -86 -38t-117 22q-39 18 -62.5 51t-35.5 68q-16 37 -23 82q-16 -27 -27 -78t-13.5 -117.5zM1360 1331q57 29 117 39q51 10 112.5 5t118.5 -44 q43 -31 73.5 -72.5t53.5 -91t37 -102.5t22 -104q21 -121 15 -254q25 152 16 288q-4 57 -13 119t-29.5 119t-53.5 107.5t-80 84.5q-82 57 -153.5 51t-122.5 -38q-61 -37 -113 -107z" />
<glyph unicode="&#x42f;" horiz-adv-x="1234" d="M2 106l14 13q29 -41 59.5 -63.5t60.5 -32t58.5 -7.5t53.5 13q59 23 117 77q-51 -23 -103 -22q-43 0 -89 22.5t-81 90.5l53 49q27 -61 67 -84t79 -27q45 -4 92 12q6 23 12 60q4 31 9.5 80t5.5 121q0 55 2 91t12 63.5t32.5 51t65.5 56.5q-29 -4 -59 4q-27 6 -56.5 21.5 t-56.5 49.5q-43 55 -51 126t13.5 150t71.5 164t124 169q70 78 145.5 115.5t145 37.5t129 -34.5t94.5 -102.5l-49 -27q-55 78 -121 95.5t-125 7.5q-68 -12 -135 -55q51 20 104 18q43 -2 91.5 -24.5t82.5 -88.5l-16 -8q-35 59 -82 83t-95 23t-89 -20.5t-66 -44.5 q-23 -25 -39 -85t-20 -128.5t4 -132t35 -96.5q35 -43 72.5 -57.5t71.5 -10.5t62.5 18.5t45.5 30.5l100 101v116l16 13v-830q0 -80 10.5 -131t27 -78.5t38 -37t43.5 -5.5q53 8 121 72q-51 0 -90 25q-35 23 -61.5 70.5t-26.5 146.5v811l61 57v-768q0 -78 7.5 -132t19.5 -88 t28.5 -50.5t32.5 -22.5q37 -14 88 23l86 90l19 -21l-100 -106q-20 -25 -52 -52.5t-68 -46t-71 -23.5t-63.5 15.5t-47 71.5t-18.5 143v682q-53 -53 -108.5 -104t-118.5 -94q-20 -18 -34.5 -33.5t-24 -45.5t-14.5 -80t-5 -136q0 -55 -13.5 -99.5t-34 -80t-46 -65.5t-47.5 -54 q-31 -35 -79 -69t-105.5 -47t-115 7.5t-106.5 93.5zM313.5 904.5q-1.5 -80.5 55.5 -150.5q51 -63 108.5 -64.5t106.5 21.5q57 27 114 82q-41 -20 -82 -25q-35 -4 -76.5 7t-76.5 52q-47 53 -58.5 119t-7.5 125q6 68 29 139q-57 -78 -86 -157q-25 -68 -26.5 -148.5zM403 154 q23 12 41 47q16 29 29.5 82t13.5 145q0 76 6.5 122t14.5 68q8 27 22 37q-39 -33 -60 -53t-30.5 -42.5t-11.5 -55.5t-2 -90q0 -78 -4 -129.5t-8 -79.5q-6 -35 -11 -51z" />
<glyph unicode="&#x430;" horiz-adv-x="968" d="M0 227l178 189q53 66 117 119q53 45 122.5 82.5t145.5 37.5q49 0 82 -17t55 -38q23 -25 39 -55l-43 -41q-12 29 -32 51q-16 20 -44 36.5t-69 16.5t-79 -10t-66 -23q-35 -14 -66 -30q10 4 29 8q14 4 36.5 6t51.5 2q43 0 71.5 -11t46.5 -26q23 -16 35 -37l-20 -18 q-10 20 -29 37q-16 14 -39.5 26.5t-58.5 12.5q-72 0 -112 -17.5t-54 -33.5q-16 -18 -29.5 -53t-20.5 -75t-4 -81t23 -72q41 -61 90.5 -79.5t94.5 -16.5q53 2 106 26q23 23 41 45.5t37 44.5v136l16 14v-285q0 -10 2 -23.5t9.5 -26.5t22.5 -22.5t40 -9.5q18 0 33.5 5.5 t25.5 13.5q12 8 21 20q-10 -4 -19 -4q-20 -4 -36 10q-37 25 -37 95v268l61 47v-293q0 -10 1 -24.5t4 -27.5t11.5 -21.5t22.5 -8.5q10 0 23.5 6.5t23.5 14.5q12 8 23 20l106 113l19 -21q-33 -35 -60 -63q-23 -25 -46 -50.5t-34 -35.5q-23 -23 -55.5 -51.5t-87.5 -28.5 t-72.5 28.5t-17.5 69.5v101q-16 -20 -33 -43q-16 -18 -33.5 -38t-38.5 -34q-55 -43 -112 -66q-49 -18 -107.5 -19t-113.5 44q-53 49 -65.5 102.5t-8.5 100.5q6 53 31 104l-136 -143zM147 165.5q9 -59.5 70 -112.5q43 -39 94 -36t95 20q51 20 102 57q-39 -14 -78 -18 q-35 -4 -78 3t-86 36q-41 27 -55 74t-16 94q-2 53 10 112q-41 -59 -55 -119q-12 -51 -3 -110.5z" />
<glyph unicode="&#x431;" horiz-adv-x="763" d="M0 227l299 316l20 -17q-49 -39 -71 -88q-18 -43 -13 -102.5t66 -130.5q51 -59 109.5 -61.5t107.5 18.5q57 23 115 74q8 57 2 112q-4 47 -21.5 103.5t-58.5 107.5q-37 45 -76 85t-72.5 77t-56 73.5t-28.5 75.5q-4 39 3 77t21 74t32.5 65.5t37.5 54.5q45 63 85 93t72.5 39 t60.5 4t52 -11q35 -8 67.5 -6t59.5 6q31 6 57 14l17 -16q-35 -18 -72 -31q-31 -10 -69.5 -17.5t-73.5 1.5q-25 6 -46.5 9t-44 0t-48 -15.5t-56.5 -36.5q35 16 62.5 14t51 -11.5t44 -19.5t39.5 -10q31 0 55.5 8t40.5 19q20 12 35 28l18 -10q-20 -18 -43 -31 q-20 -12 -49 -21.5t-63 -9.5q-25 0 -46.5 10.5t-45 19.5t-52 8t-67.5 -21q-10 -18 -17 -41q-4 -20 -7 -51t7 -74q10 -59 50 -113.5t86.5 -108.5t88.5 -108.5t54 -109.5q16 -70 12 -128.5t-22.5 -107.5t-47 -93t-59.5 -85q-47 -59 -101.5 -87t-103.5 -36t-90 -1t-61 22 q-53 35 -80 84t-37 96q-12 53 -8 110l-103 -108zM141 330q-2 -63 11 -119q10 -47 34.5 -95t75.5 -77q59 -35 116.5 -21.5t104.5 41.5q53 35 103 88q-41 -23 -86 -34q-39 -10 -88.5 -12.5t-102.5 20.5t-75.5 67.5t-28.5 92.5q-8 53 0 116zM343 938q-7 -39 3 -80 q6 -35 56.5 -98.5t115.5 -124.5q63 -57 94 -119.5t41 -116.5q12 -63 9 -125q27 78 24 158q-2 68 -30.5 145.5t-110.5 145.5q-76 59 -106.5 121.5t-41.5 111.5q-10 57 0 113q-20 -29 -35 -63q-12 -29 -19 -68z" />
<glyph unicode="&#x432;" horiz-adv-x="864" d="M0 227l242 258v330q0 76 12 126t29 79q18 35 41 53l6 -12q-20 -18 -37 -53q-14 -29 -24.5 -77t-10.5 -118v-313l61 67v381q0 57 33 124t92 130q27 29 62 49.5t71.5 26.5t71.5 -5t64 -44q27 -33 28.5 -74t-11.5 -82t-36.5 -82t-44.5 -73q-29 -43 -74 -99.5t-88 -107.5 q-51 -59 -106 -121v-299q0 -23 2 -49.5t8 -51t19.5 -46t35.5 -33.5q47 -23 92.5 -19t61.5 19q8 8 20.5 27.5t21.5 49t12 67.5t-5 81q-12 57 -32.5 87t-43.5 44q-25 16 -51 18l6 19q33 -4 62 -25q25 -16 46 -49t32 -88q12 -86 -3.5 -136t-19.5 -59q16 14 34.5 36t34 51.5 t23.5 70.5t2 98t-23.5 88t-35.5 48q-23 18 -47 22l22 53q31 -10 58 -30q23 -16 44 -46t27 -77q12 -92 2 -138.5t-12 -52.5q-6 -23 -29.5 -51.5t-53 -57t-61.5 -55t-55 -45.5q-37 -29 -73.5 -45t-85.5 -16q-37 0 -69 8t-55.5 27.5t-36.5 52.5t-13 82v274l-224 -237zM258 170 q0 -18 6 -45t22.5 -51.5t48.5 -41t83 -16.5q23 0 44 7.5t38 17.5q18 10 35 25q-29 -4 -54 -7q-23 -2 -45.5 1.5t-38.5 17.5q-29 25 -52 64.5t-26 93.5v288l-61 -65v-289zM381 631l168 221q23 31 35 70q10 35 15 80t-11 104q-16 35 -39 49t-45 19q-25 6 -53 0 q-20 -16 -35 -41q-14 -23 -24.5 -54.5t-10.5 -79.5v-368zM481 1202q20 -2 43 -10q18 -8 39 -24.5t37 -45.5q16 -31 20.5 -66.5t0.5 -64.5q-4 -35 -13 -67q39 49 62 98q18 41 24.5 88t-26.5 86t-66 44t-59 -3q-33 -10 -62 -35z" />
<glyph unicode="&#x433;" horiz-adv-x="679" d="M0 227l307 328q33 35 71 59.5t74.5 34.5t68.5 5t50 -27q18 -23 22.5 -47.5t-3.5 -50t-23.5 -51t-36.5 -46.5l-137 -149q-8 -29 -8 -56q0 -23 7 -47t30 -41q29 -23 60.5 -23.5t58.5 5.5q31 8 59 24l100 105l19 -21l-119 -129q-35 -37 -79 -61.5t-87 -33.5t-81 -4t-60 26 q-20 18 -28.5 43.5t-3.5 56.5t21.5 62.5t47.5 60.5l106 115q8 29 13 55q4 23 2 47.5t-17 40.5q-27 29 -54.5 26.5t-49.5 -14.5q-27 -14 -54 -43l-258 -270zM279.5 101.5q-1.5 -33.5 33.5 -60.5q39 -31 83 -24.5t81 24.5q43 23 86 59q-33 -10 -65 -14q-29 -4 -59.5 -1 t-53.5 19q-25 16 -34 40t-9 44q-2 23 6 50q-33 -35 -51 -72q-16 -31 -17.5 -64.5zM354 553q14 6 31 4q14 -2 31.5 -9t34.5 -26q12 -14 16 -33.5t4 -35.5q0 -23 -4 -43q33 31 55 63q18 29 25.5 60.5t-17.5 60.5q-27 29 -56.5 24.5t-55.5 -18.5q-31 -18 -64 -47z" />
<glyph unicode="&#x434;" horiz-adv-x="874" d="M0 227l178 189q53 66 117 119q53 45 122.5 82.5t145.5 37.5q49 0 82 -17t55 -38q23 -25 39 -55l-43 -41q-12 29 -32 51q-16 20 -44 36.5t-69 16.5t-79 -10t-66 -23q-35 -14 -66 -30q10 4 29 8q14 4 36.5 6t51.5 2q43 0 71.5 -11t46.5 -26q23 -16 35 -37l-20 -18 q-12 20 -31 37q-16 14 -39.5 26.5t-56.5 12.5q-66 0 -109 -17.5t-57 -33.5q-16 -18 -29.5 -53t-20.5 -75t-4 -81t23 -72q41 -61 90.5 -79.5t94.5 -16.5q53 2 106 26l78 93v135l16 14v-397l62 65v371l61 47v-352l121 131l18 -21q-33 -35 -59 -63q-23 -25 -46.5 -50.5 t-33.5 -35.5v-465q0 -49 -8 -83t-26.5 -66.5t-49.5 -68.5t-80 -87q-37 -41 -84 -75t-96 -50t-96 -12t-86 41q-80 74 -55.5 187.5t131.5 231.5q53 59 108 119t100 109q53 57 103 110v226q-16 -20 -33 -41q-16 -16 -33.5 -37t-38.5 -35q-55 -43 -112 -66q-49 -18 -107.5 -19 t-113.5 44q-53 51 -67.5 104.5t-10.5 98.5q6 53 31 100l-132 -139zM140.5 172q9.5 -60 70.5 -115q47 -41 98 -40t97 18q53 20 102 59q-39 -14 -78 -18q-35 -4 -78 3t-86 36q-41 27 -55 74t-16 94q-2 53 10 112q-43 -57 -60 -114q-14 -49 -4.5 -109zM210 -658.5 q1 -54.5 48 -105.5q41 -45 90 -44t92 17q51 20 103 62q-41 -8 -80 -6q-35 2 -71 10t-60 33q-31 29 -41 69.5t-10 79.5q0 45 10 92q-41 -53 -64 -106q-18 -47 -17 -101.5zM328 -484q-6 -46 0 -90t30 -71q25 -27 56.5 -43.5t62.5 -20.5t58 2.5t45 22.5t28 54t16.5 81t8.5 85 t2 67v327l-250 -266q-18 -20 -34.5 -61t-22.5 -87zM631 -641q25 25 43 66q16 35 28.5 95t10.5 154v338l-62 -65v-320q0 -53 -3 -101t-7 -85z" />
<glyph unicode="&#x435;" horiz-adv-x="608" d="M0 227l307 328q78 84 146.5 96.5t109.5 -28.5q18 -18 20.5 -47t-6 -59t-21.5 -57.5t-28 -41.5l-219 -246q8 -12 23 -20q12 -8 31.5 -16.5t50.5 -12.5q43 -6 79.5 8t63.5 43l72 76l18 -21l-121 -129q-12 -12 -31.5 -29.5t-44 -32.5t-54 -26.5t-62.5 -11.5q-84 0 -127 35 t-64 110q-10 43 -4 88.5t19 79.5q14 41 37 80l-177 -186zM165 157q5 -50 40 -85q49 -53 98 -55.5t88 16.5q45 23 88 65q-37 -14 -73 -16q-33 -2 -72 10t-80 51q-29 25 -38 63t-13 73q-4 41 2 86q-27 -57 -35 -111q-10 -47 -5 -97zM253 354.5q-1 -24.5 1 -47.5q2 -47 20 -82 q8 -18 19 -32l143 157q12 31 21 60q6 25 4 53.5t-19 52.5q-18 23 -44.5 19.5t-51.5 -15.5q-29 -14 -61 -41l-25 -35q-2 -23 -4 -45q-2 -20 -3 -44.5zM330 541q20 12 43 16q18 4 40.5 0t41.5 -25q12 -14 18 -34.5t8 -42.5q2 -25 0 -52q27 33 39 68q10 29 11.5 63.5 t-27.5 65.5q-23 23 -51.5 15.5t-57.5 -23.5q-33 -20 -65 -51z" />
<glyph unicode="&#x436;" horiz-adv-x="1536" d="M0 227l262 279q41 45 89 83t98.5 54t100.5 8t93 -51q29 -29 36 -68.5t3 -76.5q-4 -43 -18 -88l159 170v282q0 47 21.5 90t48.5 76q31 37 68 70q27 35 57 61q27 23 57.5 42.5t61.5 19.5q29 0 54.5 -11.5t43.5 -25.5q23 -16 39 -35l-62 -33q-10 18 -22 33 q-10 12 -24.5 21.5t-32.5 11.5q-18 0 -36 -7.5t-30 -17.5q-16 -10 -29 -24q10 2 25 0q27 -4 61 -21q18 -10 26.5 -25.5t12.5 -29.5q4 -16 2 -35h-22q4 25 -4 45q-8 16 -28.5 30.5t-68.5 14.5q-35 0 -51 -27.5t-22 -64.5t-6 -74v-57v-641l301 323q31 35 61 64q27 23 56.5 43 t54.5 20q51 0 78.5 -14t41.5 -31q16 -20 19 -43l-49 -35q-6 20 -17 37q-10 14 -26.5 25.5t-44.5 11.5q-20 0 -37 -6t-29 -14q-14 -8 -29 -19q14 4 31 2q14 -2 29.5 -7t30.5 -15q23 -18 32 -45q6 -12 9 -27l-29 -6q-6 23 -14 41q-10 16 -24.5 29.5t-43.5 13.5q-47 0 -96 -51 q-25 -27 -40.5 -74t-18.5 -96t7.5 -94t34.5 -70q37 -35 72 -45t63.5 -6t49 15t30.5 22l90 96l19 -21q-33 -35 -59 -63q-23 -25 -46.5 -50.5t-33.5 -35.5q-47 -41 -101 -64q-45 -18 -98 -17t-100 48q-12 12 -25.5 37t-21 61.5t-4 81.5t25.5 97l-149 -158v-490 q-2 -53 -11.5 -93t-21.5 -68.5t-25.5 -51t-25.5 -43.5q-12 -23 -28.5 -40t-31.5 -31q-16 -16 -33 -29q-18 -43 -45 -76q-23 -29 -56.5 -51t-74.5 -22t-69.5 12t-44.5 29q-20 18 -33 40l22 11q10 -23 29 -39q16 -14 40 -25.5t58 -11.5q29 0 54.5 16.5t44.5 38.5q23 25 41 58 q-16 -8 -37 -17q-16 -6 -40 -9t-50 1q-25 4 -43.5 13.5t-32.5 19.5q-16 12 -27 28l53 41q6 -14 17 -24q10 -10 25.5 -17.5t44.5 -11.5q18 -4 37.5 0t35.5 10q18 8 35 17q12 14 23 49q10 29 18 79t12 134v883l-413 -443q-18 -20 -48 -36.5t-90 -16.5q-51 0 -77.5 14.5 t-38.5 30.5q-14 20 -17 45l21 10q2 -25 14 -43q10 -16 33.5 -28.5t66.5 -12.5q23 0 42.5 7.5t35.5 17.5t31 27q-18 -2 -37 -2q-16 0 -34.5 1t-37.5 9q-18 8 -30.5 19t-20.5 22q-8 12 -14 26l47 37q2 -12 10 -24q6 -10 20.5 -21.5t37.5 -19.5q74 -27 161 55q23 20 43.5 62 t29.5 89.5t5 93.5t-31 74q-37 39 -80.5 43.5t-84.5 -8t-73 -35t-42 -34.5l-234 -248zM344 543q33 10 68 12q29 0 64.5 -9t70.5 -44q27 -27 34 -66t5 -74q-3 -43 -15 -88q33 45 52 97q16 41 16 92t-35 98q-39 49 -84 53t-84 -12q-47 -18 -92 -59zM819 -606q23 25 41 61 q16 31 28.5 79t12.5 114v1159q0 82 6 125q2 25 6 43q-20 -20 -36 -47q-14 -23 -25.5 -57.5t-11.5 -77.5v-1123q2 -72 -1 -124t-8 -87q-6 -39 -12 -65zM1107 159.5q3 -53.5 48 -100.5q37 -41 81 -43t81 15q43 18 88 53q-35 -8 -72 -6q-31 2 -64.5 11t-60.5 38t-37 67.5 t-12 77.5q-2 43 4 93q-33 -51 -47 -105q-12 -47 -9 -100.5z" />
<glyph unicode="&#x437;" horiz-adv-x="724" d="M0 227l340 363q27 27 61.5 44t70.5 20t67.5 -7t54.5 -37q29 -35 38 -74.5t3 -79.5t-25.5 -78t-44.5 -65l-172 -184q47 12 94.5 -12.5t77.5 -59.5l180 193l19 -21q-45 -47 -82 -86q-33 -35 -62.5 -67.5t-39.5 -42.5q20 -25 36 -62q14 -33 24.5 -82t10.5 -118 q-2 -94 -22.5 -167t-49 -128.5t-61.5 -95t-57 -70.5q-37 -41 -84 -75t-96.5 -50t-96.5 -12t-86 41q-80 74 -55 187.5t131 231.5q53 59 103.5 113.5t89.5 95.5q45 49 86 92q-45 49 -93.5 69t-101.5 -7l-20 8l247 266q12 49 19 92q4 37 0 76t-27 62q-29 31 -68.5 25.5 t-78.5 -25t-69 -44t-38 -32.5l-205 -217zM62 -661.5q0 -57.5 47 -108.5q41 -45 90 -43t92 20q51 23 102 64q-41 -8 -80 -6q-35 2 -70.5 10t-60.5 33q-31 29 -41 70.5t-10 82.5q0 47 8 97q-41 -55 -61 -113q-16 -49 -16 -106.5zM178 -484q-6 -46 0 -90t31 -71t56.5 -43.5 t62 -20.5t57.5 2.5t45 22.5q63 72 81.5 163t18.5 210q0 59 -10 100t-20 70q-14 33 -31 53l-233 -248q-18 -20 -35 -61t-23 -87zM297 27q47 6 84 -12.5t86 -65.5l61 67q-27 39 -72.5 64.5t-97.5 11.5zM326 530q25 12 51 17q23 4 51 -2t57 -31q25 -23 33 -57.5t8 -69.5 q0 -39 -8 -82q33 45 49 94q14 41 12.5 89.5t-36.5 91.5q-33 37 -70 33.5t-70 -21.5q-37 -23 -77 -62zM483 -72q16 -20 29 -51q10 -27 20.5 -64.5t14.5 -88.5q2 -43 2 -84v-74q0 -37 -2 -72q16 23 26 57q10 29 17.5 75t7.5 112q-2 66 -10 115t-19 79q-12 37 -26 60z" />
<glyph unicode="&#x438;" d="M0 227l283 301q53 55 82.5 87t43 39.5t15.5 -12t2 -67.5v-323q0 -47 1 -80t7 -45t21.5 0t46.5 53l342 475h35v-403q0 -61 8 -91t20.5 -38t28.5 2t33 29l90 96l18 -21q-33 -35 -59 -63q-23 -25 -46.5 -50.5t-33.5 -35.5q-47 -51 -84 -68.5t-62.5 -9.5t-39 38t-13.5 71v356 l-278 -385q-45 -53 -78 -70.5t-54.5 -9.5t-31.5 38t-10 71v268v52.5t-5.5 28.5t-18.5 -1t-40 -35l-205 -217zM303 111q0 -53 13.5 -75t33 -19t44 24.5t48.5 56.5q-23 -6 -39 2q-14 6 -26 24.5t-12 63.5v385l-62 -65v-256v-141zM756 111q0 -90 52 -93.5t118 80.5 q-33 -8 -56 0q-20 6 -36.5 25.5t-16.5 64.5v390l-61 -89v-303v-75z" />
<glyph unicode="&#x439;" d="M0 227l283 301q53 55 82.5 87t43 39.5t15.5 -12t2 -67.5v-323q0 -47 1 -80t7 -45t21.5 0t46.5 53l342 475h35v-403q0 -61 8 -91t20.5 -38t28.5 2t33 29l90 96l18 -21q-33 -35 -59 -63q-23 -25 -46.5 -50.5t-33.5 -35.5q-47 -51 -84 -68.5t-62.5 -9.5t-39 38t-13.5 71v356 l-278 -385q-45 -53 -78 -70.5t-54.5 -9.5t-31.5 38t-10 71v268v52.5t-5.5 28.5t-18.5 -1t-40 -35l-205 -217zM303 111q0 -53 13.5 -73t34 -16.5t45 26t46.5 50.5q-23 -6 -39 2q-14 6 -26 24.5t-12 63.5v387l-62 -65v-258v-141zM489 815l21 2q-2 -25 6 -43q6 -16 18.5 -28.5 t40.5 -12.5q20 0 38 8.5t32 18.5q16 12 29 28q-18 0 -35 5q-14 4 -28.5 10t-24.5 20q-10 16 -13.5 30.5t-3.5 25.5q0 12 4 22l37 8q0 -12 4 -22t9.5 -21.5t15.5 -19.5q12 -10 25.5 -13.5t23.5 -1.5q12 2 27 7l82 92l16 -12l-108 -123q-43 -43 -70 -60.5t-62 -17.5 q-37 0 -54 15.5t-23 33.5q-8 23 -7 49zM756 111q0 -45 14 -68t37.5 -23t54.5 19.5t64 58.5q-33 -8 -56 0q-20 6 -36.5 25.5t-16.5 64.5v390l-61 -89v-303v-75z" />
<glyph unicode="&#x43a;" horiz-adv-x="933" d="M0 227l283 301q53 55 82.5 87t43 38t15.5 -13t2 -67v-20v-182l213 227q18 20 45 36.5t55.5 20.5t58 -10t54.5 -53l-41 -33q-23 53 -69 55t-97 -47q12 2 23 0q10 -2 20 -5t21 -13q16 -23 18 -33q2 -8 2 -12l-18 -17q0 12 -2 23q-4 23 -19 31q-14 8 -28.5 7t-26.5 -5 q-14 -6 -29 -13l-180 -194v-223l-61 -62v524l-62 -67v-492l-16 -16v379v52.5t-5.5 28.5t-18.5 -1t-40 -35l-205 -217zM479 254q27 10 51 14q23 2 45.5 -4t38.5 -33q12 -18 13.5 -42.5t1.5 -49t2 -48t18 -42.5q37 -41 74 -26.5t96 75.5q-27 -10 -49 -12q-20 -2 -40.5 4 t-31.5 33q-8 18 -8 45t1 54.5t-3 53t-22 39.5q-23 16 -44.5 21.5t-37.5 3.5q-20 -2 -39 -12l-8 20q29 18 57 27q25 6 55.5 3t59.5 -30q27 -25 35 -53.5t9 -56t1 -51t12 -35.5q14 -16 30.5 -17.5t32.5 2.5q18 6 35 17l90 96l19 -21q-33 -35 -62 -65q-25 -27 -49 -53.5 t-35 -36.5q-47 -55 -105 -70.5t-95 33.5q-12 14 -13.5 39.5t-1.5 52.5t-2 51.5t-14 40.5q-16 20 -35.5 25.5t-36.5 3.5q-20 -2 -39 -12z" />
<glyph unicode="&#x43b;" horiz-adv-x="737" d="M-14 72l12 12q25 -35 42 -50.5t30.5 -16.5t26 7.5t28.5 24.5l45 45q-35 -16 -71 -8t-46 57l29 33q6 -41 38 -53t79 4l239 258v55q0 35 -10 52.5t-20 27.5q-14 10 -31 12l14 15q16 -2 31 -12q12 -10 22.5 -32t10.5 -61v-331q0 -90 52 -93.5t118 80.5q-33 -8 -56 0 q-20 6 -36.5 25.5t-16.5 64.5v314q0 49 -7 76.5t-15 39.5q-10 14 -23 17l21 20q23 -4 43 -18q16 -14 29.5 -41t13.5 -80v-264q0 -61 8 -91t20 -38t28.5 2t33.5 29l90 96l18 -21l-139 -149q-47 -51 -84 -68.5t-62.5 -9.5t-39 38t-13.5 71v233l-288 -307q-12 -14 -32 -25.5 t-43.5 -11.5t-47 15.5t-41.5 56.5z" />
<glyph unicode="&#x43c;" horiz-adv-x="1181" d="M-14 72l12 12q25 -35 42 -50.5t30.5 -16.5t26 7.5t28.5 24.5l45 45q-35 -16 -71 -8t-46 57l29 33q6 -41 38 -53t79 4l239 258v55q0 35 -10 52.5t-20 27.5q-14 10 -31 12l14 15q16 -2 31 -12q12 -10 22.5 -32t10.5 -61v-331q0 -90 52 -93.5t118 80.5q-33 -8 -56 0 q-20 6 -36.5 25.5t-16.5 64.5v314q0 49 -7 76.5t-15 39.5q-10 14 -23 17l21 20q23 -4 43 -18q16 -14 29.5 -41t13.5 -80v-264q0 -61 8 -91t20 -38t28.5 2t33.5 29l215 231v55q0 35 -10.5 52.5t-20.5 27.5q-14 10 -31 12l15 15q16 -2 30 -12q12 -10 22.5 -32t10.5 -61v-331 q0 -90 52.5 -93.5t117.5 80.5q-33 -8 -55 0q-20 6 -36.5 25.5t-16.5 64.5v314q0 49 -7.5 76.5t-15.5 39.5q-10 14 -23 17l21 20q23 -4 43 -18q16 -14 29.5 -41t13.5 -80v-264q0 -61 8 -91t20.5 -38t29 2t32.5 29l90 96l19 -21l-140 -149q-47 -51 -83.5 -68.5t-62.5 -9.5 t-39 38t-13 71v233l-246 -264q-47 -51 -84 -68.5t-62.5 -9.5t-39 38t-13.5 71v233l-288 -307q-12 -14 -32 -25.5t-43.5 -11.5t-47 15.5t-41.5 56.5z" />
<glyph unicode="&#x43d;" d="M0 227l283 301q53 55 82.5 87t43 39.5t15.5 -12t2 -67.5v-22v-440l-61 -62v524l-62 -67v-492l-16 -16v379v52.5t-5.5 28.5t-18.5 -1t-40 -35l-205 -217zM475 279q8 6 17 14q8 6 18 11t20 5q12 0 21.5 -8t16.5 -19.5t15.5 -19.5t20.5 -8t24.5 6t22.5 14q12 8 25 23l14 -8 q-14 -16 -28 -29q-12 -10 -29 -18.5t-33 -8.5q-12 0 -22.5 9.5t-18.5 19.5t-16 19.5t-17 9.5q-10 0 -26 -12q-8 -6 -13 -11zM479 358q6 14 21 25q12 10 31.5 18.5t50.5 8.5q25 0 43 -11.5t32 -25.5q16 -16 29 -37q-10 -10 -18 -17q-8 -4 -17.5 -5t-17.5 14q-26 39 -51 39 q-23 0 -39.5 -6.5t-26.5 -12.5q-12 -8 -20 -16zM739 111v432l17 12v-369v-75q0 -90 52 -93.5t118 80.5q-33 -8 -56 0q-20 6 -36.5 25.5t-16.5 64.5v422l62 45v-403q0 -61 8 -91t20.5 -38t28.5 2t33 29l90 96l18 -21q-33 -35 -59 -63q-23 -25 -46.5 -50.5t-33.5 -35.5 q-47 -51 -84 -68.5t-62.5 -9.5t-39 38t-13.5 71z" />
<glyph unicode="&#x43e;" horiz-adv-x="745" d="M0 227l178 189q53 66 117 119q53 45 122.5 82.5t145.5 37.5q49 0 82 -15t53.5 -35.5t29.5 -38t11 -21.5q12 -39 12.5 -80t-8 -80t-23.5 -71.5t-30 -57.5q-29 -43 -75 -93t-85 -79q-55 -43 -112 -66q-49 -18 -107.5 -19t-113.5 44q-53 49 -65.5 102.5t-8.5 100.5 q6 53 31 104l-136 -143zM147 165.5q9 -59.5 70 -112.5q43 -39 94 -36t95 20q51 20 102 57q-39 -14 -78 -18q-35 -4 -78 3t-86 36q-41 27 -55 74t-16 94q-2 53 10 112q-41 -59 -55 -119q-12 -51 -3 -110.5zM243 285q3 -41 23 -72q41 -61 90.5 -79.5t94.5 -16.5q53 2 106 26 q27 23 43 67t21.5 93t-1 95t-24.5 75q-10 18 -29 35q-16 14 -41.5 25.5t-62.5 11.5q-72 0 -112 -17.5t-54 -33.5q-16 -18 -29.5 -53t-20.5 -75t-4 -81zM340 545q10 4 29 8q14 4 36.5 6t51.5 2q66 0 99.5 -22.5t45.5 -38.5q23 -31 31 -70t8 -77t-7 -72.5t-13 -57.5 q43 45 69.5 123t5.5 158q-12 29 -32 51q-16 20 -44 36.5t-69 16.5t-79 -10t-66 -23q-35 -14 -66 -30zM639 111l127 139l18 -21l-129 -139z" />
<glyph unicode="&#x43f;" d="M0 227l283 301q53 55 82.5 87t43 38t15.5 -13t2 -67v-20v-242l268 287q27 31 58.5 45t59.5 11t47.5 -24.5t19.5 -62.5v-315q0 -61 8 -91t20.5 -38t28.5 2t33 29l90 96l18 -21q-33 -35 -59 -63q-23 -25 -46.5 -50.5t-33.5 -35.5q-47 -51 -84 -68.5t-62.5 -9.5t-39 38 t-13.5 71v313q-4 51 -16 72.5t-27 27.5q-16 8 -34 -2l-236 -250v-159l-61 -62v524l-62 -67v-492l-16 -16v379v52.5t-5.5 28.5t-18.5 -1t-40 -35l-205 -217zM686 549q20 0 35 -8q12 -10 22.5 -31t12.5 -61v-263v-75q0 -90 52 -93.5t118 80.5q-33 -8 -56 0q-20 6 -36.5 25.5 t-16.5 64.5v295q0 63 -10 93t-28.5 33t-42 -14t-50.5 -46z" />
<glyph unicode="&#x440;" horiz-adv-x="997" d="M-74 -748l23 11q10 -23 28 -39q16 -14 40 -25.5t59 -11.5q29 0 54.5 16.5t43.5 38.5q23 25 41 58q-16 -8 -37 -17q-16 -6 -39.5 -9t-50.5 1q-25 4 -43 13.5t-33 19.5q-16 12 -26 28l53 41q6 -14 16 -24t25.5 -17.5t44.5 -11.5q18 -4 37.5 0t36.5 10q18 8 34 17 q12 14 23 49q10 29 18.5 79t12.5 134v766v52.5t-5.5 28.5t-18.5 -1t-40 -35l-205 -217l-18 20l283 301q53 55 82.5 87t43 39.5t15.5 -12t2 -67.5v-186q55 74 113 133q47 49 104 91t107 42q55 0 91 -20.5t55 -56t24.5 -82.5t-2.5 -101q-14 -98 -76 -189t-152 -157 q-27 -20 -60.5 -34.5t-64 -14.5t-55.5 20.5t-33 73.5l21 6q4 -37 20 -59q14 -18 42 -24.5t79 22.5q23 12 40 26.5t28 24.5q12 12 22 25q-16 -8 -37 -15q-16 -4 -39.5 -7t-50.5 5q-23 4 -33 17.5t-16 25.5q-8 14 -8 31l39 27q4 -16 12 -29q6 -10 17.5 -19.5t29.5 -13.5 q29 -4 50.5 -1t35.5 9q16 8 29 19q25 49 35 102q10 43 8 94.5t-31 92.5q-33 47 -72 57t-73 6q-41 -6 -82 -29l-117 -139v-672q-2 -53 -11 -93t-21.5 -68.5t-26 -51t-25.5 -43.5q-12 -23 -28.5 -40t-30.5 -31q-16 -16 -33 -29q-18 -43 -45 -76q-23 -29 -56.5 -51t-74.5 -22 t-70 12t-45 29q-20 18 -33 40zM283 -606q23 23 41 59q16 31 28.5 78t12.5 113v544v385l-62 -65v-256v-582q2 -72 -1 -124t-7 -87q-6 -39 -12 -65zM575 520q35 14 72 15q31 0 67 -13.5t66 -54.5q27 -37 34 -81t5 -83q-2 -45 -14 -88q39 70 57 137q16 57 10 120t-61 110 q-31 25 -72 18.5t-77 -25.5q-43 -23 -87 -55z" />
<glyph unicode="&#x441;" horiz-adv-x="638" d="M0 227l178 189q29 31 62 63q29 29 64.5 59.5t74.5 57.5q27 18 64.5 35.5t77.5 21.5t78 -9t63 -52l-54 -41q-43 106 -209 16q18 6 41 6q18 0 39 -5t39 -19q16 -16 21 -31q2 -8 0 -14l-19 -17q0 12 -4 23q-4 10 -8 18.5t-12 12.5q-41 16 -76 10t-64 -19q-32 -13 -59 -38 q-16 -18 -29.5 -53t-20.5 -75t-4 -81t23 -72q41 -61 90.5 -79.5t94.5 -16.5q53 2 106 26l102 107l19 -21q-35 -39 -66 -71q-27 -29 -52 -54.5t-38 -35.5q-55 -35 -110 -54q-47 -16 -104.5 -14t-110.5 43q-53 49 -65.5 102.5t-8.5 100.5q6 53 31 104l-136 -143zM147 165.5 q9 -59.5 70 -112.5q43 -39 96.5 -36t100.5 20q53 20 110 59q-43 -14 -86 -18q-37 -4 -83 2t-89 35q-41 27 -55 74t-16 94q-2 53 10 112q-41 -59 -55 -119q-12 -51 -3 -110.5z" />
<glyph unicode="&#x442;" horiz-adv-x="1490" d="M0 227l283 301q53 55 82.5 87t43 38t15.5 -13t2 -67v-20v-242l268 287q27 31 58.5 45t59.5 11t47.5 -24.5t19.5 -62.5v-256l268 287q27 31 58.5 45t59 11t47 -24.5t19.5 -62.5v-315q0 -61 8.5 -91t20.5 -38t28.5 2t32.5 29l90 96l19 -21q-33 -35 -60 -63 q-23 -25 -46 -50.5t-33 -35.5q-47 -51 -84 -68.5t-62.5 -9.5t-39 38t-13.5 71v313q-4 51 -16.5 72.5t-26.5 27.5q-16 8 -35 -2l-235 -250v-159l-62 -62v432q0 63 -10 93t-28.5 33t-42 -14t-50.5 -46q20 0 35 -8q12 -10 22.5 -31t12.5 -61v-433l-17 -16v424q-4 51 -16 72.5 t-27 27.5q-16 8 -34 -2l-236 -250v-159l-61 -62v524l-62 -67v-492l-16 -16v379v52.5t-5.5 28.5t-18.5 -1t-40 -35l-205 -217zM1139 549q20 0 35 -8q12 -10 22 -31t12 -61v-263v-75q0 -90 52.5 -93.5t117.5 80.5q-33 -8 -55 0q-20 6 -36.5 25.5t-16.5 64.5v295q0 63 -10.5 93 t-29 33t-42 -14t-49.5 -46z" />
<glyph unicode="&#x443;" horiz-adv-x="978" d="M0 227l283 301q53 55 82.5 87t43 39.5t15.5 -12t2 -67.5v-323q0 -47 1 -80t7 -45t21.5 0t46.5 53l342 475h35v-536l120 131l19 -21q-33 -35 -60 -63q-23 -25 -46 -50.5t-33 -35.5v-465q0 -49 -8.5 -83t-27 -66.5t-49 -68.5t-79.5 -87q-37 -41 -84 -75t-96.5 -50 t-96.5 -12t-86 41q-80 74 -55 187.5t131 231.5q53 59 108.5 119t100.5 109q53 57 102 110v496l-278 -385q-45 -53 -78 -70.5t-54.5 -9.5t-31.5 38t-10 71v268v52.5t-5.5 28.5t-18.5 -1t-40 -35l-205 -217zM303 111q0 -53 13.5 -75t33 -19t44 24.5t48.5 56.5q-23 -6 -39 2 q-14 6 -26 24.5t-12 63.5v385l-62 -65v-256v-141zM314.5 -658.5q0.5 -54.5 47.5 -105.5q41 -45 90.5 -44t92.5 17q51 20 102 62q-41 -8 -80 -6q-35 2 -70.5 10t-60.5 33q-31 29 -41 69.5t-10 79.5q0 45 10 92q-41 -53 -63 -106q-18 -47 -17.5 -101.5zM432 -484q-6 -46 0 -90 t31 -71t56.5 -43.5t62 -20.5t57.5 2.5t45 22.5t28.5 54t16.5 81t8 85t2 67v327l-250 -266q-18 -20 -34.5 -61t-22.5 -87zM735 -641q25 25 43 66q16 35 28.5 95t10.5 154v338l-61 -65v-320q0 -53 -3 -101t-8 -85zM756 -12l61 65v525l-61 -89v-501z" />
<glyph unicode="&#x444;" horiz-adv-x="1417" d="M0 227l178 189q29 31 62 63q29 29 64.5 59.5t74.5 57.5q27 18 64.5 35.5t77.5 21.5t78 -9t63 -52l-54 -41q-43 106 -209 16q18 6 41 6q18 0 39 -5t39 -19q16 -16 21 -31q2 -8 0 -14l-19 -17q0 12 -4 23q-4 10 -8 18.5t-12 12.5q-41 16 -76 10t-64 -19q-33 -14 -59 -38 q-16 -18 -29.5 -53t-20.5 -75t-4 -81t23 -72q41 -61 90.5 -79.5t94.5 -16.5q53 2 106 26l150 154v522q0 47 21.5 90t47.5 76q31 37 68 70q27 35 57 61q27 23 57.5 42.5t61.5 19.5q29 0 54.5 -11.5t43.5 -25.5q23 -16 39 -35l-61 -33q-10 18 -23 33q-10 12 -24.5 21.5 t-32.5 11.5q-18 0 -35.5 -7.5t-30.5 -17.5q-16 -10 -28 -24q10 2 24 0q27 -4 62 -21q18 -10 26 -25.5t13 -29.5q4 -16 2 -35h-23q4 25 -4 45q-8 16 -28.5 30.5t-67.5 14.5q-35 0 -51.5 -27.5t-22.5 -64.5t-6 -74v-57v-436q59 70 119 122q49 47 105 85t99 38q55 0 91 -20.5 t55.5 -56t25 -82.5t-3.5 -101q-14 -98 -75.5 -189t-151.5 -157q-27 -20 -60.5 -34.5t-64.5 -14.5t-55.5 20.5t-32.5 73.5l21 6q4 -37 20 -59q14 -18 42 -24.5t79 22.5q23 12 40 26.5t27 24.5q12 12 23 25q-16 -8 -37 -15q-16 -4 -39.5 -7t-50.5 5q-23 4 -33 17.5t-16 25.5 q-8 14 -8 31l39 27q4 -16 12 -29q6 -10 17 -19.5t30 -13.5q29 -4 50.5 -1t35.5 9q16 8 29 19q25 49 34 102q10 43 8.5 94.5t-30.5 92.5q-33 47 -72 57t-74 6q-41 -6 -81 -29l-117 -127v-684q-2 -53 -11.5 -93t-21.5 -68.5t-25.5 -51t-25.5 -43.5q-12 -23 -28.5 -40 t-31.5 -31q-16 -16 -32 -29q-18 -43 -45 -76q-23 -29 -56.5 -51t-74.5 -22t-70 12t-45 29q-20 18 -33 40l23 11q10 -23 28 -39q16 -14 40 -25.5t59 -11.5q29 0 54 16.5t44 38.5q23 25 41 58q-16 -8 -37 -17q-16 -6 -39.5 -9t-50.5 1q-25 4 -43.5 13.5t-32.5 19.5 q-16 12 -26 28l53 41q6 -14 16 -24t25.5 -17.5t44.5 -11.5q18 -4 37.5 0t35.5 10q18 8 35 17q12 14 23 49q10 29 18 79t13 134l-2 647q-43 -47 -80 -86q-31 -35 -60.5 -65.5t-42.5 -40.5q-55 -35 -110 -54q-47 -16 -104.5 -14t-110.5 43q-53 49 -65.5 102.5t-8.5 100.5 q6 53 31 104l-136 -143zM147 165.5q9 -59.5 70 -112.5q43 -39 96.5 -36t100.5 20q53 20 110 59q-43 -14 -86 -18q-37 -4 -83 2t-89 35q-41 27 -55 74t-16 94q-2 53 10 112q-41 -59 -55 -119q-12 -51 -3 -110.5zM702 -606q23 25 41 61q16 31 28.5 79t12.5 114v1159 q0 82 7 125q2 25 6 43q-20 -20 -37 -47q-14 -23 -25.5 -57.5t-11.5 -77.5v-1123q2 -72 -1 -124t-7 -87q-6 -39 -13 -65zM995 520q35 14 72 15q31 0 66.5 -13.5t66.5 -54.5q27 -37 34 -81t5 -83q-2 -45 -14 -88q39 70 57 137q16 57 10 120t-61 110q-31 25 -72 18.5t-78 -25.5 q-43 -23 -86 -55z" />
<glyph unicode="&#x445;" horiz-adv-x="968" d="M0 227l283 301q33 35 69 64q31 23 70 43t80 20q59 0 87.5 -32.5t39.5 -73.5q10 -47 6 -105l135 154q18 20 45 36.5t55.5 20.5t58 -10t54.5 -53l-41 -33q-23 53 -69 55t-97 -47q12 2 23 0q10 -2 20 -5t21 -13q16 -23 18 -33q2 -8 2 -12l-18 -17q0 12 -2 23q-4 23 -19 31 q-18 12 -36.5 9t-32.5 -13q-18 -10 -33 -27q-16 -16 -29 -45q-10 -25 -17 -68t-3 -106q2 -47 14 -79t28.5 -50.5t37 -26.5t41.5 -8q49 -2 108 27l90 96l19 -21q-33 -35 -60 -63q-23 -25 -46.5 -50.5t-33.5 -35.5q-33 -35 -70.5 -54.5t-74.5 -24.5t-69.5 7t-57.5 41 q-29 33 -38 67t-11 62q-2 33 4 64q-23 -33 -45 -66q-20 -29 -47 -60.5t-58 -56.5q-27 -23 -62.5 -39t-71.5 -19t-65.5 14.5t-45.5 66.5l16 10q16 -45 49 -63q27 -16 72 -9t110 70q-16 -8 -38 -10q-18 -4 -42 -1t-47 15q-16 8 -25 21.5t-13 25.5q-6 14 -9 29l39 27 q6 -14 15 -27q8 -10 18 -21.5t27 -15.5q47 -18 75 -10q14 2 27 10q27 14 49 41q18 23 32.5 64t16.5 106q0 70 -28.5 112t-68.5 58t-82 9t-66 -36l-265 -280zM340 541q25 4 49 2q23 -2 48.5 -10.5t49.5 -30.5q23 -23 36.5 -55.5t19.5 -63.5q8 -37 6 -74q29 51 37 103 q8 43 0 91t-56 87q-33 27 -65.5 22.5t-61.5 -20.5q-33 -18 -63 -51zM568.5 169.5q2.5 -57.5 47.5 -110.5q35 -45 78 -43t78 21q41 23 84 63q-33 -10 -65 -12q-29 -2 -60 2t-53 23q-35 25 -46 68.5t-11 88.5q0 51 10 109q-35 -51 -51 -105q-14 -47 -11.5 -104.5z" />
<glyph unicode="&#x446;" d="M0 227l283 301q53 55 82.5 87t43 39.5t15.5 -12t2 -67.5v-323q0 -47 1 -80t7 -45t21.5 0t46.5 53l342 475h35v-403q0 -61 8 -91t20.5 -38t28.5 2t33 29l90 96l18 -21q-33 -35 -59 -63q-23 -25 -46.5 -50.5t-33.5 -35.5q-47 -51 -84 -68.5t-62.5 -9.5t-39 38t-13.5 71v356 l-278 -385q-45 -53 -78 -70.5t-54.5 -9.5t-31.5 38t-10 71v268v52.5t-5.5 28.5t-18.5 -1t-40 -35l-205 -217zM303 111q0 -53 13.5 -75t33 -19t44 24.5t48.5 56.5q-23 -6 -39 2q-14 6 -26 24.5t-12 63.5v385l-62 -65v-256v-141zM756 111q0 -90 52 -93.5t118 80.5 q-33 -8 -56 0q-20 6 -36.5 25.5t-16.5 64.5v390l-61 -89v-303v-75zM823 -113q0 20 5.5 37t11.5 29q8 14 18 27l10 -15q-8 -10 -14 -20q-14 -23 -14 -56q0 -18 7 -32.5t16 -28.5t16.5 -28.5t7.5 -30.5q0 -27 -4 -46.5t-9 -33.5q-6 -16 -12 -31l-16 10q6 10 12 25q4 12 8 30.5 t4 45.5q0 18 -8 30.5t-16 24.5t-15.5 26.5t-7.5 36.5zM887 -35q0 23 5 37t11 25q8 10 19 20l34 -22q-6 -2 -12 -11q-4 -6 -9 -18.5t-3 -30.5q0 -18 9 -34.5t18.5 -36t17.5 -42t8 -53.5q0 -45 -11 -73.5t-24 -47.5q-14 -23 -32 -32l-31 14q14 6 26 25q10 16 18.5 41.5 t8.5 72.5q0 31 -8 47.5t-18.5 32t-18.5 33.5t-8 53z" />
</font>
</defs>
</svg>
